<?xml version="1.0" standalone="no"?> <!DOCTYPE svg PUBLIC "-//W3C//DTD SVG 1.0//EN" "http://www.w3.org/TR/2001/REC-SVG-20010904/DTD/svg10.dtd" > <svg xmlns="http://www.w3.org/2000/svg" width="100%" height="100%">
<defs >
<font id="adihausdinbold" horiz-adv-x="580" ><font-face
    font-family="AdihausDIN"
    units-per-em="1000"
    panose-1="2 11 8 4 2 1 1 2 1 2"
    ascent="1041"
    descent="-237"
    alphabetic="0" />
<missing-glyph horiz-adv-x="573" d="M73 712H500V0H73V712ZM413 87V625H160V87H413Z" />
<glyph unicode=" " glyph-name="space" horiz-adv-x="232" />
<glyph unicode="!" glyph-name="exclam" horiz-adv-x="347" d="M240 223H144L112 712H273L240 223ZM118 0V148H267V0H118Z" />
<glyph unicode="&quot;" glyph-name="quotedbl" horiz-adv-x="464" d="M68 501V712H190V501H68ZM274 501V712H395V501H274Z" />
<glyph unicode="#" glyph-name="numbersign" horiz-adv-x="691" d="M554 420L538 312H607V190H518L488 0H351L382 190H266L236 0H99L129 190H60V312H149L165 420H95V541H184L212 718H349L321 541H437L465 718H601L574 541H643V420H554ZM302 420L285 312H401L417 420H302Z" />
<glyph unicode="$" glyph-name="dollar" horiz-adv-x="619" d="M571 210Q571 164 555 128T511 64T443 21T356 -2V-114H255V-6Q183 -4 126 17T19 88L109 178Q141 146 182 133T268 118V299L236 303Q191 309 156 324T98 363Q47 414 47 502Q47 589 102 647T255 716V806H356V717Q417
713 464 694T553 635L465 548Q440 572 407 583T342 596V422L380 416Q429 408 461 395T516 360Q545 333 558 296T571 210ZM435 206Q435 245 413 266Q401 277 386 282T342 292V120Q387 125 411 147T435 206ZM268 595Q224 589 203 565T181 507Q181 493 186 480T202
456Q225 434 268 428V595Z" />
<glyph unicode="%" glyph-name="percent" horiz-adv-x="848" d="M248 577Q248 634 198 634Q147 634 147 577V486Q147 429 198 429Q248 429 248 486V577ZM342 482Q342 448 331 423T300 380T254 354T198 345Q168 345 142 353T95 379T64 422T52 482V581Q52 615 63
640T95 683T141 709T198 718Q227 718 253 709T299 683T330 641T342 581V482ZM702 226Q702 283 651 283Q600 283 600 226V134Q600 78 651 78Q702 78 702 134V226ZM796 131Q796 97 785 72T753 29T707 3T651 -6Q621 -6 595 2T549 28T518 71T506 131V230Q506 264 517
289T549 332T595 358T651 367Q681 367 707 358T753 332T784 290T796 230V131ZM307 0H205L542 712H644L307 0Z" />
<glyph unicode="&amp;" glyph-name="ampersand" horiz-adv-x="721" d="M531 0L479 62Q465 51 449 39T410 17T360 1T295 -6Q177 -6 119 51T60 210Q60 244 71 272T101 324T142 367T188 401Q177 413 165 429T142 463T124 504T117 552Q117 588 130 618T167 671T227
705T307 718Q349 718 382 706T440 671T476 617T489 550Q489 508 469 479T416 426L365 389L485 247Q502 270 510 302T521 372H644Q640 303 623 248T568 151L696 0H531ZM258 321Q226 298 206 274T186 212Q186 190 194 172T217 140T251 120T294 112Q326 112 350 122T400
154L258 321ZM366 549Q366 574 351 590T307 607Q278 607 263 591T248 549Q248 529 262 510T295 469L325 489Q342 501 354 515T366 549Z" />
<glyph unicode="&apos;" glyph-name="quotesingle" horiz-adv-x="259" d="M68 501V712H191V501H68Z" />
<glyph unicode="(" glyph-name="parenleft" horiz-adv-x="336" d="M80 574Q80 607 84 640T106 703Q123 732 145 756T194 806L282 718Q264 700 252 687T226 652Q211 623 211 568V144Q211 88 226 60Q239 38 251 25T282 -6L194 -94Q168 -68 146 -44T106 9Q88 39 84
71T80 138V574Z" />
<glyph unicode=")" glyph-name="parenright" horiz-adv-x="336" d="M256 138Q256 104 252 72T230 9Q213 -20 191 -44T142 -94L54 -6Q72 12 84 25T110 60Q125 88 125 144V568Q125 623 110 652Q97 674 85 687T54 718L142 806Q168 780 190 756T230 703Q247 674 251
641T256 574V138Z" />
<glyph unicode="*" glyph-name="asterisk" horiz-adv-x="494" d="M394 381L289 447L293 322H201L206 447L100 381L55 460L165 518L55 576L100 656L206 589L201 714H293L289 589L394 656L440 576L329 518L440 460L394 381Z" />
<glyph unicode="+" glyph-name="plus" horiz-adv-x="543" d="M333 216V56H211V216H50V338H211V498H333V338H493V216H333Z" />
<glyph unicode="," glyph-name="comma" horiz-adv-x="279" d="M68 -165V142H211V-55L68 -165Z" />
<glyph unicode="-" glyph-name="hyphen" horiz-adv-x="426" d="M59 225V346H367V225H59Z" />
<glyph unicode="." glyph-name="period" horiz-adv-x="285" d="M68 0V148H217V0H68Z" />
<glyph unicode="/" glyph-name="slash" horiz-adv-x="403" d="M122 -74H0L285 786H407L122 -74Z" />
<glyph unicode="0" glyph-name="zero" horiz-adv-x="528" d="M480 206Q480 155 463 116T416 49T347 8T264 -6Q220 -6 181 8T112 49T65 115T47 206V506Q47 557 64 596T112 663T181 704T264 718Q307 718 346 704T415 663T462 597T480 506V206ZM350 504Q350 549 327
575T264 601Q225 601 201 575T177 504V207Q177 162 201 137T264 111Q303 111 326 136T350 207V504Z" />
<glyph unicode="1" glyph-name="one" horiz-adv-x="528" d="M240 0V572L95 446V586L240 712H370V0H240Z" />
<glyph unicode="2" glyph-name="two" horiz-adv-x="528" d="M51 0V117L317 426Q337 449 345 468T354 512Q354 552 332 576T268 601Q252 601 237 597T209 582T189 554T181 510H51Q51 559 67 597T113 663T182 704T268 718Q315 718 355 704T423 663T468 598T484 511Q484
485 479 465T465 425T441 388T408 348L209 117H484V0H51Z" />
<glyph unicode="3" glyph-name="three" horiz-adv-x="528" d="M487 206Q487 153 469 113T420 47T348 7T261 -6Q217 -6 177 6T105 43T54 108T34 204H164Q165 180 173 163T194 134T224 117T261 111Q303 111 330 136T357 210Q357 255 331 281T257 308H238V421H257Q305
421 326 446T347 510Q347 555 321 578T260 601Q223 601 199 579T172 515H42Q43 563 60 600T107 664T175 704T260 718Q307 718 347 703T416 661T461 597T477 514Q477 456 454 422T395 368Q433 348 460 310T487 206Z" />
<glyph unicode="4" glyph-name="four" horiz-adv-x="528" d="M439 101V0H314V101H23V224L267 712H409L165 224H314V357H439V224H504V101H439Z" />
<glyph unicode="5" glyph-name="five" horiz-adv-x="528" d="M486 240Q486 180 474 136T423 52Q399 28 361 11T266 -6Q210 -6 170 11T107 51Q74 84 63 122T49 199H179Q184 157 204 134T266 111Q305 111 328 134Q345 151 350 178T356 240Q356 302 337 335T269 368Q229
368 210 350T183 310H64V712H470V595H182V442Q196 456 224 467T289 478Q334 478 367 465T422 430Q464 388 475 340T486 240Z" />
<glyph unicode="6" glyph-name="six" horiz-adv-x="528" d="M484 216Q484 163 467 122T420 53T350 9T262 -6Q215 -6 175 8T104 51T57 120T40 214Q40 263 58 309T100 404L250 712H392L244 418Q257 423 270 425T297 427Q333 427 366 413T426 371T468 305T484 216ZM354
215Q354 263 329 291T262 319Q222 319 196 292T170 215Q170 165 196 138T262 111Q302 111 328 138T354 215Z" />
<glyph unicode="7" glyph-name="seven" horiz-adv-x="528" d="M264 0H123L354 595H166V483H42V712H495V595L264 0Z" />
<glyph unicode="8" glyph-name="eight" horiz-adv-x="528" d="M492 207Q492 155 474 116T425 49T353 8T264 -6Q217 -6 176 8T103 49T54 115T36 207Q36 240 44 265T66 309T94 343T125 367Q111 376 97 390T72 422T53 463T45 515Q45 562 62 599T110 663T179 704T264
718Q309 718 348 704T417 664T464 600T482 515Q482 486 475 463T456 422T430 390T402 367Q417 357 432 343T461 310T483 265T492 207ZM362 209Q362 251 334 279T264 308Q222 308 194 280T166 209Q166 167 194 139T264 111Q306 111 334 139T362 209ZM352 511Q352
549 327 575T264 601Q226 601 201 575T175 511Q175 472 200 447T264 421Q302 421 327 446T352 511Z" />
<glyph unicode="9" glyph-name="nine" horiz-adv-x="528" d="M487 498Q487 449 470 403T428 308L277 0H136L284 294Q271 289 258 287T231 285Q195 285 161 299T101 341T59 407T43 496Q43 548 60 589T107 659T177 703T265 718Q312 718 352 704T423 661T470 592T487
498ZM357 497Q357 547 331 574T265 601Q225 601 199 574T173 497Q173 449 198 421T265 393Q305 393 331 420T357 497Z" />
<glyph unicode=":" glyph-name="colon" horiz-adv-x="309" d="M93 271V419H241V271H93ZM93 0V148H241V0H93Z" />
<glyph unicode=";" glyph-name="semicolon" horiz-adv-x="309" d="M96 -165V142H238V-55L96 -165ZM93 271V419H241V271H93Z" />
<glyph unicode="&lt;" glyph-name="less" horiz-adv-x="543" d="M69 229V342L475 529V392L234 285L475 179V42L69 229Z" />
<glyph unicode="=" glyph-name="equal" horiz-adv-x="543" d="M50 333V455H493V333H50ZM50 116V238H493V116H50Z" />
<glyph unicode="&gt;" glyph-name="greater" horiz-adv-x="543" d="M69 42V179L310 285L69 392V529L475 342V229L69 42Z" />
<glyph unicode="?" glyph-name="question" horiz-adv-x="523" d="M487 518Q487 480 473 451T438 393L364 295Q356 285 351 271T346 244V223H216V253Q216 285 225 308T254 357L328 452Q340 468 348 485T357 519Q357 554 336 577T276 601Q236 601 216 577T196 518H66Q66
564 82 601T127 664T194 704T276 718Q318 718 356 705T424 666T470 603T487 518ZM212 0V133H350V0H212Z" />
<glyph unicode="@" glyph-name="at" horiz-adv-x="970" d="M919 338Q919 278 897 224T835 128T739 62T616 37H512L522 84Q496 57 469 44T409 31Q341 31 305 70T269 166Q269 204 281 261Q287 293 294 320T310 370T331 413T363 449Q390 473 420 481T481 490Q521
490 546 476T587 438L596 484H715L641 114Q686 117 720 136T777 186T811 256T823 338Q823 401 802 452T741 538T646 593T523 613Q446 613 380 586T265 510T188 397T160 255Q160 172 185 106T258 -6T374 -76T528 -101H603L587 -184H511Q409 -184 326 -152T183 -61T91
78T59 255Q59 351 94 433T192 575T339 669T523 703Q612 703 685 676T810 601T890 485T919 338ZM558 322Q558 355 541 370T500 386Q469 386 446 366Q431 352 419 328T399 261Q393 231 393 199Q393 166 409 151T450 135Q483 135 506 156Q521 170 532 194T551 261Q554
276 556 291T558 322Z" />
<glyph unicode="A" glyph-name="A" horiz-adv-x="638" d="M488 0L446 126H193L150 0H5L264 712H373L633 0H488ZM322 502L232 243H409L322 502Z" />
<glyph unicode="B" glyph-name="B" horiz-adv-x="658" d="M501 365Q522 354 533 346T555 327Q578 302 588 272T599 204Q599 157 584 120T541 56T472 15T381 0H83V712H369Q419 712 460 698T529 659T573 597T589 516Q589 414 501 365ZM358 424Q401 424 425 446T450
506Q450 544 426 566T358 588H222V424H358ZM367 124Q410 124 435 147T460 212Q460 253 435 276T367 299H222V124H367Z" />
<glyph unicode="C" glyph-name="C" horiz-adv-x="620" d="M583 219Q563 107 493 51T322 -6Q260 -6 214 13T131 69Q104 96 90 125T69 188T61 264T59 356Q59 407 60 448T68 523T89 587T131 643Q168 679 214 698T322 718Q422 718 492 662T583 493H441Q430 537 402
565T322 594Q293 594 271 584T233 557Q223 546 217 532T206 496T200 441T198 356Q198 305 200 272T206 216T216 180T233 155Q248 138 270 128T322 118Q374 118 402 146T442 219H583Z" />
<glyph unicode="D" glyph-name="D" horiz-adv-x="659" d="M600 356Q600 312 599 276T594 209T581 153T555 104Q517 50 465 25T340 0H83V712H340Q413 712 465 687T555 608Q571 585 580 560T594 504T599 437T600 356ZM461 356Q461 398 460 428T456 480T448 517T432
544Q397 588 328 588H222V124H328Q397 124 432 168Q442 180 447 195T456 231T460 283T461 356Z" />
<glyph unicode="E" glyph-name="E" horiz-adv-x="605" d="M83 0V712H552V588H222V421H503V297H222V124H552V0H83Z" />
<glyph unicode="F" glyph-name="F" horiz-adv-x="590" d="M222 588V413H503V289H222V0H83V712H552V588H222Z" />
<glyph unicode="G" glyph-name="G" horiz-adv-x="649" d="M590 292Q590 215 576 165T522 75Q477 28 428 11T321 -6Q260 -6 214 13T131 69Q104 96 90 125T69 188T61 264T59 356Q59 407 60 448T68 523T89 587T131 643Q168 679 214 698T321 718Q383 718 430 699T510
649T562 576T589 490H449Q425 594 321 594Q292 594 270 584T232 556Q222 545 216 532T205 496T200 441T198 356Q198 305 199 272T205 216T215 180T232 155Q248 138 270 128T321 118Q353 118 378 128T420 158Q437 178 444 201T452 253V279H321V396H590V292Z" />
<glyph unicode="H" glyph-name="H" horiz-adv-x="685" d="M463 0V298H222V0H83V712H222V421H463V712H602V0H463Z" />
<glyph unicode="I" glyph-name="I" horiz-adv-x="305" d="M83 0V712H222V0H83Z" />
<glyph unicode="J" glyph-name="J" horiz-adv-x="511" d="M437 234Q437 175 417 130T361 55T281 10T186 -6Q128 -6 86 10T3 67L95 158Q112 141 131 130T186 118Q237 118 267 148T298 240V712H437V234Z" />
<glyph unicode="K" glyph-name="K" horiz-adv-x="665" d="M497 0L314 324L222 214V0H83V712H222V402L473 712H642L406 429L659 0H497Z" />
<glyph unicode="L" glyph-name="L" horiz-adv-x="575" d="M83 0V712H222V124H545V0H83Z" />
<glyph unicode="M" glyph-name="M" horiz-adv-x="811" d="M589 0V415L453 145H359L222 415V0H83V712H220L406 327L591 712H728V0H589Z" />
<glyph unicode="N" glyph-name="N" horiz-adv-x="711" d="M504 0L222 437V0H83V712H207L489 276V712H628V0H504Z" />
<glyph unicode="O" glyph-name="O" horiz-adv-x="644" d="M585 356Q585 305 584 264T575 189T554 125T512 69Q476 33 430 14T322 -6Q260 -6 214 13T131 69Q104 96 90 125T69 188T61 264T59 356Q59 407 60 448T68 523T89 587T131 643Q167 679 213 698T322 718Q384
718 430 699T512 643Q539 616 553 587T575 524T583 448T585 356ZM446 356Q446 407 444 440T438 496T428 531T411 556Q396 573 374 583T322 594Q293 594 271 584T232 556Q222 545 216 532T205 496T200 441T198 356Q198 305 199 272T205 217T215 182T232 157Q248
140 270 129T322 118Q351 118 373 129T411 157Q421 168 427 181T438 216T444 271T446 356Z" />
<glyph unicode="P" glyph-name="P" horiz-adv-x="628" d="M594 490Q594 445 578 405T532 334T458 286T359 268H222V0H83V712H359Q414 712 458 695T532 647T578 576T594 490ZM455 490Q455 534 428 561T352 588H222V393H352Q400 393 427 419T455 490Z" />
<glyph unicode="Q" glyph-name="Q" horiz-adv-x="643" d="M585 356Q585 313 584 277T579 211T566 154T541 104L602 43L529 -30L465 32Q436 14 401 4T322 -6Q260 -6 214 13T131 69Q104 96 90 125T69 188T61 264T59 356Q59 407 60 448T68 523T89 587T131 643Q168
679 214 698T322 718Q384 718 430 699T512 643Q539 616 553 587T575 524T583 448T585 356ZM446 356Q446 407 444 440T438 496T428 531T411 556Q396 573 374 583T322 594Q293 594 271 584T232 556Q222 545 216 532T205 496T200 441T198 356Q198 305 199 272T205
217T215 182T232 157Q248 140 270 129T322 118Q348 118 368 131L306 192L379 266L433 212Q441 235 443 268T446 356Z" />
<glyph unicode="R" glyph-name="R" horiz-adv-x="654" d="M461 0L322 284H222V0H83V712H362Q416 712 459 695T532 648T577 579T593 494Q593 456 583 426T554 373T513 333T463 307L622 0H461ZM454 494Q454 536 427 562T353 588H222V400H353Q399 400 426 426T454 494Z" />
<glyph unicode="S" glyph-name="S" horiz-adv-x="591" d="M543 210Q543 158 523 118T468 51T384 9T279 -6Q198 -6 135 14T19 88L109 178Q143 144 187 131T280 118Q343 118 375 141T407 207Q407 244 385 266Q374 276 361 281T321 290L236 303Q188 310 155 324T98
362Q47 411 47 502Q47 550 64 589T113 657T191 702T295 718Q369 718 424 699T525 635L437 548Q404 580 365 588T291 597Q235 597 209 571T182 507Q182 493 186 480T202 456Q213 446 228 439T267 429L352 416Q401 409 433 396T488 360Q517 334 530 296T543 210Z"
/>
<glyph unicode="T" glyph-name="T" horiz-adv-x="571" d="M355 588V0H216V588H30V712H541V588H355Z" />
<glyph unicode="U" glyph-name="U" horiz-adv-x="668" d="M596 244Q596 187 576 141T520 63T437 12T334 -6Q279 -6 232 12T149 62T93 141T72 244V712H211V249Q211 187 244 153T334 118Q391 118 424 152T458 249V712H596V244Z" />
<glyph unicode="V" glyph-name="V" horiz-adv-x="581" d="M342 0H238L3 712H147L290 248L433 712H578L342 0Z" />
<glyph unicode="W" glyph-name="W" horiz-adv-x="887" d="M690 0H574L443 432L312 0H196L6 712H151L261 263L391 712H495L625 263L736 712H881L690 0Z" />
<glyph unicode="X" glyph-name="X" horiz-adv-x="603" d="M439 0L301 248L164 0H5L226 365L19 712H177L301 482L426 712H583L376 365L598 0H439Z" />
<glyph unicode="Y" glyph-name="Y" horiz-adv-x="572" d="M355 292V0H217V292L3 712H154L287 425L418 712H569L355 292Z" />
<glyph unicode="Z" glyph-name="Z" horiz-adv-x="548" d="M40 0V112L344 588H53V712H508V602L203 124H508V0H40Z" />
<glyph unicode="[" glyph-name="bracketleft" horiz-adv-x="378" d="M80 -74V786H337V669H210V43H337V-74H80Z" />
<glyph unicode="\" glyph-name="backslash" horiz-adv-x="403" d="M281 -74L0 773H122L403 -74H281Z" />
<glyph unicode="]" glyph-name="bracketright" horiz-adv-x="378" d="M42 -74V42H169V670H42V786H299V-74H42Z" />
<glyph unicode="^" glyph-name="asciicircum" horiz-adv-x="602" d="M403 389L301 577L199 389H63L241 719H361L539 389H403Z" />
<glyph unicode="_" glyph-name="underscore" horiz-adv-x="602" d="M0 -178V-91H602V-178H0Z" />
<glyph unicode="`" glyph-name="grave" horiz-adv-x="500" d="M218 604L104 774H241L305 604H218Z" />
<glyph unicode="a" glyph-name="a" horiz-adv-x="534" d="M340 0V45Q314 19 286 7T212 -5Q125 -5 79 41Q58 63 47 93T36 158Q36 189 47 216T80 264T136 297T216 309H337V335Q337 378 315 397T240 417Q205 417 183 407T140 372L58 453Q96 495 138 511T245 527Q467
527 467 343V0H340ZM337 220H238Q161 220 161 160Q161 133 180 117T240 101Q264 101 282 105T317 126Q328 136 332 151T337 192V220Z" />
<glyph unicode="b" glyph-name="b" horiz-adv-x="560" d="M509 261Q509 228 508 197T501 137T485 85T455 41Q433 18 400 6T329 -6Q287 -6 257 6T199 49V0H73V712H203V475Q228 504 258 515T329 527Q368 527 400 515T455 480Q474 461 484 437T500 384T507 325T509
261ZM379 261Q379 292 376 319T364 367T338 398T291 410Q262 410 245 399T218 367T206 320T203 261Q203 229 206 202T218 155T244 123T291 111Q320 111 337 122T364 154T376 202T379 261Z" />
<glyph unicode="c" glyph-name="c" horiz-adv-x="480" d="M452 65Q417 29 376 12T280 -6Q241 -6 200 6T125 48T69 130T47 261Q47 340 69 391T124 473T199 515T280 527Q334 527 375 510T452 457L364 369Q344 391 325 400T280 410Q234 410 206 376Q191 357 184 330T177
261Q177 181 206 145Q234 111 280 111Q306 111 325 120T364 152L452 65Z" />
<glyph unicode="d" glyph-name="d" horiz-adv-x="561" d="M361 0V49Q334 19 304 7T232 -6Q193 -6 160 6T105 41Q86 60 76 84T60 137T53 196T51 261Q51 294 52 325T59 384T75 436T105 480Q127 503 159 515T231 527Q271 527 301 516T358 475V712H488V0H361ZM358
261Q358 292 355 319T343 367T316 398T269 410Q240 410 223 399T196 367T184 320T181 261Q181 229 184 202T196 155T222 123T269 111Q298 111 315 122T342 154T355 202T358 261Z" />
<glyph unicode="e" glyph-name="e" horiz-adv-x="548" d="M175 220Q175 169 204 137T289 104Q332 104 357 116T407 153L486 76Q466 56 446 41T403 15T351 -1T288 -6Q242 -6 199 6T122 48T68 130T47 261Q47 325 63 374T110 458T181 509T274 527Q328 527 370 509T442
457T486 377T501 275V220H175ZM373 309Q372 326 370 338T361 365Q350 388 329 403T274 419Q241 419 220 404T187 365Q180 351 178 339T175 309H373Z" />
<glyph unicode="f" glyph-name="f" horiz-adv-x="342" d="M219 407V0H89V407H35V506H89V571Q89 599 98 625T125 673T172 707T241 720H315V610H264Q219 610 219 563V506H315V407H219Z" />
<glyph unicode="g" glyph-name="g" horiz-adv-x="555" d="M482 19Q482 -28 466 -67T420 -136T348 -181T253 -197Q193 -197 149 -183T64 -129L145 -47Q167 -68 190 -77T247 -87Q276 -87 296 -78T328 -53T346 -19T352 21V74Q326 45 296 34T228 22Q190 22 158 34T104
68Q86 86 75 108T59 155T53 211T51 275Q51 309 52 338T59 393T75 441T104 481Q126 503 158 515T229 527Q271 527 300 515T356 472V521H482V19ZM352 275Q352 301 350 325T338 368T312 398T266 410Q237 410 220 399T195 369T184 326T181 275Q181 249 183 225T194
181T220 151T266 139Q295 139 312 150T338 181T349 224T352 275Z" />
<glyph unicode="h" glyph-name="h" horiz-adv-x="573" d="M376 0V315Q376 342 369 360T349 389T321 405T290 410Q275 410 260 405T232 389T211 360T203 315V0H73V712H203V473Q228 500 260 513T330 527Q369 527 400 515T453 481Q485 449 495 413T506 333V0H376Z" />
<glyph unicode="i" glyph-name="i" horiz-adv-x="275" d="M73 0V506H203V0H73ZM71 610V716H204V610H71Z" />
<glyph unicode="j" glyph-name="j" horiz-adv-x="275" d="M203 -46Q203 -74 195 -100T168 -148T120 -182T51 -195H-23V-85H27Q52 -85 62 -73T73 -38V506H203V-46ZM71 610V716H204V610H71Z" />
<glyph unicode="k" glyph-name="k" horiz-adv-x="559" d="M386 0L258 217L203 155V0H73V712H203V308L376 521H533L347 311L547 0H386Z" />
<glyph unicode="l" glyph-name="l" horiz-adv-x="325" d="M220 0Q180 0 151 13T104 47T77 94T68 149V712H198V157Q198 134 208 122T244 110H294V0H220Z" />
<glyph unicode="m" glyph-name="m" horiz-adv-x="876" d="M679 0V315Q679 342 672 360T652 389T624 405T593 410Q578 410 563 405T535 390T514 361T506 318V0H376V315Q376 342 369 360T349 389T321 405T290 410Q275 410 260 405T232 389T211 360T203 315V0H73V521H200V473Q226
499 260 513T330 527Q374 527 408 511T468 461Q501 496 538 511T624 527Q663 527 696 515T752 481Q784 449 796 413T809 333V0H679Z" />
<glyph unicode="n" glyph-name="n" horiz-adv-x="573" d="M376 0V315Q376 342 369 360T349 389T321 405T290 410Q275 410 260 405T232 389T211 360T203 315V0H73V521H200V473Q226 500 260 513T330 527Q369 527 400 515T453 481Q485 449 495 413T506 333V0H376Z" />
<glyph unicode="o" glyph-name="o" horiz-adv-x="543" d="M492 261Q492 190 481 143T433 58Q408 32 369 13T271 -6Q213 -6 174 13T110 58Q75 96 63 143T51 261Q51 332 63 378T110 463Q135 489 174 508T271 527Q329 527 368 508T433 463Q468 425 480 379T492 261ZM362
261Q362 301 357 334T332 387Q309 410 271 410Q234 410 211 387Q191 367 186 334T181 261Q181 220 186 187T211 134Q234 111 271 111Q309 111 332 134Q352 154 357 187T362 261Z" />
<glyph unicode="p" glyph-name="p" horiz-adv-x="560" d="M509 261Q509 228 508 197T501 138T485 85T455 41Q433 18 400 6T329 -6Q289 -6 259 5T203 46V-191H73V521H199V472Q226 502 256 514T329 527Q367 527 400 515T455 480Q474 461 484 437T500 384T507 325T509
261ZM379 261Q379 292 376 319T364 367T338 398T291 410Q262 410 245 399T218 367T206 320T203 261Q203 229 206 202T218 155T244 123T291 111Q320 111 337 122T364 154T376 202T379 261Z" />
<glyph unicode="q" glyph-name="q" horiz-adv-x="561" d="M358 -191V46Q332 17 302 6T231 -6Q192 -6 160 6T105 41Q86 60 76 84T60 137T53 197T51 261Q51 294 52 325T59 384T75 436T105 480Q127 503 160 515T232 527Q274 527 304 515T361 472V521H488V-191H358ZM358
261Q358 292 355 319T343 367T316 398T269 410Q240 410 223 399T196 367T184 320T181 261Q181 229 184 202T196 155T222 123T269 111Q298 111 315 122T342 154T355 201T358 261Z" />
<glyph unicode="r" glyph-name="r" horiz-adv-x="455" d="M356 379Q341 394 326 402T287 410Q272 410 257 405T230 387T211 357T203 314V0H73V521H200V471Q219 494 254 510T331 527Q369 527 398 516T454 478L356 379Z" />
<glyph unicode="s" glyph-name="s" horiz-adv-x="501" d="M465 164Q465 121 448 89T401 36T331 5T244 -6Q213 -6 184 -4T128 7T74 29T22 69L107 154Q123 138 141 129T177 114T213 107T246 105Q263 105 279 108T309 117T330 134T338 159Q338 179 327 191T283 207L199
215Q130 222 90 255T49 361Q49 402 65 433T109 485T173 516T250 527Q312 527 361 514T449 466L369 385Q346 405 315 412T248 420Q209 420 192 405T174 370Q174 350 186 339T228 325L310 317Q388 309 426 270T465 164Z" />
<glyph unicode="t" glyph-name="t" horiz-adv-x="352" d="M236 0Q196 0 168 13T121 47T94 94T85 149V407H30V506H85V660H215V506H307V407H215V157Q215 110 260 110H307V0H236Z" />
<glyph unicode="u" glyph-name="u" horiz-adv-x="573" d="M373 0V48Q347 21 313 8T243 -6Q204 -6 173 6T120 40Q88 72 78 108T67 188V521H197V206Q197 179 204 161T224 132T252 116T283 111Q298 111 313 116T341 132T362 161T370 206V521H500V0H373Z" />
<glyph unicode="v" glyph-name="v" horiz-adv-x="493" d="M298 0H196L4 521H141L247 199L352 521H489L298 0Z" />
<glyph unicode="w" glyph-name="w" horiz-adv-x="759" d="M596 0H489L380 327L271 0H164L4 521H142L226 199L332 521H427L534 199L618 521H755L596 0Z" />
<glyph unicode="x" glyph-name="x" horiz-adv-x="527" d="M359 0L263 156L168 0H12L192 266L19 521H175L263 372L352 521H508L335 266L515 0H359Z" />
<glyph unicode="y" glyph-name="y" horiz-adv-x="494" d="M267 -84Q250 -129 228 -151Q205 -174 177 -182T116 -191H65V-74H95Q123 -74 136 -65T160 -27L182 37L4 521H141L249 199L353 521H490L267 -84Z" />
<glyph unicode="z" glyph-name="z" horiz-adv-x="478" d="M37 0V99L268 404H50V521H434V422L200 117H434V0H37Z" />
<glyph unicode="{" glyph-name="braceleft" horiz-adv-x="457" d="M312 -74Q273 -74 246 -65T200 -37Q158 5 158 74V219Q158 262 141 279Q133 287 120 292T89 298H43V414H89Q107 414 120 419T141 433Q158 450 158 493V638Q158 707 200 749Q218 767 245 776T312
786H414V669H361Q338 669 325 666T304 655Q296 646 292 632T288 591V456Q288 429 281 412T264 383T241 366T219 356Q229 352 241 346T263 329T281 301T288 256V121Q288 95 292 81T304 57Q312 49 325 46T361 43H414V-74H312Z" />
<glyph unicode="|" glyph-name="bar" horiz-adv-x="350" d="M110 -74V786H240V-74H110Z" />
<glyph unicode="}" glyph-name="braceright" horiz-adv-x="457" d="M368 298Q350 298 337 293T316 279Q299 262 299 219V74Q299 5 257 -37Q239 -55 212 -64T145 -74H43V43H96Q119 43 132 46T153 57Q161 66 165 80T169 121V256Q169 283 176 300T193 329T216 346T238
356Q228 360 216 366T194 383T176 411T169 456V591Q169 617 165 631T153 655Q145 663 132 666T96 669H43V786H145Q184 786 211 777T257 749Q299 707 299 638V493Q299 450 316 433Q324 425 337 420T368 414H414V298H368Z" />
<glyph unicode="~" glyph-name="asciitilde" horiz-adv-x="606" d="M569 281Q546 258 526 242T487 215T447 200T404 195Q373 195 346 203T287 229Q265 240 246 246T205 253Q185 253 166 246T119 211L37 293Q60 316 80 332T119 359T158 374T201 379Q232 379 259
371T318 345Q340 334 358 328T399 321Q419 321 438 328T486 363L569 281Z" />
</font>
</defs>
</svg>
