<?xml version="1.0" standalone="no"?>
<!DOCTYPE svg PUBLIC "-//W3C//DTD SVG 1.1//EN" "http://www.w3.org/Graphics/SVG/1.1/DTD/svg11.dtd" >
<svg>
<metadata>
Created by FontForge 20131121 at Wed May 20 12:18:20 2015

Copyright (c) 2014 adidas. All rights reserved.
</metadata>
<defs>
<font id="adineuePRO-RegularWeb" horiz-adv-x="512" >
  <font-face 
    font-family="adineue PRO Regular Web"
    font-weight="400"
    font-stretch="normal"
    units-per-em="1000"
    panose-1="2 0 0 0 0 0 0 0 0 0"
    ascent="750"
    descent="-250"
    x-height="506"
    cap-height="685"
    bbox="-173 -212 4968 920"
    underline-thickness="50"
    underline-position="-50"
    unicode-range="U+000D-FB02"
  />
<missing-glyph horiz-adv-x="410" 
 />
    <glyph glyph-name=".notdef" horiz-adv-x="410" 
 />
    <glyph glyph-name="space" unicode=" " horiz-adv-x="200" 
 />
    <glyph glyph-name="A" unicode="A" horiz-adv-x="657" 
d="M327 570l-123 -328h247zM484 153h-314l-57 -153h-103l265 685h107l265 -685h-105z" />
    <glyph glyph-name="B" unicode="B" horiz-adv-x="590" 
d="M45 685h266q52 0 91.5 -14.5t66.5 -39.5t40.5 -59.5t13.5 -73.5q0 -45 -23 -81.5t-63 -59.5q62 -19 96.5 -61t34.5 -98q0 -41 -15 -77t-43.5 -63t-70 -42.5t-93.5 -15.5h-301v685zM142 597v-205h163q60 0 90.5 29.5t30.5 74.5q0 42 -30.5 71.5t-88.5 29.5h-165zM142 304
v-216h198q65 0 98 31.5t33 77.5q0 45 -33 76t-96 31h-200z" />
    <glyph glyph-name="C" unicode="C" horiz-adv-x="714" 
d="M391 607q-56 0 -104 -19.5t-83.5 -55t-56 -84t-20.5 -106.5t20.5 -106.5t56 -84t84 -55t104.5 -19.5q81 0 136.5 36t92.5 99l75 -50q-48 -80 -124 -127t-180 -47q-76 0 -142 26.5t-114.5 73.5t-76.5 112t-28 142t28 142t76.5 112t114 73.5t139.5 26.5q108 0 184 -46.5
t122 -126.5l-75 -49q-36 60 -92 96.5t-137 36.5z" />
    <glyph glyph-name="D" unicode="D" horiz-adv-x="663" 
d="M45 685h240q74 0 137.5 -26.5t110 -72t73 -108t26.5 -134.5t-26.5 -135t-73 -109.5t-110 -73t-137.5 -26.5h-240v685zM142 596v-507h137q56 0 103 19.5t81 53.5t53 80.5t19 99.5q0 54 -19.5 100.5t-53.5 80.5t-80.5 53.5t-100.5 19.5h-139z" />
    <glyph glyph-name="E" unicode="E" horiz-adv-x="535" 
d="M45 685h453v-90h-356v-203h331v-88h-331v-214h366v-90h-463v685z" />
    <glyph glyph-name="F" unicode="F" horiz-adv-x="520" 
d="M142 285v-285h-97v685h443v-90h-346v-222h321v-88h-321z" />
    <glyph glyph-name="G" unicode="G" horiz-adv-x="749" 
d="M721 332q0 -71 -23.5 -134t-67 -109.5t-105.5 -73.5t-139 -27q-75 0 -139.5 26t-112.5 73t-75.5 112t-27.5 143q0 79 28 144t76.5 111.5t114 72.5t139.5 26q90 0 155.5 -31t113.5 -88l-68 -62q-35 44 -82.5 68t-116.5 24q-56 0 -104 -19t-83.5 -53.5t-56 -83.5
t-20.5 -109q0 -59 20.5 -108t55.5 -84t83 -54.5t103 -19.5q45 0 85 15t70 41t49 62.5t24 80.5h-215v88h319v-31v0z" />
    <glyph glyph-name="H" unicode="H" horiz-adv-x="640" 
d="M498 298h-356v-298h-97v685h97v-298h356v298h97v-685h-97v298z" />
    <glyph glyph-name="I" unicode="I" horiz-adv-x="187" 
d="M45 0v685h97v-685h-97z" />
    <glyph glyph-name="J" unicode="J" horiz-adv-x="530" 
d="M122 221q0 -67 35.5 -104.5t98.5 -37.5q65 0 101.5 45t36.5 124v437h96v-448q0 -57 -16 -103t-46 -78.5t-73.5 -50t-97.5 -17.5t-97 17t-72.5 47.5t-45.5 73.5t-16 95h96z" />
    <glyph glyph-name="K" unicode="K" horiz-adv-x="570" 
d="M436 685h117l-319 -345l328 -340h-130l-290 304v-304h-97v685h97v-321z" />
    <glyph glyph-name="L" unicode="L" horiz-adv-x="515" 
d="M45 685h97v-596h346v-89h-443v685z" />
    <glyph glyph-name="M" unicode="M" horiz-adv-x="795" 
d="M138 506v-506h-93v685h110l243 -542l242 542h110v-685h-95v506l-230 -506h-57z" />
    <glyph glyph-name="N" unicode="N" horiz-adv-x="632" 
d="M137 533v-533h-92v685h103l347 -532v532h92v-685h-103z" />
    <glyph glyph-name="O" unicode="O" horiz-adv-x="769" 
d="M385 -12q-73 0 -137.5 27t-112.5 74.5t-76 112t-28 140.5t28 141t76 112t112.5 74t137.5 27q72 0 136.5 -27t112.5 -74t76 -112t28 -141t-28 -140.5t-76 -112t-112.5 -74.5t-136.5 -27zM385 77q53 0 99.5 20t81.5 55.5t55.5 84t20.5 105.5t-20.5 105.5t-55.5 84
t-81.5 55.5t-99.5 20q-54 0 -101 -20t-82 -55.5t-55 -84t-20 -105.5t20 -105.5t55 -84t82 -55.5t101 -20z" />
    <glyph glyph-name="P" unicode="P" horiz-adv-x="583" 
d="M142 218v-218h-97v685h256q56 0 101.5 -18t78 -49.5t50 -74t17.5 -91.5t-18 -92t-51 -74.5t-78.5 -49.5t-99.5 -18h-159zM142 596v-289h153q36 0 65 11t49 30.5t31 46t11 56.5q0 31 -11 57.5t-31 46t-48.5 30.5t-63.5 11h-155z" />
    <glyph glyph-name="Q" unicode="Q" horiz-adv-x="769" 
d="M576 43q-42 -26 -90 -40.5t-101 -14.5q-73 0 -137.5 27t-112.5 74.5t-76 112t-28 140.5t28 141t76 112t112.5 74t137.5 27q72 0 136.5 -27t112.5 -74t76 -112t28 -141q0 -72 -24.5 -132.5t-67.5 -107.5l100 -99l-99 -30zM385 77q34 0 65 8.5t59 23.5l-142 140l99 30
l113 -112q29 35 46 79.5t17 95.5q0 57 -20.5 105.5t-55.5 84t-81.5 55.5t-99.5 20q-54 0 -101 -20t-82 -55.5t-55 -84t-20 -105.5t20 -105.5t55 -84t82 -55.5t101 -20z" />
    <glyph glyph-name="R" unicode="R" horiz-adv-x="540" 
d="M142 596v-256h127q42 0 71.5 11.5t47.5 30t26 42t8 47.5q0 25 -8.5 47.5t-26 40t-45 27.5t-65.5 10h-135zM142 0h-97v685h240q58 0 101.5 -16.5t73 -45.5t44.5 -67.5t15 -83.5t-15 -84.5t-44.5 -69t-73.5 -46t-101 -16.5h-16l277 -256h-136l-268 256v-256z" />
    <glyph glyph-name="S" unicode="S" horiz-adv-x="591" 
d="M297 -12q-58 0 -106 15t-83.5 43.5t-57 69.5t-25.5 94h99q8 -61 49 -100t122 -39q84 0 122 32t38 85q0 30 -14.5 49t-39.5 31t-57 19.5t-67 14.5q-42 8 -83.5 19.5t-74.5 32.5t-54 56.5t-21 91.5q0 43 17 79t47.5 61t74.5 39t98 14q116 0 181.5 -56.5t72.5 -152.5h-98
q-2 23 -11.5 46t-28 41t-47 29t-67.5 11q-66 0 -104 -27.5t-38 -78.5q0 -30 13 -49t35.5 -31.5t51.5 -20t62 -13.5q43 -8 87.5 -18t80.5 -30.5t59 -56t23 -94.5q0 -47 -17.5 -85t-50.5 -65t-80.5 -41.5t-107.5 -14.5z" />
    <glyph glyph-name="T" unicode="T" horiz-adv-x="549" 
d="M226 0v596h-216v89h529v-89h-216v-596h-97z" />
    <glyph glyph-name="U" unicode="U" horiz-adv-x="625" 
d="M314 -12q-64 0 -114.5 19.5t-86 56t-54 88t-18.5 114.5v419h96v-406q0 -94 46.5 -147t129.5 -53t129.5 53t46.5 147v406h96v-419q0 -63 -18.5 -114.5t-53.5 -88t-85.5 -56t-113.5 -19.5z" />
    <glyph glyph-name="V" unicode="V" horiz-adv-x="637" 
d="M265 0l-255 685h105l205 -569l204 569h103l-255 -685h-107z" />
    <glyph glyph-name="W" unicode="W" horiz-adv-x="906" 
d="M453 514l-148 -514h-106l-184 685h104l138 -549l153 549h91l153 -548l138 548h99l-185 -685h-107z" />
    <glyph glyph-name="X" unicode="X" horiz-adv-x="655" 
d="M326 273l-186 -273h-112l242 349l-232 336h116l174 -259l174 259h111l-229 -333l244 -352h-117z" />
    <glyph glyph-name="Y" unicode="Y" horiz-adv-x="607" 
d="M255 0v270l-235 415h111l173 -326l175 326h108l-235 -410v-275h-97z" />
    <glyph glyph-name="Z" unicode="Z" horiz-adv-x="594" 
d="M149 89h416v-89h-536v83l401 513h-390v89h510v-82z" />
    <glyph glyph-name="A.left" horiz-adv-x="611" 
d="M469 573l-205 -331h205v331zM469 153h-260l-94 -153h-115l433 685h133v-685h-97v153z" />
    <glyph glyph-name="A.right" horiz-adv-x="611" 
d="M140 575v-333h205zM400 153h-260v-153h-95v685h133l433 -685h-117z" />
    <glyph glyph-name="M.left" horiz-adv-x="977" 
d="M413 537l-303 -537h-110l391 685h119v-494l303 494h119v-685h-97v551l-335 -551h-87v537z" />
    <glyph glyph-name="M.right" horiz-adv-x="977" 
d="M141 549v-549h-96v685h120l303 -494v494h118l391 -685h-112l-303 537v-537h-87z" />
    <glyph glyph-name="V.left" horiz-adv-x="611" 
d="M0 685h117l354 -575v575h95v-685h-133z" />
    <glyph glyph-name="V.right" horiz-adv-x="611" 
d="M45 685h97v-575l354 575h115l-433 -685h-133v685z" />
    <glyph glyph-name="W.left" horiz-adv-x="977" 
d="M509 494v-494h-118l-391 685h112l303 -537v537h87l334 -549v549h96v-685h-120z" />
    <glyph glyph-name="W.right" horiz-adv-x="977" 
d="M467 494l-303 -494h-119v685h97v-551l335 551h87v-537l303 537h110l-391 -685h-119v494z" />
    <glyph glyph-name="Aacute" unicode="&#xc1;" horiz-adv-x="657" 
d="M327 570l-123 -328h247zM484 153h-314l-57 -153h-103l265 685h107l265 -685h-105zM229 748v78l210 61v-82z" />
    <glyph glyph-name="acute" unicode="&#xb4;" horiz-adv-x="400" 
d="M100 569v78l210 61v-82z" />
    <glyph glyph-name="Abreve" unicode="&#x102;" horiz-adv-x="657" 
d="M327 570l-123 -328h247zM484 153h-314l-57 -153h-103l265 685h107l265 -685h-105zM329 817q47 0 84.5 18t54.5 35v-70q-7 -8 -18.5 -18.5t-28.5 -19.5t-40 -15t-52 -6t-52 6t-40 15t-28.5 19.5t-18.5 18.5v70q17 -17 54.5 -35t84.5 -18z" />
    <glyph glyph-name="breve" unicode="&#x2d8;" horiz-adv-x="400" 
d="M200 638q47 0 84.5 18t54.5 35v-70q-7 -8 -18.5 -18.5t-28.5 -19.5t-40 -15t-52 -6t-52 6t-40 15t-28.5 19.5t-18.5 18.5v70q17 -17 54.5 -35t84.5 -18z" />
    <glyph glyph-name="Acircumflex" unicode="&#xc2;" horiz-adv-x="657" 
d="M327 570l-123 -328h247zM484 153h-314l-57 -153h-103l265 685h107l265 -685h-105zM464 736l-135 60l-135 -60v75l135 69l135 -69v-75z" />
    <glyph glyph-name="circumflex" unicode="&#x2c6;" horiz-adv-x="400" 
d="M335 557l-135 60l-135 -60v75l135 69l135 -69v-75z" />
    <glyph glyph-name="Adieresis" unicode="&#xc4;" horiz-adv-x="657" 
d="M327 570l-123 -328h247zM484 153h-314l-57 -153h-103l265 685h107l265 -685h-105zM209 775v89h87v-89h-87zM363 775v89h87v-89h-87z" />
    <glyph glyph-name="dieresis" unicode="&#xa8;" horiz-adv-x="400" 
d="M80 596v89h87v-89h-87zM234 596v89h87v-89h-87z" />
    <glyph glyph-name="AE" unicode="&#xc6;" horiz-adv-x="880" 
d="M327 584l-127 -342h251zM483 153h-315l-57 -153h-101l260 685h573v-90h-422l75 -203h322v-88h-289l79 -214h245v-90h-314z" />
    <glyph glyph-name="Agrave" unicode="&#xc0;" horiz-adv-x="657" 
d="M327 570l-123 -328h247zM484 153h-314l-57 -153h-103l265 685h107l265 -685h-105zM429 748l-210 57v82l210 -61v-78z" />
    <glyph glyph-name="grave" unicode="`" horiz-adv-x="400" 
d="M300 569l-210 57v82l210 -61v-78z" />
    <glyph glyph-name="Amacron" unicode="&#x100;" horiz-adv-x="657" 
d="M327 570l-123 -328h247zM484 153h-314l-57 -153h-103l265 685h107l265 -685h-105zM198 774v78h262v-78h-262z" />
    <glyph glyph-name="macron" unicode="&#xaf;" horiz-adv-x="400" 
d="M69 595v78h262v-78h-262z" />
    <glyph glyph-name="Aogonek" unicode="&#x104;" horiz-adv-x="657" 
d="M327 570l-123 -328h247zM637 -161q-8 -5 -18 -9q-9 -4 -21 -6.5t-29 -2.5q-45 0 -73 22t-28 60q0 35 21.5 61t52.5 37l-58 152h-314l-57 -153h-103l265 685h107l265 -685h-45q-35 -14 -51.5 -36.5t-16.5 -47.5q0 -20 12.5 -30t35.5 -10q12 0 22 2t18 4q9 3 15 7v-50z" />
    <glyph glyph-name="Aring" unicode="&#xc5;" horiz-adv-x="657" 
d="M327 570l-123 -328h247zM484 153h-314l-57 -153h-103l265 685h107l265 -685h-105zM329 920q41 0 69 -27t28 -67q0 -41 -28 -68t-69 -27q-42 0 -69.5 27t-27.5 68q0 40 27.5 67t69.5 27zM329 870q-20 0 -32 -12.5t-12 -31.5t12 -32t32 -13q19 0 31.5 13t12.5 32
t-12.5 31.5t-31.5 12.5z" />
    <glyph glyph-name="ring" unicode="&#x2da;" horiz-adv-x="400" 
d="M200 741q41 0 69 -27t28 -67q0 -41 -28 -68t-69 -27q-42 0 -69.5 27t-27.5 68q0 40 27.5 67t69.5 27zM200 691q-20 0 -32 -12.5t-12 -31.5t12 -32t32 -13q19 0 31.5 13t12.5 32t-12.5 31.5t-31.5 12.5z" />
    <glyph glyph-name="Atilde" unicode="&#xc3;" horiz-adv-x="657" 
d="M327 570l-123 -328h247zM484 153h-314l-57 -153h-103l265 685h107l265 -685h-105zM257 778q-23 0 -42 -11t-30 -22v62q10 14 32 29t51 15q21 0 38 -5.5t32.5 -12t31 -12t32.5 -5.5q23 0 42 11t30 22v-63q-10 -14 -32 -29t-51 -15q-21 0 -38 5.5t-32.5 12.5t-31 12.5
t-32.5 5.5z" />
    <glyph glyph-name="tilde" unicode="&#x2dc;" horiz-adv-x="400" 
d="M128 599q-23 0 -42 -11t-30 -22v62q10 14 32 29t51 15q21 0 38 -5.5t32.5 -12t31 -12t32.5 -5.5q23 0 42 11t30 22v-63q-10 -14 -32 -29t-51 -15q-21 0 -38 5.5t-32.5 12.5t-31 12.5t-32.5 5.5z" />
    <glyph glyph-name="Cacute" unicode="&#x106;" horiz-adv-x="714" 
d="M391 607q-56 0 -104 -19.5t-83.5 -55t-56 -84t-20.5 -106.5t20.5 -106.5t56 -84t84 -55t104.5 -19.5q81 0 136.5 36t92.5 99l75 -50q-48 -80 -124 -127t-180 -47q-76 0 -142 26.5t-114.5 73.5t-76.5 112t-28 142t28 142t76.5 112t114 73.5t139.5 26.5q108 0 184 -46.5
t122 -126.5l-75 -49q-36 60 -92 96.5t-137 36.5zM287 748v78l210 61v-82z" />
    <glyph glyph-name="Ccaron" unicode="&#x10c;" horiz-adv-x="714" 
d="M391 607q-56 0 -104 -19.5t-83.5 -55t-56 -84t-20.5 -106.5t20.5 -106.5t56 -84t84 -55t104.5 -19.5q81 0 136.5 36t92.5 99l75 -50q-48 -80 -124 -127t-180 -47q-76 0 -142 26.5t-114.5 73.5t-76.5 112t-28 142t28 142t76.5 112t114 73.5t139.5 26.5q108 0 184 -46.5
t122 -126.5l-75 -49q-36 60 -92 96.5t-137 36.5zM387 729l-135 69v75l135 -60l135 60v-75z" />
    <glyph glyph-name="caron" unicode="&#x2c7;" horiz-adv-x="400" 
d="M200 550l-135 69v75l135 -60l135 60v-75z" />
    <glyph glyph-name="Ccedilla" unicode="&#xc7;" horiz-adv-x="714" 
d="M390 -212q-39 0 -64 22.5t-29 60.5h56q2 -16 12.5 -24t25.5 -8t25.5 9.5t10.5 24.5q0 14 -10 24t-27 10h-73l41 82q-69 6 -129 34.5t-104 75t-69 108.5t-25 135q0 77 28 142t76.5 112t114 73.5t139.5 26.5q108 0 184 -46.5t122 -126.5l-75 -49q-36 60 -92 96.5t-137 36.5
q-56 0 -104 -19.5t-83.5 -55t-56 -84t-20.5 -106.5t20.5 -106.5t56 -84t84 -55t104.5 -19.5q81 0 136.5 36t92.5 99l75 -50q-45 -77 -117 -123t-170 -51l-18 -34q39 0 64 -22.5t25 -58.5t-25.5 -60.5t-64.5 -24.5z" />
    <glyph glyph-name="Ccircumflex" unicode="&#x108;" horiz-adv-x="714" 
d="M391 607q-56 0 -104 -19.5t-83.5 -55t-56 -84t-20.5 -106.5t20.5 -106.5t56 -84t84 -55t104.5 -19.5q81 0 136.5 36t92.5 99l75 -50q-48 -80 -124 -127t-180 -47q-76 0 -142 26.5t-114.5 73.5t-76.5 112t-28 142t28 142t76.5 112t114 73.5t139.5 26.5q108 0 184 -46.5
t122 -126.5l-75 -49q-36 60 -92 96.5t-137 36.5zM522 736l-135 60l-135 -60v75l135 69l135 -69v-75z" />
    <glyph glyph-name="Cdotaccent" unicode="&#x10a;" horiz-adv-x="714" 
d="M391 607q-56 0 -104 -19.5t-83.5 -55t-56 -84t-20.5 -106.5t20.5 -106.5t56 -84t84 -55t104.5 -19.5q81 0 136.5 36t92.5 99l75 -50q-48 -80 -124 -127t-180 -47q-76 0 -142 26.5t-114.5 73.5t-76.5 112t-28 142t28 142t76.5 112t114 73.5t139.5 26.5q108 0 184 -46.5
t122 -126.5l-75 -49q-36 60 -92 96.5t-137 36.5zM344 775v89h87v-89h-87z" />
    <glyph glyph-name="dotaccent" unicode="&#x2d9;" horiz-adv-x="400" 
d="M157 596v89h87v-89h-87z" />
    <glyph glyph-name="Dcaron" unicode="&#x10e;" horiz-adv-x="663" 
d="M45 685h240q74 0 137.5 -26.5t110 -72t73 -108t26.5 -134.5t-26.5 -135t-73 -109.5t-110 -73t-137.5 -26.5h-240v685zM142 596v-507h137q56 0 103 19.5t81 53.5t53 80.5t19 99.5q0 54 -19.5 100.5t-53.5 80.5t-80.5 53.5t-100.5 19.5h-139zM329 729l-135 69v75l135 -60
l135 60v-75z" />
    <glyph glyph-name="Dcroat" unicode="&#x110;" horiz-adv-x="673" 
d="M55 0v300h-55v82h55v303h240q74 0 137.5 -26.5t110 -72t73 -108t26.5 -134.5t-26.5 -135t-73 -109.5t-110 -73t-137.5 -26.5h-240zM289 89q56 0 103 19.5t81 53.5t53 80.5t19 99.5q0 54 -19.5 100.5t-53.5 80.5t-80.5 53.5t-100.5 19.5h-139v-214h135v-82h-135v-211h137z
" />
    <glyph glyph-name="Eacute" unicode="&#xc9;" horiz-adv-x="535" 
d="M45 685h453v-90h-356v-203h331v-88h-331v-214h366v-90h-463v685zM178 748v78l210 61v-82z" />
    <glyph glyph-name="Ebreve" unicode="&#x114;" horiz-adv-x="535" 
d="M45 685h453v-90h-356v-203h331v-88h-331v-214h366v-90h-463v685zM278 817q47 0 84.5 18t54.5 35v-70q-7 -8 -18.5 -18.5t-28.5 -19.5t-40 -15t-52 -6t-52 6t-40 15t-28.5 19.5t-18.5 18.5v70q17 -17 54.5 -35t84.5 -18z" />
    <glyph glyph-name="Ecaron" unicode="&#x11a;" horiz-adv-x="535" 
d="M45 685h453v-90h-356v-203h331v-88h-331v-214h366v-90h-463v685zM278 729l-135 69v75l135 -60l135 60v-75z" />
    <glyph glyph-name="Ecircumflex" unicode="&#xca;" horiz-adv-x="535" 
d="M45 685h453v-90h-356v-203h331v-88h-331v-214h366v-90h-463v685zM413 736l-135 60l-135 -60v75l135 69l135 -69v-75z" />
    <glyph glyph-name="Edieresis" unicode="&#xcb;" horiz-adv-x="535" 
d="M45 685h453v-90h-356v-203h331v-88h-331v-214h366v-90h-463v685zM158 775v89h87v-89h-87zM312 775v89h87v-89h-87z" />
    <glyph glyph-name="Edotaccent" unicode="&#x116;" horiz-adv-x="535" 
d="M45 685h453v-90h-356v-203h331v-88h-331v-214h366v-90h-463v685zM235 775v89h87v-89h-87z" />
    <glyph glyph-name="Egrave" unicode="&#xc8;" horiz-adv-x="535" 
d="M45 685h453v-90h-356v-203h331v-88h-331v-214h366v-90h-463v685zM378 748l-210 57v82l210 -61v-78z" />
    <glyph glyph-name="Emacron" unicode="&#x112;" horiz-adv-x="535" 
d="M45 685h453v-90h-356v-203h331v-88h-331v-214h366v-90h-463v685zM147 774v78h262v-78h-262z" />
    <glyph glyph-name="Eng" unicode="&#x14a;" horiz-adv-x="632" 
d="M409 -94q33 0 57.5 16.5t30.5 58.5l-360 552v-533h-92v685h103l347 -532v532h92v-685q0 -48 -14 -81t-38.5 -53.5t-57 -29.5t-68.5 -9v79z" />
    <glyph glyph-name="Eogonek" unicode="&#x118;" horiz-adv-x="535" 
d="M508 -161q-8 -5 -18 -9q-9 -4 -21 -6.5t-29 -2.5q-45 0 -73 22t-28 60q0 34 20.5 60t50.5 37h-365v685h453v-90h-356v-203h331v-88h-331v-214h366v-90h-35q-35 -14 -51.5 -36.5t-16.5 -47.5q0 -20 12.5 -30t35.5 -10q12 0 22 2t18 4q9 3 15 7v-50v0z" />
    <glyph glyph-name="Eth" unicode="&#xd0;" horiz-adv-x="673" 
d="M55 0v300h-55v82h55v303h240q74 0 137.5 -26.5t110 -72t73 -108t26.5 -134.5t-26.5 -135t-73 -109.5t-110 -73t-137.5 -26.5h-240zM289 89q56 0 103 19.5t81 53.5t53 80.5t19 99.5q0 54 -19.5 100.5t-53.5 80.5t-80.5 53.5t-100.5 19.5h-139v-214h135v-82h-135v-211h137z
" />
    <glyph glyph-name="Gbreve" unicode="&#x11e;" horiz-adv-x="749" 
d="M721 332q0 -71 -23.5 -134t-67 -109.5t-105.5 -73.5t-139 -27q-75 0 -139.5 26t-112.5 73t-75.5 112t-27.5 143q0 79 28 144t76.5 111.5t114 72.5t139.5 26q90 0 155.5 -31t113.5 -88l-68 -62q-35 44 -82.5 68t-116.5 24q-56 0 -104 -19t-83.5 -53.5t-56 -83.5
t-20.5 -109q0 -59 20.5 -108t55.5 -84t83 -54.5t103 -19.5q45 0 85 15t70 41t49 62.5t24 80.5h-215v88h319v-31v0zM390 817q47 0 84.5 18t54.5 35v-70q-7 -8 -18.5 -18.5t-28.5 -19.5t-40 -15t-52 -6t-52 6t-40 15t-28.5 19.5t-18.5 18.5v70q17 -17 54.5 -35t84.5 -18z" />
    <glyph glyph-name="Gcircumflex" unicode="&#x11c;" horiz-adv-x="749" 
d="M721 332q0 -71 -23.5 -134t-67 -109.5t-105.5 -73.5t-139 -27q-75 0 -139.5 26t-112.5 73t-75.5 112t-27.5 143q0 79 28 144t76.5 111.5t114 72.5t139.5 26q90 0 155.5 -31t113.5 -88l-68 -62q-35 44 -82.5 68t-116.5 24q-56 0 -104 -19t-83.5 -53.5t-56 -83.5
t-20.5 -109q0 -59 20.5 -108t55.5 -84t83 -54.5t103 -19.5q45 0 85 15t70 41t49 62.5t24 80.5h-215v88h319v-31v0zM525 736l-135 60l-135 -60v75l135 69l135 -69v-75z" />
    <glyph glyph-name="Gcommaaccent" unicode="&#x122;" horiz-adv-x="749" 
d="M721 332q0 -71 -23.5 -134t-67 -109.5t-105.5 -73.5t-139 -27q-75 0 -139.5 26t-112.5 73t-75.5 112t-27.5 143q0 79 28 144t76.5 111.5t114 72.5t139.5 26q90 0 155.5 -31t113.5 -88l-68 -62q-35 44 -82.5 68t-116.5 24q-56 0 -104 -19t-83.5 -53.5t-56 -83.5
t-20.5 -109q0 -59 20.5 -108t55.5 -84t83 -54.5t103 -19.5q45 0 85 15t70 41t49 62.5t24 80.5h-215v88h319v-31v0zM392 -202h-54l23 71h-26v79h84v-66z" />
    <glyph glyph-name="commaaccent" unicode="&#xf6c3;" horiz-adv-x="398" 
d="M214 -202h-54l23 71h-26v79h84v-66z" />
    <glyph glyph-name="Gdotaccent" unicode="&#x120;" horiz-adv-x="749" 
d="M721 332q0 -71 -23.5 -134t-67 -109.5t-105.5 -73.5t-139 -27q-75 0 -139.5 26t-112.5 73t-75.5 112t-27.5 143q0 79 28 144t76.5 111.5t114 72.5t139.5 26q90 0 155.5 -31t113.5 -88l-68 -62q-35 44 -82.5 68t-116.5 24q-56 0 -104 -19t-83.5 -53.5t-56 -83.5
t-20.5 -109q0 -59 20.5 -108t55.5 -84t83 -54.5t103 -19.5q45 0 85 15t70 41t49 62.5t24 80.5h-215v88h319v-31v0zM347 775v89h87v-89h-87z" />
    <glyph glyph-name="Hbar" unicode="&#x126;" horiz-adv-x="640" 
d="M498 387v109h-356v-109h356zM142 0h-97v496h-60v82h60v107h97v-107h356v107h97v-107h60v-82h-60v-496h-97v298h-356v-298z" />
    <glyph glyph-name="Hcircumflex" unicode="&#x124;" horiz-adv-x="640" 
d="M498 298h-356v-298h-97v685h97v-298h356v298h97v-685h-97v298zM455 736l-135 60l-135 -60v75l135 69l135 -69v-75z" />
    <glyph glyph-name="Iacute" unicode="&#xcd;" horiz-adv-x="187" 
d="M45 0v685h97v-685h-97zM-5 748v78l210 61v-82z" />
    <glyph glyph-name="Ibreve" unicode="&#x12c;" horiz-adv-x="187" 
d="M45 0v685h97v-685h-97zM95 817q47 0 84.5 18t54.5 35v-70q-7 -8 -18.5 -18.5t-28.5 -19.5t-40 -15t-52 -6t-52 6t-40 15t-28.5 19.5t-18.5 18.5v70q17 -17 54.5 -35t84.5 -18z" />
    <glyph glyph-name="Icircumflex" unicode="&#xce;" horiz-adv-x="187" 
d="M45 0v685h97v-685h-97zM230 736l-135 60l-135 -60v75l135 69l135 -69v-75z" />
    <glyph glyph-name="Idieresis" unicode="&#xcf;" horiz-adv-x="187" 
d="M45 0v685h97v-685h-97zM-25 775v89h87v-89h-87zM129 775v89h87v-89h-87z" />
    <glyph glyph-name="Igrave" unicode="&#xcc;" horiz-adv-x="187" 
d="M45 0v685h97v-685h-97zM195 748l-210 57v82l210 -61v-78z" />
    <glyph glyph-name="IJ" unicode="&#x132;" horiz-adv-x="717" 
d="M45 0v685h97v-685h-97zM309 221q0 -67 35.5 -104.5t98.5 -37.5q65 0 101.5 45t36.5 124v437h96v-448q0 -57 -16 -103t-46 -78.5t-73.5 -50t-97.5 -17.5t-97 17t-72.5 47.5t-45.5 73.5t-16 95h96z" />
    <glyph glyph-name="Imacron" unicode="&#x12a;" horiz-adv-x="187" 
d="M45 0v685h97v-685h-97zM-36 774v78h262v-78h-262z" />
    <glyph glyph-name="Iogonek" unicode="&#x12e;" horiz-adv-x="187" 
d="M132 -161q-8 -5 -18 -9q-9 -4 -21 -6.5t-29 -2.5q-45 0 -73 22t-28 60q0 36 23.5 63t56.5 37l2 1v681h97v-685h-45q-35 -14 -51.5 -36.5t-16.5 -47.5q0 -20 12.5 -30t35.5 -10q12 0 22 2t18 4q9 3 15 7v-50v0z" />
    <glyph glyph-name="Itilde" unicode="&#x128;" horiz-adv-x="187" 
d="M45 0v685h97v-685h-97zM23 778q-23 0 -42 -11t-30 -22v62q10 14 32 29t51 15q21 0 38 -5.5t32.5 -12t31 -12t32.5 -5.5q23 0 42 11t30 22v-63q-10 -14 -32 -29t-51 -15q-21 0 -38 5.5t-32.5 12.5t-31 12.5t-32.5 5.5z" />
    <glyph glyph-name="Jcircumflex" unicode="&#x134;" horiz-adv-x="530" 
d="M122 221q0 -67 35.5 -104.5t98.5 -37.5q65 0 101.5 45t36.5 124v437h96v-448q0 -57 -16 -103t-46 -78.5t-73.5 -50t-97.5 -17.5t-97 17t-72.5 47.5t-45.5 73.5t-16 95h96zM574 736l-135 60l-135 -60v75l135 69l135 -69v-75z" />
    <glyph glyph-name="Kcommaaccent" unicode="&#x136;" horiz-adv-x="570" 
d="M436 685h117l-319 -345l328 -340h-130l-290 304v-304h-97v685h97v-321zM297 -202h-54l23 71h-26v79h84v-66z" />
    <glyph glyph-name="Lacute" unicode="&#x139;" horiz-adv-x="515" 
d="M45 685h97v-596h346v-89h-443v685zM-5 748v78l210 61v-82z" />
    <glyph glyph-name="Lcaron" unicode="&#x13d;" horiz-adv-x="515" 
d="M395 606l-29 -99h-58l25 83h-28v95h90v-79v0zM45 685h97v-596h346v-89h-443v685z" />
    <glyph glyph-name="quoteright" unicode="&#x2019;" horiz-adv-x="160" 
d="M96 507h-58l25 83h-28v95h90v-79z" />
    <glyph glyph-name="Lcommaaccent" unicode="&#x13b;" horiz-adv-x="515" 
d="M45 685h97v-596h346v-89h-443v685zM280 -202h-54l23 71h-26v79h84v-66z" />
    <glyph glyph-name="Ldot" unicode="&#x13f;" horiz-adv-x="515" 
d="M45 685h97v-596h346v-89h-443v685zM302 337v89h87v-89h-87z" />
    <glyph glyph-name="Lslash" unicode="&#x141;" horiz-adv-x="530" 
d="M60 0v318l-60 -31v82l60 31v285h97v-234l121 63v-82l-121 -63v-280h346v-89h-443z" />
    <glyph glyph-name="Nacute" unicode="&#x143;" horiz-adv-x="632" 
d="M137 533v-533h-92v685h103l347 -532v532h92v-685h-103zM216 748v78l210 61v-82z" />
    <glyph glyph-name="Napostrophe" horiz-adv-x="632" 
d="M137 533v-533h-92v685h103l347 -532v532h92v-685h-103zM108 737h-54l23 71h-26v79h84v-66z" />
    <glyph glyph-name="Ncaron" unicode="&#x147;" horiz-adv-x="632" 
d="M137 533v-533h-92v685h103l347 -532v532h92v-685h-103zM316 729l-135 69v75l135 -60l135 60v-75z" />
    <glyph glyph-name="Ncommaaccent" unicode="&#x145;" horiz-adv-x="632" 
d="M137 533v-533h-92v685h103l347 -532v532h92v-685h-103zM330 -202h-54l23 71h-26v79h84v-66z" />
    <glyph glyph-name="Ntilde" unicode="&#xd1;" horiz-adv-x="632" 
d="M137 533v-533h-92v685h103l347 -532v532h92v-685h-103zM244 778q-23 0 -42 -11t-30 -22v62q10 14 32 29t51 15q21 0 38 -5.5t32.5 -12t31 -12t32.5 -5.5q23 0 42 11t30 22v-63q-10 -14 -32 -29t-51 -15q-21 0 -38 5.5t-32.5 12.5t-31 12.5t-32.5 5.5z" />
    <glyph glyph-name="Oacute" unicode="&#xd3;" horiz-adv-x="769" 
d="M385 -12q-73 0 -137.5 27t-112.5 74.5t-76 112t-28 140.5t28 141t76 112t112.5 74t137.5 27q72 0 136.5 -27t112.5 -74t76 -112t28 -141t-28 -140.5t-76 -112t-112.5 -74.5t-136.5 -27zM385 77q53 0 99.5 20t81.5 55.5t55.5 84t20.5 105.5t-20.5 105.5t-55.5 84
t-81.5 55.5t-99.5 20q-54 0 -101 -20t-82 -55.5t-55 -84t-20 -105.5t20 -105.5t55 -84t82 -55.5t101 -20zM285 748v78l210 61v-82z" />
    <glyph glyph-name="Obreve" unicode="&#x14e;" horiz-adv-x="769" 
d="M385 -12q-73 0 -137.5 27t-112.5 74.5t-76 112t-28 140.5t28 141t76 112t112.5 74t137.5 27q72 0 136.5 -27t112.5 -74t76 -112t28 -141t-28 -140.5t-76 -112t-112.5 -74.5t-136.5 -27zM385 77q53 0 99.5 20t81.5 55.5t55.5 84t20.5 105.5t-20.5 105.5t-55.5 84
t-81.5 55.5t-99.5 20q-54 0 -101 -20t-82 -55.5t-55 -84t-20 -105.5t20 -105.5t55 -84t82 -55.5t101 -20zM385 817q47 0 84.5 18t54.5 35v-70q-7 -8 -18.5 -18.5t-28.5 -19.5t-40 -15t-52 -6t-52 6t-40 15t-28.5 19.5t-18.5 18.5v70q17 -17 54.5 -35t84.5 -18z" />
    <glyph glyph-name="Ocircumflex" unicode="&#xd4;" horiz-adv-x="769" 
d="M385 -12q-73 0 -137.5 27t-112.5 74.5t-76 112t-28 140.5t28 141t76 112t112.5 74t137.5 27q72 0 136.5 -27t112.5 -74t76 -112t28 -141t-28 -140.5t-76 -112t-112.5 -74.5t-136.5 -27zM385 77q53 0 99.5 20t81.5 55.5t55.5 84t20.5 105.5t-20.5 105.5t-55.5 84
t-81.5 55.5t-99.5 20q-54 0 -101 -20t-82 -55.5t-55 -84t-20 -105.5t20 -105.5t55 -84t82 -55.5t101 -20zM520 736l-135 60l-135 -60v75l135 69l135 -69v-75z" />
    <glyph glyph-name="Odieresis" unicode="&#xd6;" horiz-adv-x="769" 
d="M385 -12q-73 0 -137.5 27t-112.5 74.5t-76 112t-28 140.5t28 141t76 112t112.5 74t137.5 27q72 0 136.5 -27t112.5 -74t76 -112t28 -141t-28 -140.5t-76 -112t-112.5 -74.5t-136.5 -27zM385 77q53 0 99.5 20t81.5 55.5t55.5 84t20.5 105.5t-20.5 105.5t-55.5 84
t-81.5 55.5t-99.5 20q-54 0 -101 -20t-82 -55.5t-55 -84t-20 -105.5t20 -105.5t55 -84t82 -55.5t101 -20zM265 775v89h87v-89h-87zM419 775v89h87v-89h-87z" />
    <glyph glyph-name="OE" unicode="&#x152;" horiz-adv-x="1011" 
d="M378 0q-74 0 -137.5 26.5t-110 72t-73 108t-26.5 134.5t26.5 135t73 109.5t110 73t137.5 26.5h596v-90h-356v-203h331v-88h-331v-214h366v-90h-606zM521 89v507h-137q-56 0 -103 -19.5t-81 -53.5t-53 -80.5t-19 -99.5q0 -54 19.5 -100.5t53.5 -80.5t80.5 -53.5
t100.5 -19.5h139z" />
    <glyph glyph-name="Ograve" unicode="&#xd2;" horiz-adv-x="769" 
d="M385 -12q-73 0 -137.5 27t-112.5 74.5t-76 112t-28 140.5t28 141t76 112t112.5 74t137.5 27q72 0 136.5 -27t112.5 -74t76 -112t28 -141t-28 -140.5t-76 -112t-112.5 -74.5t-136.5 -27zM385 77q53 0 99.5 20t81.5 55.5t55.5 84t20.5 105.5t-20.5 105.5t-55.5 84
t-81.5 55.5t-99.5 20q-54 0 -101 -20t-82 -55.5t-55 -84t-20 -105.5t20 -105.5t55 -84t82 -55.5t101 -20zM485 748l-210 57v82l210 -61v-78z" />
    <glyph glyph-name="Ohungarumlaut" unicode="&#x150;" horiz-adv-x="769" 
d="M385 -12q-73 0 -137.5 27t-112.5 74.5t-76 112t-28 140.5t28 141t76 112t112.5 74t137.5 27q72 0 136.5 -27t112.5 -74t76 -112t28 -141t-28 -140.5t-76 -112t-112.5 -74.5t-136.5 -27zM385 77q53 0 99.5 20t81.5 55.5t55.5 84t20.5 105.5t-20.5 105.5t-55.5 84
t-81.5 55.5t-99.5 20q-54 0 -101 -20t-82 -55.5t-55 -84t-20 -105.5t20 -105.5t55 -84t82 -55.5t101 -20zM285 737l48 147h86l-52 -147h-82zM416 737l53 147h85l-57 -147h-81z" />
    <glyph glyph-name="hungarumlaut" unicode="&#x2dd;" horiz-adv-x="400" 
d="M100 558l48 147h86l-52 -147h-82zM231 558l53 147h85l-57 -147h-81z" />
    <glyph glyph-name="Omacron" unicode="&#x14c;" horiz-adv-x="769" 
d="M385 -12q-73 0 -137.5 27t-112.5 74.5t-76 112t-28 140.5t28 141t76 112t112.5 74t137.5 27q72 0 136.5 -27t112.5 -74t76 -112t28 -141t-28 -140.5t-76 -112t-112.5 -74.5t-136.5 -27zM385 77q53 0 99.5 20t81.5 55.5t55.5 84t20.5 105.5t-20.5 105.5t-55.5 84
t-81.5 55.5t-99.5 20q-54 0 -101 -20t-82 -55.5t-55 -84t-20 -105.5t20 -105.5t55 -84t82 -55.5t101 -20zM254 774v78h262v-78h-262z" />
    <glyph glyph-name="Oslash" unicode="&#xd8;" horiz-adv-x="769" 
d="M127 342q0 -61 23 -112.5t63 -87.5l292 435q-27 14 -57.5 22t-62.5 8q-54 0 -101 -20t-82 -55.5t-55 -84t-20 -105.5zM385 77q53 0 99.5 20t81.5 55.5t55.5 84t20.5 105.5q0 54 -19 101t-51 82l-288 -428q48 -20 101 -20zM385 -12q-41 0 -79 8.5t-73 24.5l-41 -61h-101
l71 106q-60 48 -95.5 119t-35.5 157q0 76 28 141t76 112t112.5 74t137.5 27q93 0 171 -43l48 72h103l-82 -122q52 -48 82.5 -114.5t30.5 -146.5q0 -76 -28 -140.5t-76 -112t-112.5 -74.5t-136.5 -27z" />
    <glyph glyph-name="Otilde" unicode="&#xd5;" horiz-adv-x="769" 
d="M385 -12q-73 0 -137.5 27t-112.5 74.5t-76 112t-28 140.5t28 141t76 112t112.5 74t137.5 27q72 0 136.5 -27t112.5 -74t76 -112t28 -141t-28 -140.5t-76 -112t-112.5 -74.5t-136.5 -27zM385 77q53 0 99.5 20t81.5 55.5t55.5 84t20.5 105.5t-20.5 105.5t-55.5 84
t-81.5 55.5t-99.5 20q-54 0 -101 -20t-82 -55.5t-55 -84t-20 -105.5t20 -105.5t55 -84t82 -55.5t101 -20zM313 778q-23 0 -42 -11t-30 -22v62q10 14 32 29t51 15q21 0 38 -5.5t32.5 -12t31 -12t32.5 -5.5q23 0 42 11t30 22v-63q-10 -14 -32 -29t-51 -15q-21 0 -38 5.5
t-32.5 12.5t-31 12.5t-32.5 5.5z" />
    <glyph glyph-name="Racute" unicode="&#x154;" horiz-adv-x="540" 
d="M142 596v-256h127q42 0 71.5 11.5t47.5 30t26 42t8 47.5q0 25 -8.5 47.5t-26 40t-45 27.5t-65.5 10h-135zM142 0h-97v685h240q58 0 101.5 -16.5t73 -45.5t44.5 -67.5t15 -83.5t-15 -84.5t-44.5 -69t-73.5 -46t-101 -16.5h-16l277 -256h-136l-268 256v-256zM185 748v78
l210 61v-82z" />
    <glyph glyph-name="Rcaron" unicode="&#x158;" horiz-adv-x="540" 
d="M142 596v-256h127q42 0 71.5 11.5t47.5 30t26 42t8 47.5q0 25 -8.5 47.5t-26 40t-45 27.5t-65.5 10h-135zM142 0h-97v685h240q58 0 101.5 -16.5t73 -45.5t44.5 -67.5t15 -83.5t-15 -84.5t-44.5 -69t-73.5 -46t-101 -16.5h-16l277 -256h-136l-268 256v-256zM285 729
l-135 69v75l135 -60l135 60v-75z" />
    <glyph glyph-name="Rcommaaccent" unicode="&#x156;" horiz-adv-x="540" 
d="M142 596v-256h127q42 0 71.5 11.5t47.5 30t26 42t8 47.5q0 25 -8.5 47.5t-26 40t-45 27.5t-65.5 10h-135zM142 0h-97v685h240q58 0 101.5 -16.5t73 -45.5t44.5 -67.5t15 -83.5t-15 -84.5t-44.5 -69t-73.5 -46t-101 -16.5h-16l277 -256h-136l-268 256v-256zM299 -202h-54
l23 71h-26v79h84v-66z" />
    <glyph glyph-name="Sacute" unicode="&#x15a;" horiz-adv-x="591" 
d="M297 -12q-58 0 -106 15t-83.5 43.5t-57 69.5t-25.5 94h99q8 -61 49 -100t122 -39q84 0 122 32t38 85q0 30 -14.5 49t-39.5 31t-57 19.5t-67 14.5q-42 8 -83.5 19.5t-74.5 32.5t-54 56.5t-21 91.5q0 43 17 79t47.5 61t74.5 39t98 14q116 0 181.5 -56.5t72.5 -152.5h-98
q-2 23 -11.5 46t-28 41t-47 29t-67.5 11q-66 0 -104 -27.5t-38 -78.5q0 -30 13 -49t35.5 -31.5t51.5 -20t62 -13.5q43 -8 87.5 -18t80.5 -30.5t59 -56t23 -94.5q0 -47 -17.5 -85t-50.5 -65t-80.5 -41.5t-107.5 -14.5zM182 748v78l210 61v-82z" />
    <glyph glyph-name="Scaron" unicode="&#x160;" horiz-adv-x="591" 
d="M297 -12q-58 0 -106 15t-83.5 43.5t-57 69.5t-25.5 94h99q8 -61 49 -100t122 -39q84 0 122 32t38 85q0 30 -14.5 49t-39.5 31t-57 19.5t-67 14.5q-42 8 -83.5 19.5t-74.5 32.5t-54 56.5t-21 91.5q0 43 17 79t47.5 61t74.5 39t98 14q116 0 181.5 -56.5t72.5 -152.5h-98
q-2 23 -11.5 46t-28 41t-47 29t-67.5 11q-66 0 -104 -27.5t-38 -78.5q0 -30 13 -49t35.5 -31.5t51.5 -20t62 -13.5q43 -8 87.5 -18t80.5 -30.5t59 -56t23 -94.5q0 -47 -17.5 -85t-50.5 -65t-80.5 -41.5t-107.5 -14.5zM282 729l-135 69v75l135 -60l135 60v-75z" />
    <glyph glyph-name="Scedilla" unicode="&#x15e;" horiz-adv-x="591" 
d="M290 -212q-39 0 -64 22.5t-29 60.5h56q2 -16 12.5 -24t25.5 -8t25.5 9.5t10.5 24.5q0 14 -10 24t-27 10h-73l41 83q-100 9 -162.5 66t-70.5 154h99q8 -61 49 -100t122 -39q84 0 122 32t38 85q0 30 -14.5 49t-39.5 31t-57 19.5t-67 14.5q-42 8 -83.5 19.5t-74.5 32.5
t-54 56.5t-21 91.5q0 43 17 79t47.5 61t74.5 39t98 14q116 0 181.5 -56.5t72.5 -152.5h-98q-2 23 -11.5 46t-28 41t-47 29t-67.5 11q-66 0 -104 -27.5t-38 -78.5q0 -30 13 -49t35.5 -31.5t51.5 -20t62 -13.5q43 -8 87.5 -18t80.5 -30.5t59 -56t23 -94.5q0 -45 -17 -82.5
t-48.5 -64.5t-76.5 -42.5t-102 -16.5l-18 -34q39 0 64 -22.5t25 -58.5t-25.5 -60.5t-64.5 -24.5z" />
    <glyph glyph-name="Scircumflex" unicode="&#x15c;" horiz-adv-x="591" 
d="M297 -12q-58 0 -106 15t-83.5 43.5t-57 69.5t-25.5 94h99q8 -61 49 -100t122 -39q84 0 122 32t38 85q0 30 -14.5 49t-39.5 31t-57 19.5t-67 14.5q-42 8 -83.5 19.5t-74.5 32.5t-54 56.5t-21 91.5q0 43 17 79t47.5 61t74.5 39t98 14q116 0 181.5 -56.5t72.5 -152.5h-98
q-2 23 -11.5 46t-28 41t-47 29t-67.5 11q-66 0 -104 -27.5t-38 -78.5q0 -30 13 -49t35.5 -31.5t51.5 -20t62 -13.5q43 -8 87.5 -18t80.5 -30.5t59 -56t23 -94.5q0 -47 -17.5 -85t-50.5 -65t-80.5 -41.5t-107.5 -14.5zM417 736l-135 60l-135 -60v75l135 69l135 -69v-75z" />
    <glyph glyph-name="Scommaaccent" unicode="&#x218;" horiz-adv-x="591" 
d="M297 -12q-58 0 -106 15t-83.5 43.5t-57 69.5t-25.5 94h99q8 -61 49 -100t122 -39q84 0 122 32t38 85q0 30 -14.5 49t-39.5 31t-57 19.5t-67 14.5q-42 8 -83.5 19.5t-74.5 32.5t-54 56.5t-21 91.5q0 43 17 79t47.5 61t74.5 39t98 14q116 0 181.5 -56.5t72.5 -152.5h-98
q-2 23 -11.5 46t-28 41t-47 29t-67.5 11q-66 0 -104 -27.5t-38 -78.5q0 -30 13 -49t35.5 -31.5t51.5 -20t62 -13.5q43 -8 87.5 -18t80.5 -30.5t59 -56t23 -94.5q0 -47 -17.5 -85t-50.5 -65t-80.5 -41.5t-107.5 -14.5zM310 -202h-54l23 71h-26v79h84v-66z" />
    <glyph glyph-name="Tbar" unicode="&#x166;" horiz-adv-x="549" 
d="M323 301v-301h-97v301h-146v82h146v213h-216v89h529v-89h-216v-213h146v-82h-146z" />
    <glyph glyph-name="Tcaron" unicode="&#x164;" horiz-adv-x="549" 
d="M226 0v596h-216v89h529v-89h-216v-596h-97zM275 729l-135 69v75l135 -60l135 60v-75z" />
    <glyph glyph-name="Tcedilla" unicode="&#x162;" horiz-adv-x="549" 
d="M276 -212q-39 0 -64 22.5t-29 60.5h56q2 -16 12.5 -24t25.5 -8t25.5 9.5t10.5 24.5q0 14 -10 24t-27 10h-73l47 93h-24v596h-216v89h529v-89h-216v-596h-22l-24 -46q39 0 64 -22.5t25 -58.5t-25.5 -60.5t-64.5 -24.5z" />
    <glyph glyph-name="uni021A" unicode="&#x21a;" horiz-adv-x="549" 
d="M226 0v596h-216v89h529v-89h-216v-596h-97zM289 -202h-54l23 71h-26v79h84v-66z" />
    <glyph glyph-name="Thorn" unicode="&#xde;" horiz-adv-x="583" 
d="M142 109v-109h-97v685h97v-109h159q56 0 101.5 -18t78 -49.5t50 -74t17.5 -91.5t-18 -92t-51 -74.5t-78.5 -49.5t-99.5 -18h-159zM142 487v-289h153q36 0 65 11t49 30.5t31 46t11 56.5q0 31 -11 57.5t-31 46t-48.5 30.5t-63.5 11h-155z" />
    <glyph glyph-name="Uacute" unicode="&#xda;" horiz-adv-x="625" 
d="M314 -12q-64 0 -114.5 19.5t-86 56t-54 88t-18.5 114.5v419h96v-406q0 -94 46.5 -147t129.5 -53t129.5 53t46.5 147v406h96v-419q0 -63 -18.5 -114.5t-53.5 -88t-85.5 -56t-113.5 -19.5zM213 748v78l210 61v-82z" />
    <glyph glyph-name="Ubreve" unicode="&#x16c;" horiz-adv-x="625" 
d="M314 -12q-64 0 -114.5 19.5t-86 56t-54 88t-18.5 114.5v419h96v-406q0 -94 46.5 -147t129.5 -53t129.5 53t46.5 147v406h96v-419q0 -63 -18.5 -114.5t-53.5 -88t-85.5 -56t-113.5 -19.5zM313 817q47 0 84.5 18t54.5 35v-70q-7 -8 -18.5 -18.5t-28.5 -19.5t-40 -15t-52 -6
t-52 6t-40 15t-28.5 19.5t-18.5 18.5v70q17 -17 54.5 -35t84.5 -18z" />
    <glyph glyph-name="Ucircumflex" unicode="&#xdb;" horiz-adv-x="625" 
d="M314 -12q-64 0 -114.5 19.5t-86 56t-54 88t-18.5 114.5v419h96v-406q0 -94 46.5 -147t129.5 -53t129.5 53t46.5 147v406h96v-419q0 -63 -18.5 -114.5t-53.5 -88t-85.5 -56t-113.5 -19.5zM448 736l-135 60l-135 -60v75l135 69l135 -69v-75z" />
    <glyph glyph-name="Udieresis" unicode="&#xdc;" horiz-adv-x="625" 
d="M314 -12q-64 0 -114.5 19.5t-86 56t-54 88t-18.5 114.5v419h96v-406q0 -94 46.5 -147t129.5 -53t129.5 53t46.5 147v406h96v-419q0 -63 -18.5 -114.5t-53.5 -88t-85.5 -56t-113.5 -19.5zM193 775v89h87v-89h-87zM347 775v89h87v-89h-87z" />
    <glyph glyph-name="Ugrave" unicode="&#xd9;" horiz-adv-x="625" 
d="M314 -12q-64 0 -114.5 19.5t-86 56t-54 88t-18.5 114.5v419h96v-406q0 -94 46.5 -147t129.5 -53t129.5 53t46.5 147v406h96v-419q0 -63 -18.5 -114.5t-53.5 -88t-85.5 -56t-113.5 -19.5zM413 748l-210 57v82l210 -61v-78z" />
    <glyph glyph-name="Uhungarumlaut" unicode="&#x170;" horiz-adv-x="625" 
d="M314 -12q-64 0 -114.5 19.5t-86 56t-54 88t-18.5 114.5v419h96v-406q0 -94 46.5 -147t129.5 -53t129.5 53t46.5 147v406h96v-419q0 -63 -18.5 -114.5t-53.5 -88t-85.5 -56t-113.5 -19.5zM213 737l48 147h86l-52 -147h-82zM344 737l53 147h85l-57 -147h-81z" />
    <glyph glyph-name="Umacron" unicode="&#x16a;" horiz-adv-x="625" 
d="M314 -12q-64 0 -114.5 19.5t-86 56t-54 88t-18.5 114.5v419h96v-406q0 -94 46.5 -147t129.5 -53t129.5 53t46.5 147v406h96v-419q0 -63 -18.5 -114.5t-53.5 -88t-85.5 -56t-113.5 -19.5zM182 774v78h262v-78h-262z" />
    <glyph glyph-name="Uogonek" unicode="&#x172;" horiz-adv-x="625" 
d="M351 -161q-8 -5 -18 -9q-9 -4 -21 -6.5t-29 -2.5q-45 0 -73 22t-28 60q0 31 17 55t43 37q-96 20 -148.5 91t-52.5 180v419h96v-406q0 -94 46.5 -147t129.5 -53t129.5 53t46.5 147v406h96v-419q0 -63 -18.5 -114.5t-53.5 -88t-85.5 -56t-113.5 -19.5h-10t-10 1
q-46 -30 -46 -73q0 -20 12.5 -30t35.5 -10q12 0 22 2t18 4q9 3 15 7v-50v0z" />
    <glyph glyph-name="Uring" unicode="&#x16e;" horiz-adv-x="625" 
d="M314 -12q-64 0 -114.5 19.5t-86 56t-54 88t-18.5 114.5v419h96v-406q0 -94 46.5 -147t129.5 -53t129.5 53t46.5 147v406h96v-419q0 -63 -18.5 -114.5t-53.5 -88t-85.5 -56t-113.5 -19.5zM313 920q41 0 69 -27t28 -67q0 -41 -28 -68t-69 -27q-42 0 -69.5 27t-27.5 68
q0 40 27.5 67t69.5 27zM313 870q-20 0 -32 -12.5t-12 -31.5t12 -32t32 -13q19 0 31.5 13t12.5 32t-12.5 31.5t-31.5 12.5z" />
    <glyph glyph-name="Utilde" unicode="&#x168;" horiz-adv-x="625" 
d="M314 -12q-64 0 -114.5 19.5t-86 56t-54 88t-18.5 114.5v419h96v-406q0 -94 46.5 -147t129.5 -53t129.5 53t46.5 147v406h96v-419q0 -63 -18.5 -114.5t-53.5 -88t-85.5 -56t-113.5 -19.5zM241 778q-23 0 -42 -11t-30 -22v62q10 14 32 29t51 15q21 0 38 -5.5t32.5 -12
t31 -12t32.5 -5.5q23 0 42 11t30 22v-63q-10 -14 -32 -29t-51 -15q-21 0 -38 5.5t-32.5 12.5t-31 12.5t-32.5 5.5z" />
    <glyph glyph-name="Wacute" unicode="&#x1e82;" horiz-adv-x="906" 
d="M453 514l-148 -514h-106l-184 685h104l138 -549l153 549h91l153 -548l138 548h99l-185 -685h-107zM353 748v78l210 61v-82z" />
    <glyph glyph-name="Wdieresis" unicode="&#x1e84;" horiz-adv-x="906" 
d="M453 514l-148 -514h-106l-184 685h104l138 -549l153 549h91l153 -548l138 548h99l-185 -685h-107zM333 775v89h87v-89h-87zM487 775v89h87v-89h-87z" />
    <glyph glyph-name="Wgrave" unicode="&#x1e80;" horiz-adv-x="906" 
d="M453 514l-148 -514h-106l-184 685h104l138 -549l153 549h91l153 -548l138 548h99l-185 -685h-107zM553 748l-210 57v82l210 -61v-78z" />
    <glyph glyph-name="Wcircumflex" unicode="&#x174;" horiz-adv-x="906" 
d="M453 514l-148 -514h-106l-184 685h104l138 -549l153 549h91l153 -548l138 548h99l-185 -685h-107zM588 736l-135 60l-135 -60v75l135 69l135 -69v-75z" />
    <glyph glyph-name="Yacute" unicode="&#xdd;" horiz-adv-x="607" 
d="M255 0v270l-235 415h111l173 -326l175 326h108l-235 -410v-275h-97zM204 748v78l210 61v-82z" />
    <glyph glyph-name="Ycircumflex" unicode="&#x176;" horiz-adv-x="607" 
d="M255 0v270l-235 415h111l173 -326l175 326h108l-235 -410v-275h-97zM439 736l-135 60l-135 -60v75l135 69l135 -69v-75z" />
    <glyph glyph-name="Ydieresis" unicode="&#x178;" horiz-adv-x="607" 
d="M255 0v270l-235 415h111l173 -326l175 326h108l-235 -410v-275h-97zM184 775v89h87v-89h-87zM338 775v89h87v-89h-87z" />
    <glyph glyph-name="Ygrave" unicode="&#x1ef2;" horiz-adv-x="607" 
d="M255 0v270l-235 415h111l173 -326l175 326h108l-235 -410v-275h-97zM404 748l-210 57v82l210 -61v-78z" />
    <glyph glyph-name="Zacute" unicode="&#x179;" horiz-adv-x="594" 
d="M149 89h416v-89h-536v83l401 513h-390v89h510v-82zM200 748v78l210 61v-82z" />
    <glyph glyph-name="Zcaron" unicode="&#x17d;" horiz-adv-x="594" 
d="M149 89h416v-89h-536v83l401 513h-390v89h510v-82zM300 729l-135 69v75l135 -60l135 60v-75z" />
    <glyph glyph-name="Zdotaccent" unicode="&#x17b;" horiz-adv-x="594" 
d="M149 89h416v-89h-536v83l401 513h-390v89h510v-82zM257 775v89h87v-89h-87z" />
    <glyph glyph-name="a" unicode="a" horiz-adv-x="584" 
d="M285 431q-38 0 -70 -14t-55.5 -38t-37 -57t-13.5 -70q0 -38 13.5 -70.5t37 -56.5t55.5 -38t70 -14t71 14t57 38t37.5 56.5t13.5 70.5q0 37 -14 70t-38 57t-56.5 38t-70.5 14zM462 68q-29 -32 -74.5 -54t-107.5 -22q-53 0 -99.5 20t-81.5 55t-55.5 82.5t-20.5 102.5
t20.5 102.5t55.5 82.5t81.5 55.5t99.5 20.5q61 0 106.5 -21.5t75.5 -52.5v67h87v-506h-87v68z" />
    <glyph glyph-name="b" unicode="b" horiz-adv-x="584" 
d="M304 -8q-62 0 -107 21.5t-74 53.5v-67h-88v685h88v-245q30 31 75.5 52t105.5 21q53 0 99.5 -20.5t81.5 -55.5t55.5 -82.5t20.5 -102.5t-20.5 -102.5t-55.5 -82.5t-81.5 -55t-99.5 -20zM299 73q37 0 69.5 14t56 38t37 56.5t13.5 70.5q0 37 -13.5 70t-37 57t-56 38
t-69.5 14q-38 0 -70.5 -14t-56.5 -38t-38 -57t-14 -70q0 -38 13.5 -70.5t37.5 -56.5t57 -38t71 -14z" />
    <glyph glyph-name="c" unicode="c" horiz-adv-x="535" 
d="M517 119q-35 -58 -92 -93.5t-142 -35.5q-58 0 -105.5 20.5t-82 56t-53.5 83.5t-19 103t19 102.5t53.5 82.5t82 55.5t105.5 20.5q87 0 143 -35.5t91 -93.5l-68 -43q-26 41 -63.5 66.5t-100.5 25.5q-39 0 -71 -13.5t-55 -38t-35.5 -57.5t-12.5 -72t12.5 -72.5t35.5 -58
t55.5 -38t71.5 -13.5q63 0 100 25t63 67z" />
    <glyph glyph-name="d" unicode="d" horiz-adv-x="584" 
d="M285 73q38 0 71 14t57 38t37.5 56.5t13.5 70.5q0 37 -14 70t-38 57t-56.5 38t-70.5 14t-70 -14t-55.5 -38t-37 -57t-13.5 -70q0 -38 13.5 -70.5t37 -56.5t55.5 -38t70 -14zM461 67q-29 -32 -74 -53.5t-107 -21.5q-53 0 -99.5 20t-81.5 55t-55.5 82.5t-20.5 102.5
t20.5 102.5t55.5 82.5t81.5 55.5t99.5 20.5q60 0 105.5 -21t75.5 -52v245h88v-685h-88v67z" />
    <glyph glyph-name="e" unicode="e" horiz-adv-x="564" 
d="M524 116q-37 -59 -95.5 -92.5t-143.5 -33.5q-59 0 -107 20.5t-82.5 55.5t-53.5 83t-19 104q0 54 19.5 102t54 83t82.5 55.5t106 20.5q59 0 106.5 -19.5t81 -53.5t51.5 -79.5t18 -97.5q0 -25 -3 -40h-428q8 -69 54.5 -112t121.5 -43q63 0 103 23.5t66 64.5zM285 438
q-69 0 -114.5 -38.5t-57.5 -104.5h338q-10 68 -56.5 105.5t-109.5 37.5z" />
    <glyph glyph-name="f" unicode="f" horiz-adv-x="329" 
d="M268 609q-17 0 -32.5 -4t-27 -13.5t-18 -25.5t-6.5 -40v-20h125v-78h-125v-428h-87v428h-77v78h77v20q0 42 12.5 72t35.5 49.5t54 28.5t69 9h40v-76h-40z" />
    <glyph glyph-name="g" unicode="g" horiz-adv-x="578" 
d="M282 433q-37 0 -68.5 -13.5t-55 -37t-37 -55.5t-13.5 -69t13.5 -69t37 -55.5t55 -37t68.5 -13.5q38 0 70.5 13.5t56 36.5t37 55t13.5 70q0 37 -13.5 69.5t-37.5 55.5t-56.5 36.5t-69.5 13.5zM287 -186q-87 0 -145 33t-96 92l67 42q26 -42 67.5 -66t105.5 -24q80 0 125 36
t45 110v43q-27 -32 -71.5 -54t-107.5 -22q-53 0 -99 19.5t-80.5 54t-54.5 81t-20 100.5t20 100.5t54.5 81t80.5 54t99 19.5q60 0 104.5 -20.5t74.5 -54.5v67h87v-463q0 -48 -17 -89.5t-50 -72.5t-80.5 -49t-108.5 -18z" />
    <glyph glyph-name="h" unicode="h" 
d="M122 442q21 30 61.5 51t97.5 21q44 0 80.5 -14.5t62 -41t39.5 -64.5t14 -84v-310h-87v298q0 63 -33 99t-92 36q-65 0 -104 -39.5t-39 -108.5v-285h-87v685h87v-243z" />
    <glyph glyph-name="i" unicode="i" horiz-adv-x="158" 
d="M35 597v88h88v-88h-88zM35 0v506h88v-506h-88z" />
    <glyph glyph-name="j" unicode="j" horiz-adv-x="158" 
d="M35 597v88h88v-88h-88zM123 6q0 -49 -14 -83t-38 -55.5t-56.5 -31t-69.5 -9.5v79q19 0 35.5 5t28.5 17t19 31.5t7 47.5v499h88v-500z" />
    <glyph glyph-name="k" unicode="k" horiz-adv-x="467" 
d="M327 506h105l-221 -253l242 -253h-119l-211 220v-220h-88v685h88v-415z" />
    <glyph glyph-name="l" unicode="l" horiz-adv-x="158" 
d="M35 0v685h88v-685h-88z" />
    <glyph glyph-name="m" unicode="m" horiz-adv-x="826" 
d="M122 443q20 27 55.5 49t94.5 22q54 0 93.5 -22.5t62.5 -63.5q10 16 25.5 31.5t37.5 27.5t49 19.5t60 7.5q44 0 79 -14t60 -40t38 -62.5t13 -81.5v-316h-86v305q0 60 -30.5 94t-84.5 34q-60 0 -96.5 -36.5t-36.5 -100.5v-296h-86v305q0 60 -30.5 94t-84.5 34
q-60 0 -96.5 -37.5t-36.5 -103.5v-292h-87v506h87v-63z" />
    <glyph glyph-name="n" unicode="n" 
d="M122 442q21 30 61.5 51t97.5 21q44 0 80.5 -14.5t62 -41t39.5 -64.5t14 -84v-310h-87v298q0 63 -33 99t-92 36q-65 0 -104 -39.5t-39 -108.5v-285h-87v506h87v-64z" />
    <glyph glyph-name="o" unicode="o" horiz-adv-x="575" 
d="M288 514q57 0 105 -20.5t83.5 -55.5t55.5 -82.5t20 -102.5t-20 -103t-55.5 -83.5t-83.5 -56t-105 -20.5t-105.5 20.5t-84 55.5t-55.5 83t-20 104q0 55 20 102.5t55.5 82.5t84 55.5t105.5 20.5zM288 434q-38 0 -70.5 -14t-56.5 -38t-37.5 -57.5t-13.5 -72.5t13 -72
t36.5 -57t56 -38t70.5 -14t70.5 14t56.5 38t38 57t14 72t-13.5 72.5t-37 57.5t-56 38t-70.5 14z" />
    <glyph glyph-name="p" unicode="p" horiz-adv-x="584" 
d="M299 431q-38 0 -71 -14t-57 -38t-37.5 -56.5t-13.5 -70.5t14 -70.5t38 -56.5t56.5 -38t70.5 -14q37 0 69.5 14t56 38t37 56.5t13.5 70.5q0 37 -13.5 70t-37 57t-56 38t-69.5 14zM304 -8q-60 0 -105.5 21t-75.5 52v-239h-88v680h88v-68q29 32 74 53.5t107 21.5
q53 0 99.5 -20t81.5 -55t55.5 -82.5t20.5 -102.5t-20.5 -102.5t-55.5 -83t-81.5 -55.5t-99.5 -20z" />
    <glyph glyph-name="q" unicode="q" horiz-adv-x="584" 
d="M461 -174v239q-30 -31 -75.5 -52t-105.5 -21q-53 0 -99.5 20t-81.5 55.5t-55.5 83t-20.5 102.5t20.5 102.5t55.5 82.5t81.5 55t99.5 20q62 0 107 -21.5t74 -53.5v68h88v-680h-88zM285 431q-38 0 -70 -14t-55.5 -38t-37 -57t-13.5 -70q0 -38 13.5 -70.5t37 -56.5t55.5 -38
t70 -14t70.5 14t56.5 38t38 56.5t14 70.5t-13.5 70.5t-37.5 56.5t-57 38t-71 14z" />
    <glyph glyph-name="r" unicode="r" horiz-adv-x="307" 
d="M282 423q-75 0 -117 -45.5t-42 -121.5v-256h-88v506h87v-84q9 15 23 31t33.5 29.5t45.5 22t58 8.5v-90z" />
    <glyph glyph-name="s" unicode="s" horiz-adv-x="475" 
d="M116 157q2 -19 10.5 -36t24 -30t39.5 -21t57 -8q57 0 84.5 22t27.5 54q0 20 -10.5 33t-27.5 21t-40 13t-48 9q-33 6 -67.5 13t-62.5 22t-45.5 41.5t-17.5 70.5q0 33 13.5 60.5t38.5 47.5t60.5 31.5t79.5 11.5q91 0 144.5 -43t58.5 -115h-89q-1 15 -6.5 30.5t-18.5 27.5
t-34 20t-52 8q-48 0 -76.5 -17.5t-28.5 -51.5q0 -20 10.5 -33t28.5 -21t41.5 -13.5t49.5 -9.5q34 -6 68 -13.5t62 -22.5t45.5 -40t17.5 -67q0 -39 -15.5 -69t-43.5 -50t-66.5 -30.5t-84.5 -10.5q-97 0 -154.5 44.5t-63.5 121.5h91z" />
    <glyph glyph-name="t" unicode="t" horiz-adv-x="341" 
d="M316 506v-78h-134v-265q0 -25 7 -41.5t18.5 -26t27 -13.5t33.5 -4h48v-78h-49q-38 0 -69.5 9.5t-54.5 29.5t-35.5 51t-12.5 73v265h-75v78h75v139h87v-139h134z" />
    <glyph glyph-name="u" unicode="u" 
d="M390 64q-21 -30 -61.5 -51t-97.5 -21q-44 0 -80.5 14.5t-62 41t-39.5 64t-14 84.5v310h87v-298q0 -63 33 -99t92 -36q65 0 104 39.5t39 108.5v285h87v-506h-87v64z" />
    <glyph glyph-name="v" unicode="v" horiz-adv-x="498" 
d="M191 0l-178 506h97l142 -417l141 417h92l-178 -506h-116z" />
    <glyph glyph-name="w" unicode="w" horiz-adv-x="758" 
d="M378 370l-111 -370h-115l-137 506h92l105 -404l120 404h98l112 -406l113 406h88l-145 -506h-116z" />
    <glyph glyph-name="x" unicode="x" horiz-adv-x="495" 
d="M483 0h-106l-129 194l-130 -194h-105l177 259l-167 247h106l119 -180l119 180h106l-168 -245z" />
    <glyph glyph-name="y" unicode="y" horiz-adv-x="497" 
d="M305 14q-18 -50 -39.5 -85.5t-49 -58.5t-62 -33.5t-77.5 -10.5h-23v80h23q48 0 81 24t56 79l-202 497h98l149 -383l134 383h91z" />
    <glyph glyph-name="z" unicode="z" horiz-adv-x="474" 
d="M146 78h300v-78h-418v73l291 355h-285v78h403v-73z" />
    <glyph glyph-name="k.alt" horiz-adv-x="467" 
d="M35 685h88v-425l214 246h109l-173 -196l177 -310h-103l-139 241l-85 -92v-149h-88v685z" />
    <glyph glyph-name="aacute" unicode="&#xe1;" horiz-adv-x="584" 
d="M285 431q-38 0 -70 -14t-55.5 -38t-37 -57t-13.5 -70q0 -38 13.5 -70.5t37 -56.5t55.5 -38t70 -14t71 14t57 38t37.5 56.5t13.5 70.5q0 37 -14 70t-38 57t-56.5 38t-70.5 14zM462 68q-29 -32 -74.5 -54t-107.5 -22q-53 0 -99.5 20t-81.5 55t-55.5 82.5t-20.5 102.5
t20.5 102.5t55.5 82.5t81.5 55.5t99.5 20.5q61 0 106.5 -21.5t75.5 -52.5v67h87v-506h-87v68zM182 569v78l210 61v-82z" />
    <glyph glyph-name="abreve" unicode="&#x103;" horiz-adv-x="584" 
d="M285 431q-38 0 -70 -14t-55.5 -38t-37 -57t-13.5 -70q0 -38 13.5 -70.5t37 -56.5t55.5 -38t70 -14t71 14t57 38t37.5 56.5t13.5 70.5q0 37 -14 70t-38 57t-56.5 38t-70.5 14zM462 68q-29 -32 -74.5 -54t-107.5 -22q-53 0 -99.5 20t-81.5 55t-55.5 82.5t-20.5 102.5
t20.5 102.5t55.5 82.5t81.5 55.5t99.5 20.5q61 0 106.5 -21.5t75.5 -52.5v67h87v-506h-87v68zM282 638q47 0 84.5 18t54.5 35v-70q-7 -8 -18.5 -18.5t-28.5 -19.5t-40 -15t-52 -6t-52 6t-40 15t-28.5 19.5t-18.5 18.5v70q17 -17 54.5 -35t84.5 -18z" />
    <glyph glyph-name="acircumflex" unicode="&#xe2;" horiz-adv-x="584" 
d="M285 431q-38 0 -70 -14t-55.5 -38t-37 -57t-13.5 -70q0 -38 13.5 -70.5t37 -56.5t55.5 -38t70 -14t71 14t57 38t37.5 56.5t13.5 70.5q0 37 -14 70t-38 57t-56.5 38t-70.5 14zM462 68q-29 -32 -74.5 -54t-107.5 -22q-53 0 -99.5 20t-81.5 55t-55.5 82.5t-20.5 102.5
t20.5 102.5t55.5 82.5t81.5 55.5t99.5 20.5q61 0 106.5 -21.5t75.5 -52.5v67h87v-506h-87v68zM417 557l-135 60l-135 -60v75l135 69l135 -69v-75z" />
    <glyph glyph-name="adieresis" unicode="&#xe4;" horiz-adv-x="584" 
d="M285 431q-38 0 -70 -14t-55.5 -38t-37 -57t-13.5 -70q0 -38 13.5 -70.5t37 -56.5t55.5 -38t70 -14t71 14t57 38t37.5 56.5t13.5 70.5q0 37 -14 70t-38 57t-56.5 38t-70.5 14zM462 68q-29 -32 -74.5 -54t-107.5 -22q-53 0 -99.5 20t-81.5 55t-55.5 82.5t-20.5 102.5
t20.5 102.5t55.5 82.5t81.5 55.5t99.5 20.5q61 0 106.5 -21.5t75.5 -52.5v67h87v-506h-87v68zM162 596v89h87v-89h-87zM316 596v89h87v-89h-87z" />
    <glyph glyph-name="ae" unicode="&#xe6;" horiz-adv-x="1005" 
d="M550 434q8 12 23.5 26t38 26t51.5 20t65 8q58 0 105 -19.5t80.5 -53.5t51.5 -79.5t18 -97.5q0 -8 -0.5 -15.5t-1.5 -12.5q-1 -6 -1 -12h-428q9 -69 55.5 -112t121.5 -43q63 0 102.5 23.5t65.5 64.5l69 -41q-38 -59 -95.5 -92.5t-142.5 -33.5q-35 0 -64.5 8t-52 20.5
t-38 26.5t-23.5 26v-71h-87v73q-18 -23 -44 -41q-23 -16 -57 -28.5t-81 -12.5q-56 0 -103 20t-81.5 55t-54 82.5t-19.5 103.5q0 55 19.5 103t54 83.5t81.5 55.5t103 20q47 0 81 -12.5t57 -27.5q26 -18 44 -39v71h87v-72zM891 295q-3 30 -16 56t-34.5 45.5t-50.5 30.5t-64 11
q-68 0 -113.5 -39t-58.5 -104h337zM285 71q39 0 72 13.5t57 38t37.5 57.5t13.5 72t-13.5 72t-37 57.5t-56 38t-71.5 13.5t-71.5 -13.5t-56.5 -38t-37 -57.5t-13 -72t13 -72t36 -57.5t55.5 -38t71.5 -13.5z" />
    <glyph glyph-name="agrave" unicode="&#xe0;" horiz-adv-x="584" 
d="M285 431q-38 0 -70 -14t-55.5 -38t-37 -57t-13.5 -70q0 -38 13.5 -70.5t37 -56.5t55.5 -38t70 -14t71 14t57 38t37.5 56.5t13.5 70.5q0 37 -14 70t-38 57t-56.5 38t-70.5 14zM462 68q-29 -32 -74.5 -54t-107.5 -22q-53 0 -99.5 20t-81.5 55t-55.5 82.5t-20.5 102.5
t20.5 102.5t55.5 82.5t81.5 55.5t99.5 20.5q61 0 106.5 -21.5t75.5 -52.5v67h87v-506h-87v68zM382 569l-210 57v82l210 -61v-78z" />
    <glyph glyph-name="amacron" unicode="&#x101;" horiz-adv-x="584" 
d="M285 431q-38 0 -70 -14t-55.5 -38t-37 -57t-13.5 -70q0 -38 13.5 -70.5t37 -56.5t55.5 -38t70 -14t71 14t57 38t37.5 56.5t13.5 70.5q0 37 -14 70t-38 57t-56.5 38t-70.5 14zM462 68q-29 -32 -74.5 -54t-107.5 -22q-53 0 -99.5 20t-81.5 55t-55.5 82.5t-20.5 102.5
t20.5 102.5t55.5 82.5t81.5 55.5t99.5 20.5q61 0 106.5 -21.5t75.5 -52.5v67h87v-506h-87v68zM151 595v78h262v-78h-262z" />
    <glyph glyph-name="aogonek" unicode="&#x105;" horiz-adv-x="584" 
d="M285 431q-38 0 -70 -14t-55.5 -38t-37 -57t-13.5 -70q0 -38 13.5 -70.5t37 -56.5t55.5 -38t70 -14t71 14t57 38t37.5 56.5t13.5 70.5q0 37 -14 70t-38 57t-56.5 38t-70.5 14zM559 -161q-8 -5 -18 -9q-9 -4 -21 -6.5t-29 -2.5q-45 0 -73 22t-28 60q0 34 21 60t51 37v68
q-29 -32 -74.5 -54t-107.5 -22q-53 0 -99.5 20t-81.5 55t-55.5 82.5t-20.5 102.5t20.5 102.5t55.5 82.5t81.5 55.5t99.5 20.5q61 0 106.5 -21.5t75.5 -52.5v67h87v-506h-25q-35 -14 -51.5 -36.5t-16.5 -47.5q0 -20 12.5 -30t35.5 -10q12 0 22 2t18 4q9 3 15 7v-50z" />
    <glyph glyph-name="aring" unicode="&#xe5;" horiz-adv-x="584" 
d="M285 431q-38 0 -70 -14t-55.5 -38t-37 -57t-13.5 -70q0 -38 13.5 -70.5t37 -56.5t55.5 -38t70 -14t71 14t57 38t37.5 56.5t13.5 70.5q0 37 -14 70t-38 57t-56.5 38t-70.5 14zM462 68q-29 -32 -74.5 -54t-107.5 -22q-53 0 -99.5 20t-81.5 55t-55.5 82.5t-20.5 102.5
t20.5 102.5t55.5 82.5t81.5 55.5t99.5 20.5q61 0 106.5 -21.5t75.5 -52.5v67h87v-506h-87v68zM282 741q41 0 69 -27t28 -67q0 -41 -28 -68t-69 -27q-42 0 -69.5 27t-27.5 68q0 40 27.5 67t69.5 27zM282 691q-20 0 -32 -12.5t-12 -31.5t12 -32t32 -13q19 0 31.5 13t12.5 32
t-12.5 31.5t-31.5 12.5z" />
    <glyph glyph-name="atilde" unicode="&#xe3;" horiz-adv-x="584" 
d="M285 431q-38 0 -70 -14t-55.5 -38t-37 -57t-13.5 -70q0 -38 13.5 -70.5t37 -56.5t55.5 -38t70 -14t71 14t57 38t37.5 56.5t13.5 70.5q0 37 -14 70t-38 57t-56.5 38t-70.5 14zM462 68q-29 -32 -74.5 -54t-107.5 -22q-53 0 -99.5 20t-81.5 55t-55.5 82.5t-20.5 102.5
t20.5 102.5t55.5 82.5t81.5 55.5t99.5 20.5q61 0 106.5 -21.5t75.5 -52.5v67h87v-506h-87v68zM210 599q-23 0 -42 -11t-30 -22v62q10 14 32 29t51 15q21 0 38 -5.5t32.5 -12t31 -12t32.5 -5.5q23 0 42 11t30 22v-63q-10 -14 -32 -29t-51 -15q-21 0 -38 5.5t-32.5 12.5
t-31 12.5t-32.5 5.5z" />
    <glyph glyph-name="cacute" unicode="&#x107;" horiz-adv-x="535" 
d="M517 119q-35 -58 -92 -93.5t-142 -35.5q-58 0 -105.5 20.5t-82 56t-53.5 83.5t-19 103t19 102.5t53.5 82.5t82 55.5t105.5 20.5q87 0 143 -35.5t91 -93.5l-68 -43q-26 41 -63.5 66.5t-100.5 25.5q-39 0 -71 -13.5t-55 -38t-35.5 -57.5t-12.5 -72t12.5 -72.5t35.5 -58
t55.5 -38t71.5 -13.5q63 0 100 25t63 67zM183 569v78l210 61v-82z" />
    <glyph glyph-name="ccaron" unicode="&#x10d;" horiz-adv-x="535" 
d="M517 119q-35 -58 -92 -93.5t-142 -35.5q-58 0 -105.5 20.5t-82 56t-53.5 83.5t-19 103t19 102.5t53.5 82.5t82 55.5t105.5 20.5q87 0 143 -35.5t91 -93.5l-68 -43q-26 41 -63.5 66.5t-100.5 25.5q-39 0 -71 -13.5t-55 -38t-35.5 -57.5t-12.5 -72t12.5 -72.5t35.5 -58
t55.5 -38t71.5 -13.5q63 0 100 25t63 67zM283 550l-135 69v75l135 -60l135 60v-75z" />
    <glyph glyph-name="ccedilla" unicode="&#xe7;" horiz-adv-x="535" 
d="M286 -212q-39 0 -64 22.5t-29 60.5h56q2 -16 12.5 -24t25.5 -8t25.5 9.5t10.5 24.5q0 14 -10 24t-27 10h-73l42 84q-52 5 -95 27t-73.5 57.5t-47 81t-16.5 96.5q0 55 19 102.5t53.5 82.5t82 55.5t105.5 20.5q87 0 143 -35.5t91 -93.5l-68 -43q-26 41 -63.5 66.5
t-100.5 25.5q-39 0 -71 -13.5t-55 -38t-35.5 -57.5t-12.5 -72t12.5 -72.5t35.5 -58t55.5 -38t71.5 -13.5q63 0 100 25t63 67l68 -44q-33 -54 -84.5 -88.5t-126.5 -39.5l-19 -37q39 0 64 -22.5t25 -58.5t-25.5 -60.5t-64.5 -24.5z" />
    <glyph glyph-name="ccircumflex" unicode="&#x109;" horiz-adv-x="535" 
d="M517 119q-35 -58 -92 -93.5t-142 -35.5q-58 0 -105.5 20.5t-82 56t-53.5 83.5t-19 103t19 102.5t53.5 82.5t82 55.5t105.5 20.5q87 0 143 -35.5t91 -93.5l-68 -43q-26 41 -63.5 66.5t-100.5 25.5q-39 0 -71 -13.5t-55 -38t-35.5 -57.5t-12.5 -72t12.5 -72.5t35.5 -58
t55.5 -38t71.5 -13.5q63 0 100 25t63 67zM418 557l-135 60l-135 -60v75l135 69l135 -69v-75z" />
    <glyph glyph-name="cdotaccent" unicode="&#x10b;" horiz-adv-x="535" 
d="M517 119q-35 -58 -92 -93.5t-142 -35.5q-58 0 -105.5 20.5t-82 56t-53.5 83.5t-19 103t19 102.5t53.5 82.5t82 55.5t105.5 20.5q87 0 143 -35.5t91 -93.5l-68 -43q-26 41 -63.5 66.5t-100.5 25.5q-39 0 -71 -13.5t-55 -38t-35.5 -57.5t-12.5 -72t12.5 -72.5t35.5 -58
t55.5 -38t71.5 -13.5q63 0 100 25t63 67zM240 596v89h87v-89h-87z" />
    <glyph glyph-name="dcaron" unicode="&#x10f;" horiz-adv-x="697" 
d="M684 606l-29 -99h-58l25 83h-28v95h90v-79v0zM285 73q38 0 71 14t57 38t37.5 56.5t13.5 70.5q0 37 -14 70t-38 57t-56.5 38t-70.5 14t-70 -14t-55.5 -38t-37 -57t-13.5 -70q0 -38 13.5 -70.5t37 -56.5t55.5 -38t70 -14zM461 67q-29 -32 -74 -53.5t-107 -21.5
q-53 0 -99.5 20t-81.5 55t-55.5 82.5t-20.5 102.5t20.5 102.5t55.5 82.5t81.5 55.5t99.5 20.5q60 0 105.5 -21t75.5 -52v245h88v-685h-88v67z" />
    <glyph glyph-name="dcroat" unicode="&#x111;" horiz-adv-x="584" 
d="M285 73q38 0 71 14t57 38t37.5 56.5t13.5 70.5q0 37 -14 70t-38 57t-56.5 38t-70.5 14t-70 -14t-55.5 -38t-37 -57t-13.5 -70q0 -38 13.5 -70.5t37 -56.5t55.5 -38t70 -14zM549 546v-546h-87v69q-19 -22 -45 -39q-23 -14 -56.5 -26t-80.5 -12q-53 0 -99.5 20t-81.5 55
t-55.5 82.5t-20.5 102.5t20.5 102.5t55.5 82.5t81.5 55.5t99.5 20.5q46 0 80 -12t57 -26q26 -17 45 -38v109h-143v76h143v63h87v-63h42v-76h-42z" />
    <glyph glyph-name="dotlessi" unicode="&#x131;" horiz-adv-x="158" 
d="M35 0v506h88v-506h-88z" />
    <glyph glyph-name="dotlessj" unicode="&#x237;" horiz-adv-x="158" 
d="M123 6q0 -49 -14 -83t-38 -55.5t-56.5 -31t-69.5 -9.5v79q19 0 35.5 5t28.5 17t19 31.5t7 47.5v499h88v-500z" />
    <glyph glyph-name="eacute" unicode="&#xe9;" horiz-adv-x="564" 
d="M524 116q-37 -59 -95.5 -92.5t-143.5 -33.5q-59 0 -107 20.5t-82.5 55.5t-53.5 83t-19 104q0 54 19.5 102t54 83t82.5 55.5t106 20.5q59 0 106.5 -19.5t81 -53.5t51.5 -79.5t18 -97.5q0 -25 -3 -40h-428q8 -69 54.5 -112t121.5 -43q63 0 103 23.5t66 64.5zM285 438
q-69 0 -114.5 -38.5t-57.5 -104.5h338q-10 68 -56.5 105.5t-109.5 37.5zM182 569v78l210 61v-82z" />
    <glyph glyph-name="ebreve" unicode="&#x115;" horiz-adv-x="564" 
d="M524 116q-37 -59 -95.5 -92.5t-143.5 -33.5q-59 0 -107 20.5t-82.5 55.5t-53.5 83t-19 104q0 54 19.5 102t54 83t82.5 55.5t106 20.5q59 0 106.5 -19.5t81 -53.5t51.5 -79.5t18 -97.5q0 -25 -3 -40h-428q8 -69 54.5 -112t121.5 -43q63 0 103 23.5t66 64.5zM285 438
q-69 0 -114.5 -38.5t-57.5 -104.5h338q-10 68 -56.5 105.5t-109.5 37.5zM282 638q47 0 84.5 18t54.5 35v-70q-7 -8 -18.5 -18.5t-28.5 -19.5t-40 -15t-52 -6t-52 6t-40 15t-28.5 19.5t-18.5 18.5v70q17 -17 54.5 -35t84.5 -18z" />
    <glyph glyph-name="ecaron" unicode="&#x11b;" horiz-adv-x="564" 
d="M524 116q-37 -59 -95.5 -92.5t-143.5 -33.5q-59 0 -107 20.5t-82.5 55.5t-53.5 83t-19 104q0 54 19.5 102t54 83t82.5 55.5t106 20.5q59 0 106.5 -19.5t81 -53.5t51.5 -79.5t18 -97.5q0 -25 -3 -40h-428q8 -69 54.5 -112t121.5 -43q63 0 103 23.5t66 64.5zM285 438
q-69 0 -114.5 -38.5t-57.5 -104.5h338q-10 68 -56.5 105.5t-109.5 37.5zM282 550l-135 69v75l135 -60l135 60v-75z" />
    <glyph glyph-name="ecircumflex" unicode="&#xea;" horiz-adv-x="564" 
d="M524 116q-37 -59 -95.5 -92.5t-143.5 -33.5q-59 0 -107 20.5t-82.5 55.5t-53.5 83t-19 104q0 54 19.5 102t54 83t82.5 55.5t106 20.5q59 0 106.5 -19.5t81 -53.5t51.5 -79.5t18 -97.5q0 -25 -3 -40h-428q8 -69 54.5 -112t121.5 -43q63 0 103 23.5t66 64.5zM285 438
q-69 0 -114.5 -38.5t-57.5 -104.5h338q-10 68 -56.5 105.5t-109.5 37.5zM417 557l-135 60l-135 -60v75l135 69l135 -69v-75z" />
    <glyph glyph-name="edieresis" unicode="&#xeb;" horiz-adv-x="564" 
d="M524 116q-37 -59 -95.5 -92.5t-143.5 -33.5q-59 0 -107 20.5t-82.5 55.5t-53.5 83t-19 104q0 54 19.5 102t54 83t82.5 55.5t106 20.5q59 0 106.5 -19.5t81 -53.5t51.5 -79.5t18 -97.5q0 -25 -3 -40h-428q8 -69 54.5 -112t121.5 -43q63 0 103 23.5t66 64.5zM285 438
q-69 0 -114.5 -38.5t-57.5 -104.5h338q-10 68 -56.5 105.5t-109.5 37.5zM162 596v89h87v-89h-87zM316 596v89h87v-89h-87z" />
    <glyph glyph-name="edotaccent" unicode="&#x117;" horiz-adv-x="564" 
d="M524 116q-37 -59 -95.5 -92.5t-143.5 -33.5q-59 0 -107 20.5t-82.5 55.5t-53.5 83t-19 104q0 54 19.5 102t54 83t82.5 55.5t106 20.5q59 0 106.5 -19.5t81 -53.5t51.5 -79.5t18 -97.5q0 -25 -3 -40h-428q8 -69 54.5 -112t121.5 -43q63 0 103 23.5t66 64.5zM285 438
q-69 0 -114.5 -38.5t-57.5 -104.5h338q-10 68 -56.5 105.5t-109.5 37.5zM239 596v89h87v-89h-87z" />
    <glyph glyph-name="egrave" unicode="&#xe8;" horiz-adv-x="564" 
d="M524 116q-37 -59 -95.5 -92.5t-143.5 -33.5q-59 0 -107 20.5t-82.5 55.5t-53.5 83t-19 104q0 54 19.5 102t54 83t82.5 55.5t106 20.5q59 0 106.5 -19.5t81 -53.5t51.5 -79.5t18 -97.5q0 -25 -3 -40h-428q8 -69 54.5 -112t121.5 -43q63 0 103 23.5t66 64.5zM285 438
q-69 0 -114.5 -38.5t-57.5 -104.5h338q-10 68 -56.5 105.5t-109.5 37.5zM382 569l-210 57v82l210 -61v-78z" />
    <glyph glyph-name="emacron" unicode="&#x113;" horiz-adv-x="564" 
d="M524 116q-37 -59 -95.5 -92.5t-143.5 -33.5q-59 0 -107 20.5t-82.5 55.5t-53.5 83t-19 104q0 54 19.5 102t54 83t82.5 55.5t106 20.5q59 0 106.5 -19.5t81 -53.5t51.5 -79.5t18 -97.5q0 -25 -3 -40h-428q8 -69 54.5 -112t121.5 -43q63 0 103 23.5t66 64.5zM285 438
q-69 0 -114.5 -38.5t-57.5 -104.5h338q-10 68 -56.5 105.5t-109.5 37.5zM151 595v78h262v-78h-262z" />
    <glyph glyph-name="eng" unicode="&#x14b;" 
d="M122 442q14 20 37 36q19 14 49 25t73 11q44 0 80.5 -14.5t62 -41t39.5 -64.5t14 -84v-304q0 -49 -13.5 -83t-37.5 -55.5t-56.5 -31t-69.5 -9.5v79q19 0 35.5 5t28.5 17t19 31.5t7 47.5v291q0 63 -33 99t-92 36q-65 0 -104 -39.5t-39 -108.5v-285h-87v506h87v-64z" />
    <glyph glyph-name="eogonek" unicode="&#x119;" horiz-adv-x="564" 
d="M337 -179q-45 0 -73 22t-28 60q0 28 14 50.5t37 36.5h-2q-59 0 -107 20.5t-82.5 55.5t-53.5 83t-19 104q0 54 19.5 102t54 83t82.5 55.5t106 20.5q59 0 106.5 -19.5t81 -53.5t51.5 -79.5t18 -97.5q0 -8 -0.5 -15.5t-1.5 -12.5q-1 -6 -1 -12h-428q8 -69 54.5 -112
t121.5 -43q63 0 103 23.5t66 64.5l68 -41q-27 -43 -65 -72.5t-89 -43.5q-35 -14 -51.5 -36.5t-16.5 -47.5q0 -20 12.5 -30t35.5 -10q12 0 22 2t18 4q9 3 15 7v-50q-8 -5 -18 -9q-9 -4 -21 -6.5t-29 -2.5zM285 438q-69 0 -114.5 -38.5t-57.5 -104.5h338q-10 68 -56.5 105.5
t-109.5 37.5z" />
    <glyph glyph-name="eth" unicode="&#xf0;" horiz-adv-x="569" 
d="M509 388q38 -65 38 -137q0 -54 -20.5 -101.5t-56.5 -82.5t-84 -55.5t-103 -20.5q-56 0 -103.5 20t-82.5 54.5t-54.5 82t-19.5 102.5t19.5 102.5t54 82.5t81.5 55t103 20q15 0 28.5 -2.5t23.5 -4.5q11 -4 22 -7l-37 63l-92 -17v65l59 10l-38 68h93l30 -52l105 20v-65
l-72 -13zM284 70q38 0 70.5 13.5t56 37.5t36.5 57t13 72t-13 71.5t-36.5 56.5t-55.5 37.5t-70 13.5t-70.5 -13.5t-56 -37.5t-37 -56.5t-13.5 -71.5t13 -72t36.5 -57t56 -37.5t70.5 -13.5z" />
    <glyph glyph-name="schwa" unicode="&#x259;" horiz-adv-x="564" 
d="M40 388q37 59 95.5 92.5t143.5 33.5q59 0 107 -20.5t82.5 -55.5t53.5 -83.5t19 -103.5q0 -54 -19.5 -102t-54 -83t-82.5 -55.5t-106 -20.5q-59 0 -106.5 19.5t-81 53.5t-51.5 79.5t-18 97.5v15.5t1 12.5l2 12h428q-8 69 -54.5 112t-121.5 43q-63 0 -103 -23.5t-66 -64.5z
M279 66q69 0 114.5 38.5t57.5 104.5h-338q10 -68 56.5 -105.5t109.5 -37.5z" />
    <glyph glyph-name="gbreve" unicode="&#x11f;" horiz-adv-x="578" 
d="M282 433q-37 0 -68.5 -13.5t-55 -37t-37 -55.5t-13.5 -69t13.5 -69t37 -55.5t55 -37t68.5 -13.5q38 0 70.5 13.5t56 36.5t37 55t13.5 70q0 37 -13.5 69.5t-37.5 55.5t-56.5 36.5t-69.5 13.5zM287 -186q-87 0 -145 33t-96 92l67 42q26 -42 67.5 -66t105.5 -24q80 0 125 36
t45 110v43q-27 -32 -71.5 -54t-107.5 -22q-53 0 -99 19.5t-80.5 54t-54.5 81t-20 100.5t20 100.5t54.5 81t80.5 54t99 19.5q60 0 104.5 -20.5t74.5 -54.5v67h87v-463q0 -48 -17 -89.5t-50 -72.5t-80.5 -49t-108.5 -18zM283 638q47 0 84.5 18t54.5 35v-70q-7 -8 -18.5 -18.5
t-28.5 -19.5t-40 -15t-52 -6t-52 6t-40 15t-28.5 19.5t-18.5 18.5v70q17 -17 54.5 -35t84.5 -18z" />
    <glyph glyph-name="gcircumflex" unicode="&#x11d;" horiz-adv-x="578" 
d="M282 433q-37 0 -68.5 -13.5t-55 -37t-37 -55.5t-13.5 -69t13.5 -69t37 -55.5t55 -37t68.5 -13.5q38 0 70.5 13.5t56 36.5t37 55t13.5 70q0 37 -13.5 69.5t-37.5 55.5t-56.5 36.5t-69.5 13.5zM287 -186q-87 0 -145 33t-96 92l67 42q26 -42 67.5 -66t105.5 -24q80 0 125 36
t45 110v43q-27 -32 -71.5 -54t-107.5 -22q-53 0 -99 19.5t-80.5 54t-54.5 81t-20 100.5t20 100.5t54.5 81t80.5 54t99 19.5q60 0 104.5 -20.5t74.5 -54.5v67h87v-463q0 -48 -17 -89.5t-50 -72.5t-80.5 -49t-108.5 -18zM418 557l-135 60l-135 -60v75l135 69l135 -69v-75z" />
    <glyph glyph-name="gcommaaccent" unicode="&#x123;" horiz-adv-x="578" 
d="M269 746h54l-23 -71h26v-79h-84v66zM282 433q-37 0 -68.5 -13.5t-55 -37t-37 -55.5t-13.5 -69t13.5 -69t37 -55.5t55 -37t68.5 -13.5q38 0 70.5 13.5t56 36.5t37 55t13.5 70q0 37 -13.5 69.5t-37.5 55.5t-56.5 36.5t-69.5 13.5zM287 -186q-87 0 -145 33t-96 92l67 42
q26 -42 67.5 -66t105.5 -24q80 0 125 36t45 110v43q-27 -32 -71.5 -54t-107.5 -22q-53 0 -99 19.5t-80.5 54t-54.5 81t-20 100.5t20 100.5t54.5 81t80.5 54t99 19.5q60 0 104.5 -20.5t74.5 -54.5v67h87v-463q0 -48 -17 -89.5t-50 -72.5t-80.5 -49t-108.5 -18z" />
    <glyph glyph-name="gdotaccent" unicode="&#x121;" horiz-adv-x="578" 
d="M282 433q-37 0 -68.5 -13.5t-55 -37t-37 -55.5t-13.5 -69t13.5 -69t37 -55.5t55 -37t68.5 -13.5q38 0 70.5 13.5t56 36.5t37 55t13.5 70q0 37 -13.5 69.5t-37.5 55.5t-56.5 36.5t-69.5 13.5zM287 -186q-87 0 -145 33t-96 92l67 42q26 -42 67.5 -66t105.5 -24q80 0 125 36
t45 110v43q-27 -32 -71.5 -54t-107.5 -22q-53 0 -99 19.5t-80.5 54t-54.5 81t-20 100.5t20 100.5t54.5 81t80.5 54t99 19.5q60 0 104.5 -20.5t74.5 -54.5v67h87v-463q0 -48 -17 -89.5t-50 -72.5t-80.5 -49t-108.5 -18zM240 596v89h87v-89h-87z" />
    <glyph glyph-name="germandbls" unicode="&#xdf;" horiz-adv-x="478" 
d="M35 497q0 41 15.5 75.5t42 59.5t62 39t76.5 14t76 -13t60.5 -36t40 -56t14.5 -73q0 -45 -22 -83t-57 -59q19 -8 38.5 -22t35.5 -34.5t26 -48t10 -61.5q0 -44 -16 -80.5t-44 -63t-67 -41t-84 -14.5h-51v78h50q27 0 50 9t39.5 25.5t26 39t9.5 48.5q0 53 -33.5 86.5
t-89.5 32.5h-52v79h41q23 0 42.5 8.5t33.5 23t22 34t8 41.5q0 45 -30 73.5t-76 28.5q-48 0 -79.5 -30.5t-31.5 -80.5v-496h-86v497z" />
    <glyph glyph-name="hbar" unicode="&#x127;" 
d="M122 442q14 20 37 36q19 14 49 25t73 11q44 0 80.5 -14.5t62 -41t39.5 -64.5t14 -84v-310h-87v298q0 63 -33 99t-92 36q-65 0 -104 -39.5t-39 -108.5v-285h-87v546h-35v76h35v63h87v-63h150v-76h-150v-104z" />
    <glyph glyph-name="hcircumflex" unicode="&#x125;" 
d="M122 442q21 30 61.5 51t97.5 21q44 0 80.5 -14.5t62 -41t39.5 -64.5t14 -84v-310h-87v298q0 63 -33 99t-92 36q-65 0 -104 -39.5t-39 -108.5v-285h-87v685h87v-243zM216 736l-135 60l-135 -60v75l135 69l135 -69v-75z" />
    <glyph glyph-name="iacute" unicode="&#xed;" horiz-adv-x="158" 
d="M35 0v506h88v-506h-88zM-20 569v78l210 61v-82z" />
    <glyph glyph-name="ibreve" unicode="&#x12d;" horiz-adv-x="158" 
d="M35 0v506h88v-506h-88zM80 638q47 0 84.5 18t54.5 35v-70q-7 -8 -18.5 -18.5t-28.5 -19.5t-40 -15t-52 -6t-52 6t-40 15t-28.5 19.5t-18.5 18.5v70q17 -17 54.5 -35t84.5 -18z" />
    <glyph glyph-name="icircumflex" unicode="&#xee;" horiz-adv-x="158" 
d="M35 0v506h88v-506h-88zM215 557l-135 60l-135 -60v75l135 69l135 -69v-75z" />
    <glyph glyph-name="idieresis" unicode="&#xef;" horiz-adv-x="158" 
d="M35 0v506h88v-506h-88zM-40 596v89h87v-89h-87zM114 596v89h87v-89h-87z" />
    <glyph glyph-name="igrave" unicode="&#xec;" horiz-adv-x="158" 
d="M35 0v506h88v-506h-88zM180 569l-210 57v82l210 -61v-78z" />
    <glyph glyph-name="ij" unicode="&#x133;" horiz-adv-x="316" 
d="M35 597v88h88v-88h-88zM35 0v506h88v-506h-88zM193 597v88h88v-88h-88zM281 6q0 -49 -14 -83t-38 -55.5t-56.5 -31t-69.5 -9.5v79q19 0 35.5 5t28.5 17t19 31.5t7 47.5v499h88v-500z" />
    <glyph glyph-name="imacron" unicode="&#x12b;" horiz-adv-x="158" 
d="M35 0v506h88v-506h-88zM-51 595v78h262v-78h-262z" />
    <glyph glyph-name="iogonek" unicode="&#x12f;" horiz-adv-x="158" 
d="M35 597v88h88v-88h-88zM118 -161q-8 -5 -18 -9q-9 -4 -21 -6.5t-29 -2.5q-45 0 -73 22t-28 60q0 36 23.5 63t56.5 37l6 2v501h88v-506h-40q-35 -14 -51.5 -36.5t-16.5 -47.5q0 -20 12.5 -30t35.5 -10q12 0 22 2t18 4q9 3 15 7v-50z" />
    <glyph glyph-name="itilde" unicode="&#x129;" horiz-adv-x="158" 
d="M35 0v506h88v-506h-88zM8 599q-23 0 -42 -11t-30 -22v62q10 14 32 29t51 15q21 0 38 -5.5t32.5 -12t31 -12t32.5 -5.5q23 0 42 11t30 22v-63q-10 -14 -32 -29t-51 -15q-21 0 -38 5.5t-32.5 12.5t-31 12.5t-32.5 5.5z" />
    <glyph glyph-name="jcircumflex" unicode="&#x135;" horiz-adv-x="158" 
d="M123 6q0 -49 -14 -83t-38 -55.5t-56.5 -31t-69.5 -9.5v79q19 0 35.5 5t28.5 17t19 31.5t7 47.5v499h88v-500zM215 557l-135 60l-135 -60v75l135 69l135 -69v-75z" />
    <glyph glyph-name="kcommaaccent" unicode="&#x137;" horiz-adv-x="467" 
d="M327 506h105l-221 -253l242 -253h-119l-211 220v-220h-88v685h88v-415zM248 -202h-54l23 71h-26v79h84v-66z" />
    <glyph glyph-name="kgreenlandic" unicode="&#x138;" horiz-adv-x="467" 
d="M327 506h105l-221 -253l242 -253h-119l-211 220v-220h-88v506h88v-236z" />
    <glyph glyph-name="lacute" unicode="&#x13a;" horiz-adv-x="158" 
d="M35 0v685h88v-685h-88zM-20 748v78l210 61v-82z" />
    <glyph glyph-name="lcaron" unicode="&#x13e;" horiz-adv-x="276" 
d="M258 606l-29 -99h-58l25 83h-28v95h90v-79v0zM35 0v685h88v-685h-88z" />
    <glyph glyph-name="lcommaaccent" unicode="&#x13c;" horiz-adv-x="158" 
d="M35 0v685h88v-685h-88zM94 -202h-54l23 71h-26v79h84v-66z" />
    <glyph glyph-name="ldot" unicode="&#x140;" horiz-adv-x="272" 
d="M35 0v685h88v-685h-88zM165 229v89h87v-89h-87z" />
    <glyph glyph-name="lslash" unicode="&#x142;" horiz-adv-x="158" 
d="M123 381v-381h-88v333l-33 -18v80l33 18v272h88v-223l33 18v-80z" />
    <glyph glyph-name="nacute" unicode="&#x144;" 
d="M122 442q21 30 61.5 51t97.5 21q44 0 80.5 -14.5t62 -41t39.5 -64.5t14 -84v-310h-87v298q0 63 -33 99t-92 36q-65 0 -104 -39.5t-39 -108.5v-285h-87v506h87v-64zM156 569v78l210 61v-82z" />
    <glyph glyph-name="napostrophe" unicode="&#x149;" 
d="M122 442q21 30 61.5 51t97.5 21q44 0 80.5 -14.5t62 -41t39.5 -64.5t14 -84v-310h-87v298q0 63 -33 99t-92 36q-65 0 -104 -39.5t-39 -108.5v-285h-87v506h87v-64zM93 588h-54l23 71h-26v79h84v-66z" />
    <glyph glyph-name="ncaron" unicode="&#x148;" 
d="M122 442q21 30 61.5 51t97.5 21q44 0 80.5 -14.5t62 -41t39.5 -64.5t14 -84v-310h-87v298q0 63 -33 99t-92 36q-65 0 -104 -39.5t-39 -108.5v-285h-87v506h87v-64zM256 550l-135 69v75l135 -60l135 60v-75z" />
    <glyph glyph-name="ncommaaccent" unicode="&#x146;" 
d="M122 442q21 30 61.5 51t97.5 21q44 0 80.5 -14.5t62 -41t39.5 -64.5t14 -84v-310h-87v298q0 63 -33 99t-92 36q-65 0 -104 -39.5t-39 -108.5v-285h-87v506h87v-64zM270 -202h-54l23 71h-26v79h84v-66z" />
    <glyph glyph-name="ntilde" unicode="&#xf1;" 
d="M122 442q21 30 61.5 51t97.5 21q44 0 80.5 -14.5t62 -41t39.5 -64.5t14 -84v-310h-87v298q0 63 -33 99t-92 36q-65 0 -104 -39.5t-39 -108.5v-285h-87v506h87v-64zM184 599q-23 0 -42 -11t-30 -22v62q10 14 32 29t51 15q21 0 38 -5.5t32.5 -12t31 -12t32.5 -5.5
q23 0 42 11t30 22v-63q-10 -14 -32 -29t-51 -15q-21 0 -38 5.5t-32.5 12.5t-31 12.5t-32.5 5.5z" />
    <glyph glyph-name="oacute" unicode="&#xf3;" horiz-adv-x="575" 
d="M288 514q57 0 105 -20.5t83.5 -55.5t55.5 -82.5t20 -102.5t-20 -103t-55.5 -83.5t-83.5 -56t-105 -20.5t-105.5 20.5t-84 55.5t-55.5 83t-20 104q0 55 20 102.5t55.5 82.5t84 55.5t105.5 20.5zM288 434q-38 0 -70.5 -14t-56.5 -38t-37.5 -57.5t-13.5 -72.5t13 -72
t36.5 -57t56 -38t70.5 -14t70.5 14t56.5 38t38 57t14 72t-13.5 72.5t-37 57.5t-56 38t-70.5 14zM188 569v78l210 61v-82z" />
    <glyph glyph-name="obreve" unicode="&#x14f;" horiz-adv-x="575" 
d="M288 514q57 0 105 -20.5t83.5 -55.5t55.5 -82.5t20 -102.5t-20 -103t-55.5 -83.5t-83.5 -56t-105 -20.5t-105.5 20.5t-84 55.5t-55.5 83t-20 104q0 55 20 102.5t55.5 82.5t84 55.5t105.5 20.5zM288 434q-38 0 -70.5 -14t-56.5 -38t-37.5 -57.5t-13.5 -72.5t13 -72
t36.5 -57t56 -38t70.5 -14t70.5 14t56.5 38t38 57t14 72t-13.5 72.5t-37 57.5t-56 38t-70.5 14zM288 638q47 0 84.5 18t54.5 35v-70q-7 -8 -18.5 -18.5t-28.5 -19.5t-40 -15t-52 -6t-52 6t-40 15t-28.5 19.5t-18.5 18.5v70q17 -17 54.5 -35t84.5 -18z" />
    <glyph glyph-name="ocircumflex" unicode="&#xf4;" horiz-adv-x="575" 
d="M288 514q57 0 105 -20.5t83.5 -55.5t55.5 -82.5t20 -102.5t-20 -103t-55.5 -83.5t-83.5 -56t-105 -20.5t-105.5 20.5t-84 55.5t-55.5 83t-20 104q0 55 20 102.5t55.5 82.5t84 55.5t105.5 20.5zM288 434q-38 0 -70.5 -14t-56.5 -38t-37.5 -57.5t-13.5 -72.5t13 -72
t36.5 -57t56 -38t70.5 -14t70.5 14t56.5 38t38 57t14 72t-13.5 72.5t-37 57.5t-56 38t-70.5 14zM423 557l-135 60l-135 -60v75l135 69l135 -69v-75z" />
    <glyph glyph-name="odieresis" unicode="&#xf6;" horiz-adv-x="575" 
d="M288 514q57 0 105 -20.5t83.5 -55.5t55.5 -82.5t20 -102.5t-20 -103t-55.5 -83.5t-83.5 -56t-105 -20.5t-105.5 20.5t-84 55.5t-55.5 83t-20 104q0 55 20 102.5t55.5 82.5t84 55.5t105.5 20.5zM288 434q-38 0 -70.5 -14t-56.5 -38t-37.5 -57.5t-13.5 -72.5t13 -72
t36.5 -57t56 -38t70.5 -14t70.5 14t56.5 38t38 57t14 72t-13.5 72.5t-37 57.5t-56 38t-70.5 14zM168 596v89h87v-89h-87zM322 596v89h87v-89h-87z" />
    <glyph glyph-name="oe" unicode="&#x153;" horiz-adv-x="1007" 
d="M967 116q-37 -59 -95.5 -92.5t-143.5 -33.5q-76 0 -132.5 33t-88.5 88q-32 -55 -89 -88t-130 -33q-58 0 -106.5 20.5t-84 56t-55 83.5t-19.5 103t19.5 102.5t55 82.5t84 55.5t106.5 20.5q74 0 131 -33t89 -89q32 55 88.5 88.5t131.5 33.5q58 0 105.5 -19.5t81 -53.5
t51.5 -79.5t18 -97.5q0 -8 -0.5 -15.5t-1.5 -12.5q-1 -6 -1 -12h-428q8 -69 55 -112t122 -43q63 0 103 23.5t66 64.5zM893 295q-3 30 -16 56t-34.5 45.5t-50.5 30.5t-64 11q-69 0 -114.5 -39t-58.5 -104h338zM286 70q39 0 71.5 14t56.5 38t37.5 57.5t13.5 72.5t-13 72.5
t-36.5 58t-56 38.5t-71.5 14t-71.5 -14t-56.5 -38.5t-37 -58t-13 -72.5t13 -72.5t36 -57.5t55.5 -38t71.5 -14z" />
    <glyph glyph-name="ograve" unicode="&#xf2;" horiz-adv-x="575" 
d="M288 514q57 0 105 -20.5t83.5 -55.5t55.5 -82.5t20 -102.5t-20 -103t-55.5 -83.5t-83.5 -56t-105 -20.5t-105.5 20.5t-84 55.5t-55.5 83t-20 104q0 55 20 102.5t55.5 82.5t84 55.5t105.5 20.5zM288 434q-38 0 -70.5 -14t-56.5 -38t-37.5 -57.5t-13.5 -72.5t13 -72
t36.5 -57t56 -38t70.5 -14t70.5 14t56.5 38t38 57t14 72t-13.5 72.5t-37 57.5t-56 38t-70.5 14zM388 569l-210 57v82l210 -61v-78z" />
    <glyph glyph-name="ohungarumlaut" unicode="&#x151;" horiz-adv-x="575" 
d="M288 514q57 0 105 -20.5t83.5 -55.5t55.5 -82.5t20 -102.5t-20 -103t-55.5 -83.5t-83.5 -56t-105 -20.5t-105.5 20.5t-84 55.5t-55.5 83t-20 104q0 55 20 102.5t55.5 82.5t84 55.5t105.5 20.5zM288 434q-38 0 -70.5 -14t-56.5 -38t-37.5 -57.5t-13.5 -72.5t13 -72
t36.5 -57t56 -38t70.5 -14t70.5 14t56.5 38t38 57t14 72t-13.5 72.5t-37 57.5t-56 38t-70.5 14zM188 558l48 147h86l-52 -147h-82zM319 558l53 147h85l-57 -147h-81z" />
    <glyph glyph-name="omacron" unicode="&#x14d;" horiz-adv-x="575" 
d="M288 514q57 0 105 -20.5t83.5 -55.5t55.5 -82.5t20 -102.5t-20 -103t-55.5 -83.5t-83.5 -56t-105 -20.5t-105.5 20.5t-84 55.5t-55.5 83t-20 104q0 55 20 102.5t55.5 82.5t84 55.5t105.5 20.5zM288 434q-38 0 -70.5 -14t-56.5 -38t-37.5 -57.5t-13.5 -72.5t13 -72
t36.5 -57t56 -38t70.5 -14t70.5 14t56.5 38t38 57t14 72t-13.5 72.5t-37 57.5t-56 38t-70.5 14zM157 595v78h262v-78h-262z" />
    <glyph glyph-name="oslash" unicode="&#xf8;" horiz-adv-x="575" 
d="M365 417q-36 17 -77 17q-38 0 -70.5 -14t-56.5 -38t-37.5 -57.5t-13.5 -72.5q0 -42 15 -77t42 -60zM224 81q27 -10 61 -10q38 0 71 14t57 38t38 57t14 72q0 38 -12 69.5t-34 55.5zM465 448q41 -35 64 -85.5t23 -109.5q0 -55 -20 -103t-55.5 -83t-83.5 -55.5t-105 -20.5
q-60 0 -109 21l-34 -52h-79l56 85q-47 36 -73 89.5t-26 118.5q0 55 20 102.5t55.5 82.5t84 55.5t105.5 20.5q66 0 122 -28l40 60h80z" />
    <glyph glyph-name="otilde" unicode="&#xf5;" horiz-adv-x="575" 
d="M288 514q57 0 105 -20.5t83.5 -55.5t55.5 -82.5t20 -102.5t-20 -103t-55.5 -83.5t-83.5 -56t-105 -20.5t-105.5 20.5t-84 55.5t-55.5 83t-20 104q0 55 20 102.5t55.5 82.5t84 55.5t105.5 20.5zM288 434q-38 0 -70.5 -14t-56.5 -38t-37.5 -57.5t-13.5 -72.5t13 -72
t36.5 -57t56 -38t70.5 -14t70.5 14t56.5 38t38 57t14 72t-13.5 72.5t-37 57.5t-56 38t-70.5 14zM216 599q-23 0 -42 -11t-30 -22v62q10 14 32 29t51 15q21 0 38 -5.5t32.5 -12t31 -12t32.5 -5.5q23 0 42 11t30 22v-63q-10 -14 -32 -29t-51 -15q-21 0 -38 5.5t-32.5 12.5
t-31 12.5t-32.5 5.5z" />
    <glyph glyph-name="racute" unicode="&#x155;" horiz-adv-x="307" 
d="M282 423q-75 0 -117 -45.5t-42 -121.5v-256h-88v506h87v-84q9 15 23 31t33.5 29.5t45.5 22t58 8.5v-90zM60 569v78l210 61v-82z" />
    <glyph glyph-name="rcaron" unicode="&#x159;" horiz-adv-x="307" 
d="M282 423q-75 0 -117 -45.5t-42 -121.5v-256h-88v506h87v-84q9 15 23 31t33.5 29.5t45.5 22t58 8.5v-90zM160 550l-135 69v75l135 -60l135 60v-75z" />
    <glyph glyph-name="rcommaaccent" unicode="&#x157;" horiz-adv-x="307" 
d="M282 423q-75 0 -117 -45.5t-42 -121.5v-256h-88v506h87v-84q9 15 23 31t33.5 29.5t45.5 22t58 8.5v-90zM95 -202h-54l23 71h-26v79h84v-66z" />
    <glyph glyph-name="sacute" unicode="&#x15b;" horiz-adv-x="475" 
d="M116 157q2 -19 10.5 -36t24 -30t39.5 -21t57 -8q57 0 84.5 22t27.5 54q0 20 -10.5 33t-27.5 21t-40 13t-48 9q-33 6 -67.5 13t-62.5 22t-45.5 41.5t-17.5 70.5q0 33 13.5 60.5t38.5 47.5t60.5 31.5t79.5 11.5q91 0 144.5 -43t58.5 -115h-89q-1 15 -6.5 30.5t-18.5 27.5
t-34 20t-52 8q-48 0 -76.5 -17.5t-28.5 -51.5q0 -20 10.5 -33t28.5 -21t41.5 -13.5t49.5 -9.5q34 -6 68 -13.5t62 -22.5t45.5 -40t17.5 -67q0 -39 -15.5 -69t-43.5 -50t-66.5 -30.5t-84.5 -10.5q-97 0 -154.5 44.5t-63.5 121.5h91zM138 569v78l210 61v-82z" />
    <glyph glyph-name="scaron" unicode="&#x161;" horiz-adv-x="475" 
d="M116 157q2 -19 10.5 -36t24 -30t39.5 -21t57 -8q57 0 84.5 22t27.5 54q0 20 -10.5 33t-27.5 21t-40 13t-48 9q-33 6 -67.5 13t-62.5 22t-45.5 41.5t-17.5 70.5q0 33 13.5 60.5t38.5 47.5t60.5 31.5t79.5 11.5q91 0 144.5 -43t58.5 -115h-89q-1 15 -6.5 30.5t-18.5 27.5
t-34 20t-52 8q-48 0 -76.5 -17.5t-28.5 -51.5q0 -20 10.5 -33t28.5 -21t41.5 -13.5t49.5 -9.5q34 -6 68 -13.5t62 -22.5t45.5 -40t17.5 -67q0 -39 -15.5 -69t-43.5 -50t-66.5 -30.5t-84.5 -10.5q-97 0 -154.5 44.5t-63.5 121.5h91zM238 550l-135 69v75l135 -60l135 60v-75z
" />
    <glyph glyph-name="scedilla" unicode="&#x15f;" horiz-adv-x="475" 
d="M116 157q2 -19 10.5 -36t24 -30t39.5 -21t57 -8q57 0 84.5 22t27.5 54q0 20 -10.5 33t-27.5 21t-40 13t-48 9q-33 6 -67.5 13t-62.5 22t-45.5 41.5t-17.5 70.5q0 33 13.5 60.5t38.5 47.5t60.5 31.5t79.5 11.5q91 0 144.5 -43t58.5 -115h-89q-1 15 -6.5 30.5t-18.5 27.5
t-34 20t-52 8q-48 0 -76.5 -17.5t-28.5 -51.5q0 -20 10.5 -33t28.5 -21t41.5 -13.5t49.5 -9.5q34 -6 68 -13.5t62 -22.5t45.5 -40t17.5 -67q0 -39 -15.5 -69t-43.5 -50t-67 -31q-34 -9 -74 -10l-20 -37q39 0 64 -22.5t25 -58.5t-25.5 -60.5t-64.5 -24.5t-64 22.5t-29 60.5
h56q2 -16 12.5 -24t25.5 -8t25.5 9.5t10.5 24.5q0 14 -10 24t-27 10h-73l43 86q-69 8 -114 42q-57 45 -63 122h91z" />
    <glyph glyph-name="scircumflex" unicode="&#x15d;" horiz-adv-x="475" 
d="M116 157q2 -19 10.5 -36t24 -30t39.5 -21t57 -8q57 0 84.5 22t27.5 54q0 20 -10.5 33t-27.5 21t-40 13t-48 9q-33 6 -67.5 13t-62.5 22t-45.5 41.5t-17.5 70.5q0 33 13.5 60.5t38.5 47.5t60.5 31.5t79.5 11.5q91 0 144.5 -43t58.5 -115h-89q-1 15 -6.5 30.5t-18.5 27.5
t-34 20t-52 8q-48 0 -76.5 -17.5t-28.5 -51.5q0 -20 10.5 -33t28.5 -21t41.5 -13.5t49.5 -9.5q34 -6 68 -13.5t62 -22.5t45.5 -40t17.5 -67q0 -39 -15.5 -69t-43.5 -50t-66.5 -30.5t-84.5 -10.5q-97 0 -154.5 44.5t-63.5 121.5h91zM373 557l-135 60l-135 -60v75l135 69
l135 -69v-75z" />
    <glyph glyph-name="scommaaccent" unicode="&#x219;" horiz-adv-x="475" 
d="M116 157q2 -19 10.5 -36t24 -30t39.5 -21t57 -8q57 0 84.5 22t27.5 54q0 20 -10.5 33t-27.5 21t-40 13t-48 9q-33 6 -67.5 13t-62.5 22t-45.5 41.5t-17.5 70.5q0 33 13.5 60.5t38.5 47.5t60.5 31.5t79.5 11.5q91 0 144.5 -43t58.5 -115h-89q-1 15 -6.5 30.5t-18.5 27.5
t-34 20t-52 8q-48 0 -76.5 -17.5t-28.5 -51.5q0 -20 10.5 -33t28.5 -21t41.5 -13.5t49.5 -9.5q34 -6 68 -13.5t62 -22.5t45.5 -40t17.5 -67q0 -39 -15.5 -69t-43.5 -50t-66.5 -30.5t-84.5 -10.5q-97 0 -154.5 44.5t-63.5 121.5h91zM252 -202h-54l23 71h-26v79h84v-66z" />
    <glyph glyph-name="tbar" unicode="&#x167;" horiz-adv-x="341" 
d="M182 336h134v-78h-134v-95q0 -25 7 -41.5t18.5 -26t27 -13.5t33.5 -4h48v-78h-49q-38 0 -69.5 9.5t-54.5 29.5t-35.5 51t-12.5 73v95h-75v78h75v92h-75v78h75v139h87v-139h134v-78h-134v-92z" />
    <glyph glyph-name="tcaron" unicode="&#x165;" horiz-adv-x="341" 
d="M320 666l-29 -99h-58l25 83h-28v95h90v-79v0zM316 506v-78h-134v-265q0 -25 7 -41.5t18.5 -26t27 -13.5t33.5 -4h48v-78h-49q-38 0 -69.5 9.5t-54.5 29.5t-35.5 51t-12.5 73v265h-75v78h75v139h87v-139h134z" />
    <glyph glyph-name="tcedilla" unicode="&#x163;" horiz-adv-x="341" 
d="M239 -212q-39 0 -64 22.5t-29 60.5h56q2 -16 12.5 -24t25.5 -8t25.5 9.5t10.5 24.5q0 14 -10 24t-27 10h-73l49 98q-55 11 -87.5 50t-32.5 108v265h-75v78h75v139h87v-139h134v-78h-134v-265q0 -25 7 -41.5t18.5 -26t27 -13.5t33.5 -4h48v-78h-49h-3l-24 -46
q39 0 64 -22.5t25 -58.5t-25.5 -60.5t-64.5 -24.5z" />
    <glyph glyph-name="uni021B" unicode="&#x21b;" horiz-adv-x="341" 
d="M316 506v-78h-134v-265q0 -25 7 -41.5t18.5 -26t27 -13.5t33.5 -4h48v-78h-49q-38 0 -69.5 9.5t-54.5 29.5t-35.5 51t-12.5 73v265h-75v78h75v139h87v-139h134zM214 -202h-54l23 71h-26v79h84v-66z" />
    <glyph glyph-name="thorn" unicode="&#xfe;" horiz-adv-x="584" 
d="M299 431q-38 0 -71 -14t-57 -38t-37.5 -56.5t-13.5 -70.5t14 -70.5t38 -56.5t56.5 -38t70.5 -14q37 0 69.5 14t56 38t37 56.5t13.5 70.5q0 37 -13.5 70t-37 57t-56 38t-69.5 14zM304 -8q-60 0 -105.5 21t-75.5 52v-239h-88v859h88v-247q29 32 74 53.5t107 21.5
q53 0 99.5 -20t81.5 -55t55.5 -82.5t20.5 -102.5t-20.5 -102.5t-55.5 -83t-81.5 -55.5t-99.5 -20z" />
    <glyph glyph-name="uacute" unicode="&#xfa;" 
d="M390 64q-21 -30 -61.5 -51t-97.5 -21q-44 0 -80.5 14.5t-62 41t-39.5 64t-14 84.5v310h87v-298q0 -63 33 -99t92 -36q65 0 104 39.5t39 108.5v285h87v-506h-87v64zM156 569v78l210 61v-82z" />
    <glyph glyph-name="ubreve" unicode="&#x16d;" 
d="M390 64q-21 -30 -61.5 -51t-97.5 -21q-44 0 -80.5 14.5t-62 41t-39.5 64t-14 84.5v310h87v-298q0 -63 33 -99t92 -36q65 0 104 39.5t39 108.5v285h87v-506h-87v64zM256 638q47 0 84.5 18t54.5 35v-70q-7 -8 -18.5 -18.5t-28.5 -19.5t-40 -15t-52 -6t-52 6t-40 15
t-28.5 19.5t-18.5 18.5v70q17 -17 54.5 -35t84.5 -18z" />
    <glyph glyph-name="ucircumflex" unicode="&#xfb;" 
d="M390 64q-21 -30 -61.5 -51t-97.5 -21q-44 0 -80.5 14.5t-62 41t-39.5 64t-14 84.5v310h87v-298q0 -63 33 -99t92 -36q65 0 104 39.5t39 108.5v285h87v-506h-87v64zM391 557l-135 60l-135 -60v75l135 69l135 -69v-75z" />
    <glyph glyph-name="udieresis" unicode="&#xfc;" 
d="M390 64q-21 -30 -61.5 -51t-97.5 -21q-44 0 -80.5 14.5t-62 41t-39.5 64t-14 84.5v310h87v-298q0 -63 33 -99t92 -36q65 0 104 39.5t39 108.5v285h87v-506h-87v64zM136 596v89h87v-89h-87zM290 596v89h87v-89h-87z" />
    <glyph glyph-name="ugrave" unicode="&#xf9;" 
d="M390 64q-21 -30 -61.5 -51t-97.5 -21q-44 0 -80.5 14.5t-62 41t-39.5 64t-14 84.5v310h87v-298q0 -63 33 -99t92 -36q65 0 104 39.5t39 108.5v285h87v-506h-87v64zM356 569l-210 57v82l210 -61v-78z" />
    <glyph glyph-name="uhungarumlaut" unicode="&#x171;" 
d="M390 64q-21 -30 -61.5 -51t-97.5 -21q-44 0 -80.5 14.5t-62 41t-39.5 64t-14 84.5v310h87v-298q0 -63 33 -99t92 -36q65 0 104 39.5t39 108.5v285h87v-506h-87v64zM156 558l48 147h86l-52 -147h-82zM287 558l53 147h85l-57 -147h-81z" />
    <glyph glyph-name="umacron" unicode="&#x16b;" 
d="M390 64q-21 -30 -61.5 -51t-97.5 -21q-44 0 -80.5 14.5t-62 41t-39.5 64t-14 84.5v310h87v-298q0 -63 33 -99t92 -36q65 0 104 39.5t39 108.5v285h87v-506h-87v64zM125 595v78h262v-78h-262z" />
    <glyph glyph-name="uogonek" unicode="&#x173;" 
d="M482 -161q-8 -5 -18 -9q-9 -4 -21 -6.5t-29 -2.5q-45 0 -73 22t-28 60q0 36 23 63t54 36v62q-21 -30 -61.5 -51t-97.5 -21q-44 0 -80.5 14.5t-62 41t-39.5 64t-14 84.5v310h87v-298q0 -63 33 -99t92 -36q65 0 104 39.5t39 108.5v285h87v-506h-30q-35 -14 -51.5 -36.5
t-16.5 -47.5q0 -20 12.5 -30t35.5 -10q12 0 22 2t18 4q9 3 15 7v-50v0z" />
    <glyph glyph-name="uring" unicode="&#x16f;" 
d="M390 64q-21 -30 -61.5 -51t-97.5 -21q-44 0 -80.5 14.5t-62 41t-39.5 64t-14 84.5v310h87v-298q0 -63 33 -99t92 -36q65 0 104 39.5t39 108.5v285h87v-506h-87v64zM256 741q41 0 69 -27t28 -67q0 -41 -28 -68t-69 -27q-42 0 -69.5 27t-27.5 68q0 40 27.5 67t69.5 27z
M256 691q-20 0 -32 -12.5t-12 -31.5t12 -32t32 -13q19 0 31.5 13t12.5 32t-12.5 31.5t-31.5 12.5z" />
    <glyph glyph-name="utilde" unicode="&#x169;" 
d="M390 64q-21 -30 -61.5 -51t-97.5 -21q-44 0 -80.5 14.5t-62 41t-39.5 64t-14 84.5v310h87v-298q0 -63 33 -99t92 -36q65 0 104 39.5t39 108.5v285h87v-506h-87v64zM184 599q-23 0 -42 -11t-30 -22v62q10 14 32 29t51 15q21 0 38 -5.5t32.5 -12t31 -12t32.5 -5.5
q23 0 42 11t30 22v-63q-10 -14 -32 -29t-51 -15q-21 0 -38 5.5t-32.5 12.5t-31 12.5t-32.5 5.5z" />
    <glyph glyph-name="wacute" unicode="&#x1e83;" horiz-adv-x="758" 
d="M378 370l-111 -370h-115l-137 506h92l105 -404l120 404h98l112 -406l113 406h88l-145 -506h-116zM279 569v78l210 61v-82z" />
    <glyph glyph-name="wdieresis" unicode="&#x1e85;" horiz-adv-x="758" 
d="M378 370l-111 -370h-115l-137 506h92l105 -404l120 404h98l112 -406l113 406h88l-145 -506h-116zM259 596v89h87v-89h-87zM413 596v89h87v-89h-87z" />
    <glyph glyph-name="wgrave" unicode="&#x1e81;" horiz-adv-x="758" 
d="M378 370l-111 -370h-115l-137 506h92l105 -404l120 404h98l112 -406l113 406h88l-145 -506h-116zM479 569l-210 57v82l210 -61v-78z" />
    <glyph glyph-name="wcircumflex" unicode="&#x175;" horiz-adv-x="758" 
d="M378 370l-111 -370h-115l-137 506h92l105 -404l120 404h98l112 -406l113 406h88l-145 -506h-116zM514 557l-135 60l-135 -60v75l135 69l135 -69v-75z" />
    <glyph glyph-name="yacute" unicode="&#xfd;" horiz-adv-x="497" 
d="M305 14q-18 -50 -39.5 -85.5t-49 -58.5t-62 -33.5t-77.5 -10.5h-23v80h23q48 0 81 24t56 79l-202 497h98l149 -383l134 383h91zM149 569v78l210 61v-82z" />
    <glyph glyph-name="ycircumflex" unicode="&#x177;" horiz-adv-x="497" 
d="M305 14q-18 -50 -39.5 -85.5t-49 -58.5t-62 -33.5t-77.5 -10.5h-23v80h23q48 0 81 24t56 79l-202 497h98l149 -383l134 383h91zM384 557l-135 60l-135 -60v75l135 69l135 -69v-75z" />
    <glyph glyph-name="ydieresis" unicode="&#xff;" horiz-adv-x="497" 
d="M305 14q-18 -50 -39.5 -85.5t-49 -58.5t-62 -33.5t-77.5 -10.5h-23v80h23q48 0 81 24t56 79l-202 497h98l149 -383l134 383h91zM129 596v89h87v-89h-87zM283 596v89h87v-89h-87z" />
    <glyph glyph-name="ygrave" unicode="&#x1ef3;" horiz-adv-x="497" 
d="M305 14q-18 -50 -39.5 -85.5t-49 -58.5t-62 -33.5t-77.5 -10.5h-23v80h23q48 0 81 24t56 79l-202 497h98l149 -383l134 383h91zM349 569l-210 57v82l210 -61v-78z" />
    <glyph glyph-name="zacute" unicode="&#x17a;" horiz-adv-x="474" 
d="M146 78h300v-78h-418v73l291 355h-285v78h403v-73zM137 569v78l210 61v-82z" />
    <glyph glyph-name="zcaron" unicode="&#x17e;" horiz-adv-x="474" 
d="M146 78h300v-78h-418v73l291 355h-285v78h403v-73zM237 550l-135 69v75l135 -60l135 60v-75z" />
    <glyph glyph-name="zdotaccent" unicode="&#x17c;" horiz-adv-x="474" 
d="M146 78h300v-78h-418v73l291 355h-285v78h403v-73zM194 596v89h87v-89h-87z" />
    <glyph glyph-name="f_i" unicode="&#xfb01;" horiz-adv-x="487" 
d="M268 609q-17 0 -32.5 -4t-27 -13.5t-18 -25.5t-6.5 -40v-20h125v-78h-125v-428h-87v428h-77v78h77v20q0 42 12.5 72t35.5 49.5t54 28.5t69 9h40v-76h-40zM364 597v88h88v-88h-88zM364 0v506h88v-506h-88z" />
    <glyph glyph-name="f_l" unicode="&#xfb02;" horiz-adv-x="487" 
d="M268 609q-17 0 -32.5 -4t-27 -13.5t-18 -25.5t-6.5 -40v-20h125v-78h-125v-428h-87v428h-77v78h77v20q0 42 12.5 72t35.5 49.5t54 28.5t69 9h40v-76h-40zM364 0v685h88v-685h-88z" />
    <glyph glyph-name="ordfeminine" unicode="&#xaa;" horiz-adv-x="392" 
d="M196 621q-42 0 -69 -27.5t-27 -70.5t26.5 -70.5t68.5 -27.5q43 0 70 27.5t27 70.5t-27 70.5t-69 27.5zM289 395q-11 -12 -37.5 -24.5t-59.5 -12.5q-36 0 -66.5 12.5t-53 34.5t-35 52t-12.5 66t12.5 66t35 52.5t53 35t66.5 12.5q35 0 60.5 -12.5t36.5 -24.5v33h75v-323
h-75v33z" />
    <glyph glyph-name="ordmasculine" unicode="&#xba;" horiz-adv-x="391" 
d="M195 691q37 0 68.5 -13t54.5 -35.5t35.5 -53t12.5 -66.5q0 -35 -12.5 -65.5t-35.5 -53t-54.5 -35.5t-68.5 -13t-68.5 13t-54 35.5t-35 53t-12.5 65.5q0 36 12.5 66.5t35 53t54 35.5t68.5 13zM195 622q-42 0 -68.5 -28t-26.5 -71q0 -42 26 -70t68 -28q43 0 70 28t27 70
q0 43 -27 71t-69 28z" />
    <glyph glyph-name="cedilla" unicode="&#xb8;" horiz-adv-x="400" 
d="M195 -46q39 0 64 -22.5t25 -58.5t-25.5 -60.5t-64.5 -24.5t-64 22.5t-29 60.5h56q2 -16 12.5 -24t25.5 -8t25.5 9.5t10.5 24.5q0 14 -10 24t-27 10h-73l51 102h52z" />
    <glyph glyph-name="ogonek" unicode="&#x2db;" horiz-adv-x="400" 
d="M254 0q-35 -14 -51.5 -36.5t-16.5 -47.5q0 -20 12.5 -30t35.5 -10q12 0 22 2t18 4q9 3 15 7v-50q-8 -5 -18 -9q-9 -4 -21 -6.5t-29 -2.5q-45 0 -73 22t-28 60q0 36 23.5 63t56.5 37l45 13z" />
    <glyph glyph-name="zero" unicode="0" horiz-adv-x="560" 
d="M36 456q0 50 18 93t50.5 75t77.5 50.5t98 18.5t98 -18.5t77.5 -50.5t50.5 -75t18 -93v-228q0 -51 -18 -94.5t-50.5 -75.5t-77.5 -50.5t-98 -18.5t-98 18.5t-77.5 50.5t-50.5 75.5t-18 94.5v228zM433 456q0 33 -11.5 61t-32 48t-48.5 31t-61 11t-61 -11t-48.5 -31t-32 -48
t-11.5 -61v-228q0 -34 11.5 -62t32 -48.5t48.5 -32t61 -11.5t61 11.5t48.5 32t32 48.5t11.5 62v228z" />
    <glyph glyph-name="one" unicode="1" horiz-adv-x="244" 
d="M112 0v598h-81v87h175v-685h-94z" />
    <glyph glyph-name="two" unicode="2" horiz-adv-x="530" 
d="M37 0v84l264 224q24 20 42.5 38t31.5 38.5t20 44t7 53.5q0 56 -36.5 90.5t-97.5 34.5q-64 0 -101 -27.5t-64 -71.5l-75 46q19 31 42.5 56.5t52.5 44t65.5 29t80.5 10.5q52 0 94 -16.5t71.5 -45t45.5 -66.5t16 -82q0 -41 -10 -74t-28 -61t-43 -53t-55 -50l-192 -164h332
v-82h-463z" />
    <glyph glyph-name="three" unicode="3" horiz-adv-x="543" 
d="M265 -9q-88 0 -146.5 39t-93.5 102l78 47q25 -45 62 -73t100 -28q35 0 64 11t49.5 31t31.5 48t11 63q0 69 -41.5 106.5t-113.5 37.5q-26 0 -50.5 -8t-39.5 -18l-42 62l211 190h-281v84h412v-81l-172 -152q100 -11 154.5 -69.5t54.5 -149.5q0 -51 -18 -95.5t-50.5 -77
t-78.5 -51t-101 -18.5z" />
    <glyph glyph-name="four" unicode="4" horiz-adv-x="555" 
d="M529 234v-85h-77v-149h-92v149h-334v85l320 453h106v-453h77zM360 234v324l-228 -324h228z" />
    <glyph glyph-name="five" unicode="5" horiz-adv-x="543" 
d="M266 -9q-88 0 -146.5 39t-93.5 102l77 46q26 -45 63 -72.5t100 -27.5q71 0 113.5 42.5t42.5 111.5t-40.5 108t-112.5 39q-51 0 -85.5 -24.5t-57.5 -59.5l-79 27l70 363h348v-87h-282l-36 -183q20 18 56 32.5t78 14.5q53 0 96 -16.5t73.5 -46.5t47 -72t16.5 -93t-18 -95.5
t-50.5 -77.5t-78.5 -51.5t-101 -18.5z" />
    <glyph glyph-name="six" unicode="6" horiz-adv-x="553" 
d="M278 -10q-54 0 -99.5 18.5t-78 51.5t-51 77.5t-18.5 97.5q0 44 11.5 83t31.5 71l178 296h101l-140 -224q16 5 35 9t40 4q51 0 94.5 -18t75 -50.5t49.5 -76.5t18 -95t-18.5 -95.5t-51.5 -77.5t-78.5 -52t-98.5 -19zM278 73q34 0 63 12t50 33.5t33 50.5t12 63t-12 63.5
t-33 51t-50 33.5t-63 12t-63 -12t-50.5 -33.5t-33.5 -51t-12 -63.5t12 -63t33.5 -50.5t50.5 -33.5t63 -12z" />
    <glyph glyph-name="seven" unicode="7" horiz-adv-x="496" 
d="M198 0h-99l274 598h-348v87h447v-84z" />
    <glyph glyph-name="eight" unicode="8" horiz-adv-x="531" 
d="M263 -11q-49 0 -91 16t-73 45t-48.5 68.5t-17.5 87.5q0 56 28.5 101t79.5 74q-31 23 -49.5 58.5t-18.5 76.5q0 39 14.5 71.5t40 56t60 36.5t75.5 13q42 0 77 -13.5t60.5 -37.5t40 -56.5t14.5 -69.5q0 -82 -69 -136q51 -28 79.5 -73.5t28.5 -100.5q0 -46 -17.5 -85.5
t-48.5 -69t-73.5 -46t-91.5 -16.5zM263 416q47 0 76 29t29 71q0 45 -29.5 73.5t-75.5 28.5q-45 0 -74.5 -28.5t-29.5 -73.5q0 -43 29.5 -71.5t74.5 -28.5zM263 67q31 0 57 10t45 28.5t29.5 44t10.5 55.5q0 28 -10.5 52.5t-29.5 42.5t-45 28.5t-57 10.5q-30 0 -56 -10.5
t-45 -28.5t-29.5 -42.5t-10.5 -52.5q0 -30 10.5 -55.5t29.5 -44t45 -28.5t56 -10z" />
    <glyph glyph-name="nine" unicode="9" horiz-adv-x="553" 
d="M201 0l138 223q-16 -5 -35 -9t-39 -4q-51 0 -94.5 18t-75 50.5t-49.5 76.5t-18 95t18.5 95.5t51.5 77.5t78.5 52t98.5 19q54 0 99.5 -18.5t78 -51.5t51 -78t18.5 -97q0 -44 -12.5 -83t-31.5 -71l-177 -295h-100zM275 293q34 0 63 12t50 33.5t33 50.5t12 63t-12 63
t-33 50.5t-50 33.5t-63 12q-35 0 -64 -12t-50 -33.5t-33 -50.5t-12 -63t12 -63t33 -50.5t50 -33.5t64 -12z" />
    <glyph glyph-name="zero.slash" horiz-adv-x="560" 
d="M36 456q0 50 18 93t50.5 75t77.5 50.5t98 18.5t98 -18.5t77.5 -50.5t50.5 -75t18 -93v-228q0 -51 -18 -94.5t-50.5 -75.5t-77.5 -50.5t-98 -18.5t-98 18.5t-77.5 50.5t-50.5 75.5t-18 94.5v228zM127 228q0 -30 9 -55t25 -45l181 468q-30 11 -62 11q-33 0 -61 -11
t-48.5 -31t-32 -48t-11.5 -61v-228zM280 74q33 0 61 11.5t48.5 32t32 48.5t11.5 62v228q0 29 -8.5 53t-23.5 43l-180 -468q14 -5 28.5 -7.5t30.5 -2.5z" />
    <glyph glyph-name="four.alt" horiz-adv-x="555" 
d="M132 234h228v198h92v-198h77v-85h-77v-149h-92v149h-334v85l320 453h106z" />
    <glyph glyph-name="zero.dnom" horiz-adv-x="327" 
d="M20 246q0 28 10.5 52t30 41t45.5 27t58 10q31 0 57.5 -10t45.5 -27t29.5 -41t10.5 -52v-120q0 -28 -10.5 -52t-29.5 -42t-45.5 -28t-57.5 -10q-32 0 -58 10t-45.5 28t-30 42t-10.5 52v120zM236 246q0 29 -20.5 47.5t-51.5 18.5q-32 0 -52 -18.5t-20 -47.5v-120
q0 -29 20 -48t52 -19q31 0 51.5 19t20.5 48v120z" />
    <glyph glyph-name="one.dnom" horiz-adv-x="157" 
d="M64 0v305h-44v65h117v-370h-73z" />
    <glyph glyph-name="two.dnom" horiz-adv-x="320" 
d="M17 290q23 39 58 63t88 24q30 0 55 -9.5t42.5 -25.5t27 -37.5t9.5 -45.5q0 -44 -23 -73t-55 -54l-84 -69h163v-63h-272v59l147 120q23 19 36.5 36t13.5 43q0 23 -16.5 38.5t-45.5 15.5q-34 0 -52.5 -16t-33.5 -40z" />
    <glyph glyph-name="three.dnom" horiz-adv-x="326" 
d="M201 243q49 -8 77 -38t28 -79q0 -29 -10.5 -53t-29.5 -41.5t-45.5 -27.5t-59.5 -10q-52 0 -86 22t-56 59l62 31q13 -23 31.5 -36.5t48.5 -13.5q33 0 53.5 19.5t20.5 48.5q0 32 -19.5 49t-53.5 17q-17 0 -29.5 -5.5t-20.5 -12.5l-33 44l111 95h-144v61h240v-56z" />
    <glyph glyph-name="four.dnom" horiz-adv-x="335" 
d="M315 137v-63h-42v-74h-72v74h-181v59l176 238h77v-234h42zM201 137v133l-99 -133h99z" />
    <glyph glyph-name="five.dnom" horiz-adv-x="329" 
d="M124 309l-16 -77q12 8 29.5 13t36.5 5q63 0 98 -33t35 -90q0 -29 -10.5 -53t-29.5 -42t-45.5 -28t-59.5 -10q-52 0 -86 22t-56 59l62 31q13 -23 31.5 -36.5t48.5 -13.5q33 0 53.5 20t20.5 50q0 32 -19.5 49t-52.5 17q-26 0 -43 -13t-27 -28l-63 18l41 202h210v-62h-158z
" />
    <glyph glyph-name="six.dnom" horiz-adv-x="335" 
d="M154 253q9 3 20 3q30 0 55.5 -10t44 -27t28.5 -41t10 -52t-11 -52t-30 -42t-45.5 -28t-57.5 -10q-32 0 -58.5 10t-46 28t-30.5 42.5t-11 53.5q0 27 8.5 49.5t19.5 39.5l103 153h81zM168 196q-33 0 -54 -20t-21 -51q0 -30 21 -50t54 -20q32 0 53.5 20t21.5 50
q0 31 -21.5 51t-53.5 20z" />
    <glyph glyph-name="seven.dnom" horiz-adv-x="304" 
d="M132 0h-78l149 305h-183v65h264v-55z" />
    <glyph glyph-name="eight.dnom" horiz-adv-x="317" 
d="M159 375q54 0 89.5 -29t35.5 -75q0 -30 -15 -48.5t-24 -24.5q7 -3 16 -10.5t17 -18t13.5 -25.5t5.5 -33q0 -26 -10.5 -47.5t-29 -37t-43.5 -24t-55 -8.5t-55 8.5t-44 24t-29.5 37t-10.5 47.5q0 18 6 32.5t14 25.5t17.5 18.5t16.5 10.5q-5 3 -12 9t-13 15t-10.5 21
t-4.5 28q0 45 35.5 74.5t89.5 29.5zM159 314q-23 0 -38 -12.5t-15 -32.5q0 -18 14 -31.5t37 -13.5q24 0 39 13.5t15 31.5q0 20 -14.5 32.5t-37.5 12.5zM159 167q-30 0 -48.5 -16t-18.5 -39q0 -25 19 -40t48 -15q28 0 47 15t19 40q0 23 -18.5 39t-47.5 16z" />
    <glyph glyph-name="nine.dnom" horiz-adv-x="330" 
d="M178 117q-5 -2 -9.5 -2h-10.5q-30 0 -55.5 9.5t-44 27t-28.5 41t-10 51.5t11 52t30.5 42t46 28t57.5 10t58 -10t46 -28t30 -42.5t11 -53.5q0 -27 -8.5 -49.5t-19.5 -39.5l-103 -153h-81zM165 316q-32 0 -53.5 -20.5t-21.5 -50.5q0 -31 21.5 -51t53.5 -20t53 20t21 51
t-21 51t-53 20z" />
    <glyph glyph-name="zero.sups" unicode="&#x2070;" horiz-adv-x="327" 
d="M20 561q0 28 10.5 52t30 41t45.5 27t58 10q31 0 57.5 -10t45.5 -27t29.5 -41t10.5 -52v-120q0 -28 -10.5 -52t-29.5 -42t-45.5 -28t-57.5 -10q-32 0 -58 10t-45.5 28t-30 42t-10.5 52v120zM236 561q0 29 -20.5 47.5t-51.5 18.5q-32 0 -52 -18.5t-20 -47.5v-120
q0 -29 20 -48t52 -19q31 0 51.5 19t20.5 48v120z" />
    <glyph glyph-name="onesuperior" unicode="&#xb9;" horiz-adv-x="157" 
d="M64 315v305h-44v65h117v-370h-73z" />
    <glyph glyph-name="twosuperior" unicode="&#xb2;" horiz-adv-x="320" 
d="M17 605q23 39 58 63t88 24q30 0 55 -9.5t42.5 -25.5t27 -37.5t9.5 -45.5q0 -44 -23 -73t-55 -54l-84 -69h163v-63h-272v59l147 120q23 19 36.5 36t13.5 43q0 23 -16.5 38.5t-45.5 15.5q-34 0 -52.5 -16t-33.5 -40z" />
    <glyph glyph-name="threesuperior" unicode="&#xb3;" horiz-adv-x="326" 
d="M201 558q49 -8 77 -38t28 -79q0 -29 -10.5 -53t-29.5 -41.5t-45.5 -27.5t-59.5 -10q-52 0 -86 22t-56 59l62 31q13 -23 31.5 -36.5t48.5 -13.5q33 0 53.5 19.5t20.5 48.5q0 32 -19.5 49t-53.5 17q-17 0 -29.5 -5.5t-20.5 -12.5l-33 44l111 95h-144v61h240v-56z" />
    <glyph glyph-name="four.sups" unicode="&#x2074;" horiz-adv-x="335" 
d="M315 452v-63h-42v-74h-72v74h-181v59l176 238h77v-234h42zM201 452v133l-99 -133h99z" />
    <glyph glyph-name="five.sups" unicode="&#x2075;" horiz-adv-x="329" 
d="M124 624l-16 -77q12 8 29.5 13t36.5 5q63 0 98 -33t35 -90q0 -29 -10.5 -53t-29.5 -42t-45.5 -28t-59.5 -10q-52 0 -86 22t-56 59l62 31q13 -23 31.5 -36.5t48.5 -13.5q33 0 53.5 20t20.5 50q0 32 -19.5 49t-52.5 17q-26 0 -43 -13t-27 -28l-63 18l41 202h210v-62h-158z
" />
    <glyph glyph-name="six.sups" unicode="&#x2076;" horiz-adv-x="335" 
d="M154 568q9 3 20 3q30 0 55.5 -10t44 -27t28.5 -41t10 -52t-11 -52t-30 -42t-45.5 -28t-57.5 -10q-32 0 -58.5 10t-46 28t-30.5 42.5t-11 53.5q0 27 8.5 49.5t19.5 39.5l103 153h81zM168 511q-33 0 -54 -20t-21 -51q0 -30 21 -50t54 -20q32 0 53.5 20t21.5 50
q0 31 -21.5 51t-53.5 20z" />
    <glyph glyph-name="seven.sups" unicode="&#x2077;" horiz-adv-x="304" 
d="M132 315h-78l149 305h-183v65h264v-55z" />
    <glyph glyph-name="eight.sups" unicode="&#x2078;" horiz-adv-x="317" 
d="M159 690q54 0 89.5 -29t35.5 -75q0 -30 -15 -48.5t-24 -24.5q7 -3 16 -10.5t17 -18t13.5 -25.5t5.5 -33q0 -26 -10.5 -47.5t-29 -37t-43.5 -24t-55 -8.5t-55 8.5t-44 24t-29.5 37t-10.5 47.5q0 18 6 32.5t14 25.5t17.5 18.5t16.5 10.5q-5 3 -12 9t-13 15t-10.5 21
t-4.5 28q0 45 35.5 74.5t89.5 29.5zM159 629q-23 0 -38 -12.5t-15 -32.5q0 -18 14 -31.5t37 -13.5q24 0 39 13.5t15 31.5q0 20 -14.5 32.5t-37.5 12.5zM159 482q-30 0 -48.5 -16t-18.5 -39q0 -25 19 -40t48 -15q28 0 47 15t19 40q0 23 -18.5 39t-47.5 16z" />
    <glyph glyph-name="nine.sups" unicode="&#x2079;" horiz-adv-x="330" 
d="M178 432q-5 -2 -9.5 -2h-10.5q-30 0 -55.5 9.5t-44 27t-28.5 41t-10 51.5t11 52t30.5 42t46 28t57.5 10t58 -10t46 -28t30 -42.5t11 -53.5q0 -27 -8.5 -49.5t-19.5 -39.5l-103 -153h-81zM165 631q-32 0 -53.5 -20.5t-21.5 -50.5q0 -31 21.5 -51t53.5 -20t53 20t21 51
t-21 51t-53 20z" />
    <glyph glyph-name="onequarter" unicode="&#xbc;" horiz-adv-x="635" 
d="M615 137v-63h-42v-74h-72v74h-181v59l176 238h77v-234h42zM501 137v133l-99 -133h99zM64 315v305h-44v65h117v-370h-73zM77 0l305 685h86l-305 -685h-86z" />
    <glyph glyph-name="fraction" unicode="&#x2044;" horiz-adv-x="20" 
d="M-173 0l305 685h86l-305 -685h-86z" />
    <glyph glyph-name="onehalf" unicode="&#xbd;" horiz-adv-x="670" 
d="M367 290q23 39 58 63t88 24q30 0 55 -9.5t42.5 -25.5t27 -37.5t9.5 -45.5q0 -44 -23 -73t-55 -54l-84 -69h163v-63h-272v59l147 120q23 19 36.5 36t13.5 43q0 23 -16.5 38.5t-45.5 15.5q-34 0 -52.5 -16t-33.5 -40zM64 315v305h-44v65h117v-370h-73zM77 0l305 685h86
l-305 -685h-86z" />
    <glyph glyph-name="threequarters" unicode="&#xbe;" horiz-adv-x="770" 
d="M750 137v-63h-42v-74h-72v74h-181v59l176 238h77v-234h42zM636 137v133l-99 -133h99zM201 558q49 -8 77 -38t28 -79q0 -29 -10.5 -53t-29.5 -41.5t-45.5 -27.5t-59.5 -10q-52 0 -86 22t-56 59l62 31q13 -23 31.5 -36.5t48.5 -13.5q33 0 53.5 19.5t20.5 48.5
q0 32 -19.5 49t-53.5 17q-17 0 -29.5 -5.5t-20.5 -12.5l-33 44l111 95h-144v61h240v-56zM212 0l305 685h86l-305 -685h-86z" />
    <glyph glyph-name="uni2153" unicode="&#x2153;" horiz-adv-x="681" 
d="M556 243q49 -8 77 -38t28 -79q0 -29 -10.5 -53t-29.5 -41.5t-45.5 -27.5t-59.5 -10q-52 0 -86 22t-56 59l62 31q13 -23 31.5 -36.5t48.5 -13.5q33 0 53.5 19.5t20.5 48.5q0 32 -19.5 49t-53.5 17q-17 0 -29.5 -5.5t-20.5 -12.5l-33 44l111 95h-144v61h240v-56zM64 315
v305h-44v65h117v-370h-73zM77 0l305 685h86l-305 -685h-86z" />
    <glyph glyph-name="uni2154" unicode="&#x2154;" horiz-adv-x="841" 
d="M716 243q49 -8 77 -38t28 -79q0 -29 -10.5 -53t-29.5 -41.5t-45.5 -27.5t-59.5 -10q-52 0 -86 22t-56 59l62 31q13 -23 31.5 -36.5t48.5 -13.5q33 0 53.5 19.5t20.5 48.5q0 32 -19.5 49t-53.5 17q-17 0 -29.5 -5.5t-20.5 -12.5l-33 44l111 95h-144v61h240v-56zM17 605
q23 39 58 63t88 24q30 0 55 -9.5t42.5 -25.5t27 -37.5t9.5 -45.5q0 -44 -23 -73t-55 -54l-84 -69h163v-63h-272v59l147 120q23 19 36.5 36t13.5 43q0 23 -16.5 38.5t-45.5 15.5q-34 0 -52.5 -16t-33.5 -40zM237 0l305 685h86l-305 -685h-86z" />
    <glyph glyph-name="percent" unicode="%" horiz-adv-x="777" 
d="M470 246q0 28 10.5 52t30 41t45.5 27t58 10q31 0 57.5 -10t45.5 -27t29.5 -41t10.5 -52v-120q0 -28 -10.5 -52t-29.5 -42t-45.5 -28t-57.5 -10q-32 0 -58 10t-45.5 28t-30 42t-10.5 52v120zM686 246q0 29 -20.5 47.5t-51.5 18.5q-32 0 -52 -18.5t-20 -47.5v-120
q0 -29 20 -48t52 -19q31 0 51.5 19t20.5 48v120zM20 561q0 28 10.5 52t30 41t45.5 27t58 10q31 0 57.5 -10t45.5 -27t29.5 -41t10.5 -52v-120q0 -28 -10.5 -52t-29.5 -42t-45.5 -28t-57.5 -10q-32 0 -58 10t-45.5 28t-30 42t-10.5 52v120zM236 561q0 29 -20.5 47.5
t-51.5 18.5q-32 0 -52 -18.5t-20 -47.5v-120q0 -29 20 -48t52 -19q31 0 51.5 19t20.5 48v120zM192 0l305 685h86l-305 -685h-86z" />
    <glyph glyph-name="underscore" unicode="_" horiz-adv-x="500" 
d="M-1 -147v82h502v-82h-502z" />
    <glyph glyph-name="hyphen" unicode="-" horiz-adv-x="353" 
d="M36 244v82h281v-82h-281z" />
    <glyph glyph-name="figuredash" unicode="&#x2012;" horiz-adv-x="440" 
d="M25 245v82h390v-82h-390z" />
    <glyph glyph-name="endash" unicode="&#x2013;" horiz-adv-x="440" 
d="M25 245v82h390v-82h-390z" />
    <glyph glyph-name="emdash" unicode="&#x2014;" horiz-adv-x="829" 
d="M25 245v82h779v-82h-779z" />
    <glyph glyph-name="space.em" horiz-adv-x="1000" 
 />
    <glyph glyph-name="space.en" horiz-adv-x="500" 
 />
    <glyph glyph-name="space.thin" horiz-adv-x="0" 
 />
    <glyph glyph-name="space.half" horiz-adv-x="150" 
 />
    <glyph glyph-name="parenleft" unicode="(" horiz-adv-x="283" 
d="M244 654q-64 -74 -97 -176.5t-33 -212.5t32 -212t98 -179l-67 -41q-72 81 -112 194t-40 238q0 62 10.5 122.5t30.5 116t47.5 104.5t62.5 88z" />
    <glyph glyph-name="parenright" unicode=")" horiz-adv-x="283" 
d="M39 -125q64 74 97 176.5t33 212.5t-32 212t-98 179l67 41q72 -81 112 -194t40 -238q0 -62 -10.5 -122.5t-30.5 -116t-48 -104.5t-62 -88z" />
    <glyph glyph-name="bracketleft" unicode="[" horiz-adv-x="265" 
d="M127 606v-685h113v-81h-200v845h200v-79h-113z" />
    <glyph glyph-name="bracketright" unicode="]" horiz-adv-x="265" 
d="M25 606v79h200v-845h-200v81h113v685h-113z" />
    <glyph glyph-name="braceleft" unicode="{" horiz-adv-x="301" 
d="M242 608q-48 0 -74 -21t-26 -59q0 -26 8.5 -47.5t18 -42.5t18 -43.5t8.5 -49.5q0 -30 -14.5 -51t-33.5 -31q16 -8 32 -28t16 -54q0 -27 -8.5 -49.5t-18 -43.5t-18 -42.5t-8.5 -47.5q0 -38 26 -58.5t74 -20.5h34v-78h-55q-77 0 -122.5 39t-45.5 104q0 32 9 57t20.5 47
t20.5 42t9 43q0 26 -15 41t-52 15h-15v68h15q37 0 52 15t15 41q0 22 -9 42.5t-20.5 42.5t-20.5 47t-9 57q0 66 45.5 105t122.5 39h55v-78h-34z" />
    <glyph glyph-name="braceright" unicode="}" horiz-adv-x="301" 
d="M59 -81q48 0 74 21t26 59q0 26 -8.5 47.5t-18 42.5t-18 43.5t-8.5 49.5q0 30 14.5 51t33.5 31q-16 8 -32 28t-16 54q0 27 8.5 49.5t18 43.5t18 42.5t8.5 47.5q0 38 -26 58.5t-74 20.5h-34v78h55q77 0 122.5 -39t45.5 -104q0 -32 -9 -57.5t-20.5 -47t-20.5 -42t-9 -42.5
q0 -26 15 -41t52 -15h15v-68h-15q-37 0 -52 -15t-15 -41q0 -23 9 -43t20.5 -42t20.5 -47t9 -57q0 -66 -45.5 -105t-122.5 -39h-55v78h34z" />
    <glyph glyph-name="quotesingle" unicode="'" horiz-adv-x="160" 
d="M44 506l-10 179h92l-12 -179h-70z" />
    <glyph glyph-name="quotedbl" unicode="&#x22;" horiz-adv-x="283" 
d="M46 506l-11 179h91l-12 -179h-68zM167 506l-10 179h91l-12 -179h-69z" />
    <glyph glyph-name="quoteleft" unicode="&#x2018;" horiz-adv-x="160" 
d="M65 685h58l-25 -82h28v-95h-90v79z" />
    <glyph glyph-name="comma" unicode="," horiz-adv-x="160" 
d="M96 -83h-58l25 83h-28v95h90v-79z" />
    <glyph glyph-name="quotedblleft" unicode="&#x201c;" horiz-adv-x="282" 
d="M187 685h55l-25 -82h28v-95h-87v79zM64 685h55l-25 -82h28v-95h-87v79z" />
    <glyph glyph-name="quotedblright" unicode="&#x201d;" horiz-adv-x="280" 
d="M93 508h-55l24 82h-27v95h87v-79zM216 508h-55l24 82h-27v95h87v-79z" />
    <glyph glyph-name="quotesinglbase" unicode="&#x201a;" horiz-adv-x="160" 
d="M96 -83h-58l25 83h-28v95h90v-79z" />
    <glyph glyph-name="quotedblbase" unicode="&#x201e;" horiz-adv-x="280" 
d="M93 -83h-55l24 83h-27v95h87v-79zM216 -83h-55l24 83h-27v95h87v-79z" />
    <glyph glyph-name="guilsinglleft" unicode="&#x2039;" horiz-adv-x="277" 
d="M247 74h-89l-128 212l128 215h89l-128 -215z" />
    <glyph glyph-name="guilsinglright" unicode="&#x203a;" horiz-adv-x="277" 
d="M30 501h89l128 -215l-128 -212h-89l128 212z" />
    <glyph glyph-name="guillemotleft" unicode="&#xab;" horiz-adv-x="445" 
d="M242 74h-85l-127 212l127 215h85l-126 -215zM402 74h-85l-128 212l128 215h85l-128 -215z" />
    <glyph glyph-name="guillemotright" unicode="&#xbb;" horiz-adv-x="432" 
d="M190 501h86l126 -215l-126 -212h-86l127 212zM30 501h86l128 -215l-128 -212h-86l128 212z" />
    <glyph glyph-name="asterisk" unicode="*" horiz-adv-x="350" 
d="M292 638l29 -51l-88 -54l88 -53l-29 -52l-87 53v-100h-60v99l-87 -52l-29 52l87 53l-87 54l29 51l87 -52v99h60v-99z" />
    <glyph glyph-name="dagger" unicode="&#x2020;" horiz-adv-x="406" 
d="M382 447v-81h-136v-509h-86v509h-136v81h136v183h86v-183h136z" />
    <glyph glyph-name="daggerdbl" unicode="&#x2021;" horiz-adv-x="406" 
d="M382 445v-81h-136v-232h136v-81h-136v-194h-86v194h-136v81h136v232h-136v81h136v185h86v-185h136z" />
    <glyph glyph-name="period" unicode="." horiz-adv-x="160" 
d="M35 0v95h90v-95h-90z" />
    <glyph glyph-name="colon" unicode=":" horiz-adv-x="160" 
d="M35 0v95h90v-95h-90zM35 411v95h90v-95h-90z" />
    <glyph glyph-name="semicolon" unicode=";" horiz-adv-x="160" 
d="M35 411v95h90v-95h-90zM96 -83h-58l25 83h-28v95h90v-79z" />
    <glyph glyph-name="ellipsis" unicode="&#x2026;" horiz-adv-x="480" 
d="M35 0v95h90v-95h-90zM195 0v95h90v-95h-90zM355 0v95h90v-95h-90z" />
    <glyph glyph-name="periodcentered" unicode="&#xb7;" horiz-adv-x="160" 
d="M35 237v95h90v-95h-90z" />
    <glyph glyph-name="bullet" unicode="&#x2022;" horiz-adv-x="286" 
d="M143 398q24 0 44.5 -8.5t36 -23.5t24 -35.5t8.5 -44.5t-8.5 -44.5t-24 -35.5t-36 -23.5t-44.5 -8.5t-44.5 8.5t-36 23.5t-24 35.5t-8.5 44.5t8.5 44.5t24 35.5t36 23.5t44.5 8.5z" />
    <glyph glyph-name="exclam" unicode="!" horiz-adv-x="172" 
d="M130 173h-87v512h87v-512zM43 0v92h87v-92h-87z" />
    <glyph glyph-name="exclamdown" unicode="&#xa1;" horiz-adv-x="172" 
d="M130 685v-92h-87v92h87zM43 512h87v-512h-87v512z" />
    <glyph glyph-name="question" unicode="?" horiz-adv-x="476" 
d="M15 506q6 40 23 74.5t45.5 59.5t67 39t86.5 14q49 0 88.5 -16t67.5 -43.5t43 -65.5t15 -81q0 -47 -15.5 -83t-42 -61.5t-61 -41.5t-72.5 -22v-106h-87v174q39 0 74 6.5t61.5 22.5t42.5 42.5t16 67.5q0 57 -35.5 92t-95.5 35t-92.5 -31t-41.5 -76h-87zM173 0v92h87v-92
h-87z" />
    <glyph glyph-name="questiondown" unicode="&#xbf;" horiz-adv-x="463" 
d="M298 685v-92h-87v92h87zM456 179q-6 -40 -23 -74.5t-45.5 -59.5t-67 -39t-86.5 -14q-49 0 -88.5 16t-67.5 43.5t-43 65t-15 81.5q0 46 15.5 82.5t41.5 62t61 41.5t73 22v106h87v-174q-39 0 -74 -6.5t-61.5 -22.5t-42.5 -43t-16 -67q0 -57 35.5 -92t95.5 -35t92.5 31
t41.5 76h87z" />
    <glyph glyph-name="slash" unicode="/" horiz-adv-x="298" 
d="M14 0l180 685h90l-180 -685h-90z" />
    <glyph glyph-name="backslash" unicode="\" horiz-adv-x="298" 
d="M194 0l-180 685h90l180 -685h-90z" />
    <glyph glyph-name="bar" unicode="|" horiz-adv-x="159" 
d="M36 -143v828h87v-828h-87z" />
    <glyph glyph-name="brokenbar" unicode="&#xa6;" horiz-adv-x="159" 
d="M36 361v324h87v-324h-87zM36 -143v323h87v-323h-87z" />
    <glyph glyph-name="at" unicode="@" horiz-adv-x="760" 
d="M389 -71q-77 0 -142.5 27t-113.5 73.5t-75.5 110t-27.5 136.5q0 74 26 139.5t73 114t114 76.5t149 28t145 -26t106 -69.5t65 -100.5t22 -119q0 -52 -12.5 -93t-34 -69.5t-50.5 -44t-62 -15.5q-29 0 -51 11.5t-33 31.5q-20 -25 -50 -39t-72 -14q-38 0 -71.5 14t-58.5 39
t-39.5 59t-14.5 74t14.5 74t39.5 59t58.5 39.5t71.5 14.5q28 0 49 -7.5t35 -15.5q17 -11 29 -23v40h81v-266q0 -28 27 -28q13 0 26.5 10t24.5 30t18 49.5t7 68.5q0 48 -17 94t-50.5 81.5t-84.5 57t-118 21.5q-68 0 -122 -23.5t-92 -63.5t-58.5 -94t-20.5 -114q0 -61 22 -113
t61 -89.5t92 -59t116 -21.5q53 0 100.5 12.5t89.5 39.5l31 -56q-45 -32 -103.5 -46.5t-118.5 -14.5zM479 273q0 23 -8.5 43.5t-23.5 35.5t-35 23.5t-43 8.5t-42 -8.5t-33.5 -23.5t-22.5 -35.5t-8 -43.5q0 -24 8 -44.5t22.5 -35.5t33.5 -23.5t42 -8.5q24 0 44 8.5t34.5 23.5
t23 35.5t8.5 44.5z" />
    <glyph glyph-name="ampersand" unicode="&#x26;" horiz-adv-x="672" 
d="M191 519q0 -37 16.5 -67.5t42.5 -57.5q28 10 53 21.5t44 27t30 36t11 49.5q0 42 -26.5 66.5t-70.5 24.5q-43 0 -71.5 -27t-28.5 -73zM221 307q-23 -10 -43 -21.5t-35 -26.5t-23.5 -34t-8.5 -44q0 -54 38 -85.5t105 -31.5q48 0 86.5 14.5t70.5 40.5zM470 64
q-43 -35 -96 -55t-122 -20q-52 0 -94.5 13.5t-73 38.5t-47 60.5t-16.5 79.5q0 38 11.5 67t32 51t47.5 38t57 28q-26 31 -45.5 69.5t-19.5 79.5q0 40 14 73.5t39 57.5t60 37.5t76 13.5q39 0 72 -12t56.5 -33.5t37 -51.5t13.5 -66q0 -43 -14 -74t-37.5 -53t-54 -37.5
t-62.5 -28.5l166 -158q38 55 58 121t24 129h85q-5 -75 -31.5 -157.5t-77.5 -150.5l132 -124h-124z" />
    <glyph glyph-name="dollar" unicode="$" horiz-adv-x="535" 
d="M235 608q-41 -8 -64.5 -35t-23.5 -67q0 -45 25 -69t63 -38v209zM311 68q48 7 73.5 35t25.5 72q0 49 -28.5 73t-70.5 38v-218zM311 377q35 -9 70 -21t62.5 -33t44.5 -54t17 -85q0 -83 -53.5 -133.5t-140.5 -60.5v-83h-76v83q-94 9 -146.5 60t-59.5 136h95
q5 -44 32.5 -75.5t78.5 -41.5v238q-34 9 -67 21.5t-59 34t-42 54.5t-16 83q0 78 49.5 128.5t134.5 59.5v97h76v-97q88 -10 135.5 -60.5t52.5 -126.5h-95q-1 17 -6.5 34t-16 31.5t-28 25.5t-42.5 16v-231z" />
    <glyph glyph-name="cent" unicode="&#xa2;" horiz-adv-x="570" 
d="M346 80q52 6 85.5 32t57.5 66l75 -48q-35 -57 -88 -94t-130 -45v-83h-75v83q-56 7 -101 31.5t-77.5 62.5t-50 87t-17.5 104t17.5 103.5t50 86t77.5 62t101 30.5v89h75v-89q78 -8 130.5 -44.5t87.5 -93.5l-76 -47q-23 38 -56.5 64t-85.5 34v-391zM271 469
q-69 -14 -109.5 -66t-40.5 -127q0 -38 10.5 -71t30 -58.5t47.5 -42.5t62 -23v388z" />
    <glyph glyph-name="sterling" unicode="&#xa3;" horiz-adv-x="569" 
d="M219 136q27 -5 51.5 -15t48.5 -19.5t48 -16.5t50 -7q27 0 49.5 8t39.5 19q19 11 36 27v-88q-15 -16 -36 -28q-18 -11 -44.5 -19.5t-61.5 -8.5q-36 0 -66.5 9.5t-58.5 21.5t-55.5 21.5t-58.5 9.5q-27 0 -49.5 -8.5t-39.5 -18.5q-19 -11 -35 -26v89q10 9 23 18
q11 8 27.5 16t38.5 13v142h-89v87h89v120q0 45 14.5 83.5t42.5 67.5t68 45.5t91 16.5q74 0 123 -30t79 -81l-79 -45q-20 31 -48.5 49.5t-73.5 18.5q-58 0 -91 -35.5t-33 -92.5v-117h181v-87h-181v-139z" />
    <glyph glyph-name="yen" unicode="&#xa5;" horiz-adv-x="514" 
d="M483 375v-79h-177v-65h177v-79h-177v-152h-95v152h-177v79h177v65h-177v79h153l-175 310h105l142 -267l141 267h104l-174 -310h153z" />
    <glyph glyph-name="Euro" unicode="&#x20ac;" horiz-adv-x="579" 
d="M214 228q0 -80 33.5 -114t91.5 -34q45 0 74 18.5t49 49.5l79 -46q-31 -50 -80 -80.5t-123 -30.5q-103 0 -160 61t-57 176h-89v79h89v73h-89v80h89q0 115 57 176t160 61q74 0 123 -30.5t80 -80.5l-79 -46q-20 31 -49 50t-74 19q-58 0 -91.5 -34.5t-33.5 -114.5h182v-80
h-182v-73h182v-79h-182v0z" />
    <glyph glyph-name="numbersign" unicode="#" horiz-adv-x="585" 
d="M367 433h-140l-15 -181h140zM345 165h-140l-13 -165h-85l13 165h-87v87h94l14 181h-108v87h115l13 165h86l-13 -165h140l14 165h85l-13 -165h93v-87h-101l-14 -181h115v-87h-123l-13 -165h-86z" />
    <glyph glyph-name="florin" unicode="&#x192;" horiz-adv-x="334" 
d="M271 609q-17 0 -32.5 -4t-27 -13.5t-18 -25.5t-6.5 -40v-20h124v-78h-124v-421q0 -49 -14 -83.5t-38 -56t-56 -31.5t-69 -10v80q38 0 64 22t26 80v420h-77v78h77v20q0 84 47.5 121.5t122.5 37.5h41v-76h-40z" />
    <glyph glyph-name="asciicircum" unicode="^" horiz-adv-x="440" 
d="M322 90l-102 276l-100 -276h-94l153 390h84l152 -390h-93z" />
    <glyph glyph-name="asciitilde" unicode="~" horiz-adv-x="440" 
d="M138 354q28 0 50.5 -7t43.5 -15t41.5 -15t44.5 -7q30 0 56.5 14.5t40.5 28.5v-77q-14 -19 -43 -37.5t-69 -18.5q-28 0 -50.5 7t-43.5 15t-41.5 15t-44.5 7q-30 0 -56.5 -14.5t-40.5 -28.5v77q14 19 43 37.5t69 18.5z" />
    <glyph glyph-name="copyright" unicode="&#xa9;" horiz-adv-x="627" 
d="M314 695q63 0 116.5 -22.5t92.5 -61.5t61.5 -92.5t22.5 -115.5q0 -63 -22.5 -116.5t-61.5 -92.5t-92.5 -61t-116.5 -22t-116.5 22t-93 61t-62 92.5t-22.5 116.5q0 62 22.5 115.5t62 92.5t93 61.5t116.5 22.5zM314 642q-51 0 -94.5 -18.5t-75 -51t-49 -76t-17.5 -93.5
q0 -51 17.5 -94.5t49 -75.5t75 -50.5t94.5 -18.5t94 18.5t74.5 50.5t49.5 75.5t18 94.5q0 50 -18 93.5t-49.5 76t-74.5 51t-94 18.5zM456 326q-21 -36 -55.5 -56.5t-82.5 -20.5q-34 0 -62.5 12t-49.5 32.5t-33 48.5t-12 61t12 61t33 48.5t49.5 32.5t62.5 12q48 0 82.5 -20.5
t55.5 -56.5l-60 -35q-11 20 -30.5 33.5t-48.5 13.5q-40 0 -63.5 -25.5t-23.5 -63.5t23.5 -63.5t63.5 -25.5q29 0 48 13.5t31 32.5z" />
    <glyph glyph-name="registered" unicode="&#xae;" horiz-adv-x="627" 
d="M314 695q63 0 116.5 -22.5t92.5 -61.5t61.5 -92.5t22.5 -115.5q0 -63 -22.5 -116.5t-61.5 -92.5t-92.5 -61t-116.5 -22t-116.5 22t-93 61t-62 92.5t-22.5 116.5q0 62 22.5 115.5t62 92.5t93 61.5t116.5 22.5zM314 642q-51 0 -94.5 -18.5t-75 -51t-49 -76t-17.5 -93.5
q0 -51 17.5 -94.5t49 -75.5t75 -50.5t94.5 -18.5t94 18.5t74.5 50.5t49.5 75.5t18 94.5q0 50 -18 93.5t-49.5 76t-74.5 51t-94 18.5zM410 477q-60 0 -82.5 -19.5t-22.5 -65.5v-147h-68v299h68v-43q16 20 41.5 32.5t63.5 13.5v-70z" />
    <glyph glyph-name="trademark" unicode="&#x2122;" horiz-adv-x="877" 
d="M248 590v-72h-93v-160q0 -38 19 -49.5t47 -11.5h27v-72h-34q-63 0 -100 30.5t-37 99.5v163h-52v72h52v96h78v-96h93zM383 550q11 16 35 30.5t60 14.5t64 -15t45 -41q20 26 49 41t70 15q64 0 102.5 -39t38.5 -105v-226h-77v216q0 38 -19 59t-53 21q-36 0 -59 -21.5
t-24 -63.5v-211h-77v216q0 38 -19 59t-53 21q-38 0 -60.5 -23t-22.5 -65v-208h-77v365h77v-40z" />
    <glyph glyph-name="degree" unicode="&#xb0;" horiz-adv-x="372" 
d="M186 691q34 0 62.5 -12t49.5 -33t32.5 -49t11.5 -60t-11.5 -60t-32.5 -49t-49.5 -33t-62.5 -12t-62.5 12t-49.5 33t-32.5 49t-11.5 60t11.5 60t32.5 49t49.5 33t62.5 12zM186 622q-35 0 -58.5 -24t-23.5 -61t23 -61.5t58 -24.5t58.5 24.5t23.5 61.5t-23 61t-58 24z" />
    <glyph glyph-name="section" unicode="&#xa7;" horiz-adv-x="485" 
d="M108 304q0 -29 20 -44.5t51.5 -24t69.5 -14t73 -14.5q26 10 40 28.5t14 41.5q0 29 -20 44t-51 24t-69 14.5t-73 15.5q-26 -11 -40.5 -29.5t-14.5 -41.5zM353 488q-2 15 -8 29t-19 25t-33.5 18t-51.5 7q-48 0 -75.5 -18.5t-27.5 -49.5q0 -29 24 -43t59.5 -21.5t77 -13
t77 -19t59.5 -39t24 -72.5q0 -38 -19.5 -66t-52.5 -45q21 -14 33.5 -36.5t12.5 -55.5q0 -64 -51.5 -103t-139.5 -39q-91 0 -141.5 41t-55.5 108h86q1 -15 7.5 -29t19.5 -25.5t33.5 -18.5t51.5 -7q48 0 75.5 19t27.5 49t-24 44t-59.5 22t-77 14t-77 19.5t-59.5 39t-24 72.5
q0 38 19.5 65t53.5 44q-21 14 -33.5 36t-12.5 56q0 63 50.5 102t139.5 39q92 0 142.5 -41t55.5 -107h-87z" />
    <glyph glyph-name="paragraph" unicode="&#xb6;" horiz-adv-x="457" 
d="M244 0v247q-47 0 -88 16t-71 45t-47.5 69.5t-17.5 89.5q0 47 17.5 87t47.5 69t71 45.5t88 16.5h63v-685h-63zM362 0v685h62v-685h-62z" />
    <glyph glyph-name="plus" unicode="+" horiz-adv-x="440" 
d="M415 327v-82h-154v-160h-84v160h-152v82h152v157h84v-157h154z" />
    <glyph glyph-name="minus" unicode="&#x2212;" horiz-adv-x="440" 
d="M25 245v82h390v-82h-390z" />
    <glyph glyph-name="plusminus" unicode="&#xb1;" horiz-adv-x="440" 
d="M415 396v-81h-154v-160h-83v160h-153v81h153v158h83v-158h154zM25 0v82h390v-82h-390z" />
    <glyph glyph-name="divide" unicode="&#xf7;" horiz-adv-x="440" 
d="M176 400v89h87v-89h-87zM25 245v82h390v-82h-390zM176 80v89h87v-89h-87z" />
    <glyph glyph-name="multiply" unicode="&#xd7;" horiz-adv-x="430" 
d="M275 286l119 -124l-60 -61l-118 122l-119 -122l-60 61l119 124l-119 123l61 61l118 -122l116 122l62 -61z" />
    <glyph glyph-name="equal" unicode="=" horiz-adv-x="440" 
d="M25 324v85h390v-85h-390zM25 159v85h390v-85h-390z" />
    <glyph glyph-name="less" unicode="&#x3c;" horiz-adv-x="440" 
d="M129 285l286 -112v-90l-390 163v79l390 162v-90z" />
    <glyph glyph-name="greater" unicode="&#x3e;" horiz-adv-x="440" 
d="M415 246l-390 -163v90l287 112l-287 112v90l390 -162v-79z" />
    <glyph glyph-name="lessequal" unicode="&#x2264;" horiz-adv-x="440" 
d="M129 353l286 -108v-89l-390 158v79l390 157v-88zM25 0v82h390v-82h-390z" />
    <glyph glyph-name="greaterequal" unicode="&#x2265;" horiz-adv-x="440" 
d="M415 314l-390 -158v89l287 108l-287 109v88l390 -157v-79zM25 0v82h390v-82h-390z" />
    <glyph glyph-name="approxequal" unicode="&#x2248;" horiz-adv-x="440" 
d="M138 432q28 0 50.5 -7t43.5 -15t41.5 -15t44.5 -7q30 0 56.5 14.5t40.5 28.5v-74q-14 -19 -43 -37.5t-69 -18.5q-28 0 -50.5 7t-43.5 15t-41.5 15t-44.5 7q-30 0 -56.5 -14.5t-40.5 -28.5v74q14 19 43 37.5t69 18.5zM138 266q28 0 50.5 -7t43.5 -15t41.5 -15t44.5 -7
q30 0 56.5 14.5t40.5 28.5v-74q-14 -19 -43 -37.5t-69 -18.5q-28 0 -50.5 7t-43.5 15t-41.5 15t-44.5 7q-30 0 -56.5 -14.5t-40.5 -28.5v74q14 19 43 37.5t69 18.5z" />
    <glyph glyph-name="notequal" unicode="&#x2260;" horiz-adv-x="440" 
d="M415 409v-85h-147l-22 -79h169v-85h-191l-31 -121h-72l31 121h-127v85h149l22 79h-171v85h193l33 122h72l-33 -122h125z" />
    <glyph glyph-name="uniF8FF" unicode="&#xf8ff;" horiz-adv-x="5000" 
d="M3288 559h-123v122h123v-122zM4915 624q21 0 36 -15t15 -37t-15 -37t-36 -15t-36 15t-15 37t15 37t36 15zM4915 617q-18 0 -30.5 -13t-12.5 -32t12.5 -32t30.5 -13t30.5 13t12.5 32t-12.5 32t-30.5 13zM4907 590v-15h10q11 0 11 8q0 7 -9 7h-12zM4920 597q16 0 16 -14
q0 -11 -13 -13l14 -25h-9l-14 24h-7v-24h-8v52h21zM1803 402h-1803v109h1803v-109zM3288 0h-123v511h123v-511zM2242 399q-28 0 -54 -12t-45.5 -32t-31.5 -46.5t-12 -56.5t12 -56.5t31.5 -47t45.5 -32t54 -11.5q31 0 58 11.5t47.5 32t32.5 47t12 56.5t-12 56.5t-32.5 46.5
t-47.5 32t-58 12zM2829 399q-31 0 -57.5 -12t-46 -32t-30.5 -46.5t-11 -56.5t11 -56.5t30.5 -47t46 -32t57.5 -11.5q30 0 56.5 11.5t46.5 32t32 47t12 56.5t-12 56.5t-32 46.5t-46.5 32t-56.5 12zM3609 399q-30 0 -56.5 -12t-46.5 -32t-31.5 -46.5t-11.5 -56.5t11.5 -56.5
t31.5 -47t46.5 -32t56.5 -11.5t56.5 11.5t46 32t30.5 47t11 56.5t-11 56.5t-30.5 46.5t-46 32t-56.5 12zM4193 399q-30 0 -57 -12t-47 -32t-32 -46.5t-12 -56.5t12 -56.5t32 -47t47 -32t57 -11.5q28 0 53.5 11.5t44.5 32t30.5 47t11.5 56.5t-11.5 56.5t-30.5 46.5t-44.5 32
t-53.5 12zM1803 198h-1803v109h1803v-109zM4643 162q0 -12 4.5 -25.5t16 -24.5t31.5 -19t51 -8q44 0 64 17t20 37q0 24 -23 34.5t-57 16.5t-74.5 12t-74.5 21.5t-57 45t-23 83.5q0 34 14.5 64t42 52t66 35t86.5 13q96 0 153.5 -46.5t63.5 -121.5h-128q-1 10 -3.5 22.5
t-10.5 23t-24.5 17.5t-44.5 7q-35 0 -58 -10t-26 -36q0 -22 23.5 -33t58.5 -18t76 -15t76 -23.5t58.5 -44t23.5 -76.5q0 -46 -18 -78.5t-49.5 -53t-73.5 -30t-89 -9.5q-51 0 -92.5 13t-71 35.5t-46 54t-17.5 68.5h132zM1803 0h-1803v104h1803v-104zM3103 0h-127v36
q-34 -22 -71.5 -33.5t-79.5 -11.5q-54 0 -102 20t-84 55.5t-57 83t-21 102.5t21 103t57 84t84 56.5t102 20.5q42 0 79.5 -11.5t71.5 -33.5v210h127v-681zM3879 0h-126v36q-28 -22 -66.5 -33.5t-81.5 -11.5q-54 0 -102.5 20t-85 55.5t-57.5 83t-21 102.5t21 103t57.5 84
t85 56.5t102.5 20.5q43 0 81 -11.5t67 -33.5v210h126v-681zM2392 36q-32 -22 -70.5 -33.5t-83.5 -11.5q-53 0 -100 20t-82.5 55.5t-56.5 83t-21 102.5t21 103t56.5 84t82.5 56.5t100 20.5q86 0 154 -45v40h126v-511h-126v36zM4333 36q-31 -22 -68.5 -33.5t-76.5 -11.5
q-55 0 -103.5 20t-85 55.5t-57.5 83t-21 102.5t21 103t57.5 84t85 56.5t103.5 20.5q38 0 76 -11.5t69 -33.5v40h127v-511h-127v36z" />
    <glyph glyph-name="space.quarter" horiz-adv-x="100" 
 />
    <glyph glyph-name="nonbreakingspace" unicode="&#xa0;" horiz-adv-x="190" 
 />
    <glyph glyph-name="Idotaccent" unicode="&#x130;" horiz-adv-x="187" 
d="M45 0v685h97v-685h-97zM52 775v89h87v-89h-87z" />
    <glyph glyph-name="afii10051" unicode="&#x402;" horiz-adv-x="750" 
d="M500 423q49 0 90 -16t69.5 -44t44.5 -67.5t16 -85.5q0 -50 -16 -90.5t-45.5 -69.5t-70.5 -45t-91 -16q-31 0 -57 5.5t-54 21.5l42 72q13 -8 30 -13t41 -5q54 0 90.5 37.5t36.5 100.5q0 57 -37 94.5t-101 37.5q-73 0 -119 -46.5t-46 -130.5v-163h-97v596h-216v89h529v-89
h-216v-253q10 14 26 28t38 25.5t50 19t63 7.5z" />
    <glyph glyph-name="afii10053" unicode="&#x404;" horiz-adv-x="714" 
d="M696 162q-48 -80 -124 -127t-180 -47q-76 0 -142 26t-114.5 73t-76.5 112t-28 143t28 143t76.5 112t114 73t139.5 26q108 0 184 -46.5t122 -126.5l-75 -49q-36 60 -92 96.5t-137 36.5q-51 0 -96 -16t-79.5 -45t-57 -69.5t-29.5 -89.5h360v-89h-360q6 -49 29 -89.5
t57.5 -70t80 -45.5t96.5 -16q81 0 137 35.5t93 98.5z" />
    <glyph glyph-name="afii10054" unicode="&#x405;" horiz-adv-x="591" 
d="M297 -12q-58 0 -106 15t-83.5 43.5t-57 69.5t-25.5 94h99q8 -61 49 -100t122 -39q84 0 122 32t38 85q0 30 -14.5 49t-39.5 31t-57 19.5t-67 14.5q-42 8 -83.5 19.5t-74.5 32.5t-54 56.5t-21 91.5q0 43 17 79t47.5 61t74.5 39t98 14q116 0 181.5 -56.5t72.5 -152.5h-98
q-2 23 -11.5 46t-28 41t-47 29t-67.5 11q-66 0 -104 -27.5t-38 -78.5q0 -30 13 -49t35.5 -31.5t51.5 -20t62 -13.5q43 -8 87.5 -18t80.5 -30.5t59 -56t23 -94.5q0 -47 -17.5 -85t-50.5 -65t-80.5 -41.5t-107.5 -14.5z" />
    <glyph glyph-name="afii10055" unicode="&#x406;" horiz-adv-x="187" 
d="M45 0v685h97v-685h-97z" />
    <glyph glyph-name="afii10056" unicode="&#x407;" horiz-adv-x="187" 
d="M45 0v685h97v-685h-97zM-25 775v89h87v-89h-87zM129 775v89h87v-89h-87z" />
    <glyph glyph-name="afii10057" unicode="&#x408;" horiz-adv-x="530" 
d="M122 221q0 -67 35.5 -104.5t98.5 -37.5q65 0 101.5 45t36.5 124v437h96v-448q0 -57 -16 -103t-46 -78.5t-73.5 -50t-97.5 -17.5t-97 17t-72.5 47.5t-45.5 73.5t-16 95h96z" />
    <glyph glyph-name="afii10058" unicode="&#x409;" horiz-adv-x="936" 
d="M522 0l-205 569l-204 -569h-103l255 685h107l89 -238h204q54 0 97.5 -17.5t74 -47.5t47.5 -71t17 -88q0 -46 -17 -86.5t-47.5 -71t-74 -48t-97.5 -17.5h-143zM657 358h-163l100 -269h65q33 0 60 10.5t45.5 28.5t29 42.5t10.5 53.5q0 28 -10.5 52.5t-29.5 42.5t-46 28.5
t-61 10.5z" />
    <glyph glyph-name="afii10059" unicode="&#x40a;" horiz-adv-x="986" 
d="M468 387v298h97v-238h150q54 0 97.5 -17.5t74 -47.5t47.5 -71t17 -88q0 -46 -17 -86.5t-47.5 -71t-74 -48t-97.5 -17.5h-247v298h-326v-298h-97v685h97v-298h326zM709 89q33 0 60 10.5t45.5 28.5t29 42.5t10.5 53.5q0 28 -10.5 52.5t-29.5 42.5t-46 28.5t-61 10.5h-142
v-269h144z" />
    <glyph glyph-name="afii10060" unicode="&#x40b;" horiz-adv-x="761" 
d="M323 176v-176h-97v596h-216v89h529v-89h-216v-250q31 33 74 52t103 19q49 0 89.5 -15t69.5 -43t45 -69t16 -93v-197h-96v186q0 71 -38 110t-107 39t-112.5 -41t-43.5 -118z" />
    <glyph glyph-name="afii10145" unicode="&#x40f;" horiz-adv-x="630" 
d="M268 0h-223v685h97v-596h346v596h97v-685h-223v-134l-94 -7v141z" />
    <glyph glyph-name="afii10017" unicode="&#x410;" horiz-adv-x="657" 
d="M327 570l-123 -328h247zM484 153h-314l-57 -153h-103l265 685h107l265 -685h-105z" />
    <glyph glyph-name="afii10018" unicode="&#x411;" horiz-adv-x="550" 
d="M528 208q0 -44 -17.5 -81.5t-50 -66t-79.5 -44.5t-106 -16h-230v685h423v-89h-326v-179h149q54 0 98 -16.5t75 -44.5t47.5 -66.5t16.5 -81.5zM287 89q33 0 59.5 9.5t45 25.5t29 38t10.5 47q0 50 -39 84.5t-107 34.5h-143v-239h145z" />
    <glyph glyph-name="afii10019" unicode="&#x412;" horiz-adv-x="590" 
d="M45 685h266q52 0 91.5 -14.5t66.5 -39.5t40.5 -59.5t13.5 -73.5q0 -45 -23 -81.5t-63 -59.5q62 -19 96.5 -61t34.5 -98q0 -41 -15 -77t-43.5 -63t-70 -42.5t-93.5 -15.5h-301v685zM142 597v-205h163q60 0 90.5 29.5t30.5 74.5q0 42 -30.5 71.5t-88.5 29.5h-165zM142 304
v-216h198q65 0 98 31.5t33 77.5q0 45 -33 76t-96 31h-200z" />
    <glyph glyph-name="afii10020" unicode="&#x413;" horiz-adv-x="488" 
d="M142 595v-595h-97v685h423v-90h-326z" />
    <glyph glyph-name="afii10052" unicode="&#x403;" horiz-adv-x="488" 
d="M142 595v-595h-97v685h423v-90h-326zM157 748v78l210 61v-82z" />
    <glyph glyph-name="afii10021" unicode="&#x414;" horiz-adv-x="701" 
d="M597 -141v141h-493v-134l-94 -7v230h58l229 596h107l229 -596h58v-223zM171 89h357l-179 481z" />
    <glyph glyph-name="afii10022" unicode="&#x415;" horiz-adv-x="535" 
d="M45 685h453v-90h-356v-203h331v-88h-331v-214h366v-90h-463v685z" />
    <glyph glyph-name="afii10023" unicode="&#x401;" horiz-adv-x="535" 
d="M45 685h453v-90h-356v-203h331v-88h-331v-214h366v-90h-463v685zM158 775v89h87v-89h-87zM312 775v89h87v-89h-87z" />
    <glyph glyph-name="afii10024" unicode="&#x416;" horiz-adv-x="892" 
d="M397 364v321h97v-321l264 321h117l-292 -345l301 -340h-130l-260 304v-304h-97v304l-260 -304h-128l298 335l-293 350h119z" />
    <glyph glyph-name="afii10025" unicode="&#x417;" horiz-adv-x="483" 
d="M238 -9q-71 0 -125 29t-95 91l79 48q28 -44 60.5 -63.5t80.5 -19.5q56 0 91 34.5t35 89.5q0 24 -8 45t-24.5 36.5t-41 25t-58.5 9.5h-79v85h74q49 0 81 29.5t32 75.5q0 45 -29 74.5t-78 29.5q-81 0 -118 -76l-78 48q34 59 83.5 86.5t115.5 27.5q46 0 83 -14.5t62.5 -40
t39 -59t13.5 -71.5q0 -44 -19 -81.5t-57 -61.5q46 -23 74.5 -65.5t28.5 -103.5q0 -44 -16.5 -82t-46 -66t-70.5 -44t-90 -16z" />
    <glyph glyph-name="afii10026" unicode="&#x418;" horiz-adv-x="650" 
d="M508 0v539l-366 -539h-97v685h97v-539l366 539h97v-685h-97z" />
    <glyph glyph-name="afii10027" unicode="&#x419;" horiz-adv-x="650" 
d="M508 0v539l-366 -539h-97v685h97v-539l366 539h97v-685h-97zM321 839q47 0 84.5 18t54.5 35v-90q-21 -17 -54.5 -29t-84.5 -12t-84.5 12t-54.5 29v90q17 -17 54.5 -35t84.5 -18z" />
    <glyph glyph-name="afii10028" unicode="&#x41a;" horiz-adv-x="570" 
d="M436 685h117l-319 -345l328 -340h-130l-290 304v-304h-97v685h97v-321z" />
    <glyph glyph-name="afii10061" unicode="&#x40c;" horiz-adv-x="570" 
d="M436 685h117l-319 -345l328 -340h-130l-290 304v-304h-97v685h97v-321zM208 748v78l210 61v-82z" />
    <glyph glyph-name="afii10029" unicode="&#x41b;" horiz-adv-x="637" 
d="M522 0l-205 569l-204 -569h-103l255 685h107l255 -685h-105z" />
    <glyph glyph-name="afii10030" unicode="&#x41c;" horiz-adv-x="795" 
d="M138 506v-506h-93v685h110l243 -542l242 542h110v-685h-95v506l-230 -506h-57z" />
    <glyph glyph-name="afii10031" unicode="&#x41d;" horiz-adv-x="640" 
d="M498 298h-356v-298h-97v685h97v-298h356v298h97v-685h-97v298z" />
    <glyph glyph-name="afii10032" unicode="&#x41e;" horiz-adv-x="769" 
d="M385 -12q-73 0 -137.5 27t-112.5 74.5t-76 112t-28 140.5t28 141t76 112t112.5 74t137.5 27q72 0 136.5 -27t112.5 -74t76 -112t28 -141t-28 -140.5t-76 -112t-112.5 -74.5t-136.5 -27zM385 77q53 0 99.5 20t81.5 55.5t55.5 84t20.5 105.5t-20.5 105.5t-55.5 84
t-81.5 55.5t-99.5 20q-54 0 -101 -20t-82 -55.5t-55 -84t-20 -105.5t20 -105.5t55 -84t82 -55.5t101 -20z" />
    <glyph glyph-name="afii10033" unicode="&#x41f;" horiz-adv-x="630" 
d="M488 0v596h-346v-596h-97v685h540v-685h-97z" />
    <glyph glyph-name="afii10034" unicode="&#x420;" horiz-adv-x="583" 
d="M142 218v-218h-97v685h256q56 0 101.5 -18t78 -49.5t50 -74t17.5 -91.5t-18 -92t-51 -74.5t-78.5 -49.5t-99.5 -18h-159zM142 596v-289h153q36 0 65 11t49 30.5t31 46t11 56.5q0 31 -11 57.5t-31 46t-48.5 30.5t-63.5 11h-155z" />
    <glyph glyph-name="afii10035" unicode="&#x421;" horiz-adv-x="714" 
d="M391 607q-56 0 -104 -19.5t-83.5 -55t-56 -84t-20.5 -106.5t20.5 -106.5t56 -84t84 -55t104.5 -19.5q81 0 136.5 36t92.5 99l75 -50q-48 -80 -124 -127t-180 -47q-76 0 -142 26.5t-114.5 73.5t-76.5 112t-28 142t28 142t76.5 112t114 73.5t139.5 26.5q108 0 184 -46.5
t122 -126.5l-75 -49q-36 60 -92 96.5t-137 36.5z" />
    <glyph glyph-name="afii10036" unicode="&#x422;" horiz-adv-x="559" 
d="M231 0v596h-216v89h529v-89h-216v-596h-97z" />
    <glyph glyph-name="afii10037" unicode="&#x423;" horiz-adv-x="594" 
d="M240 0h-99l108 222l-229 463h103l175 -364l177 364h99z" />
    <glyph glyph-name="afii10062" unicode="&#x40e;" horiz-adv-x="594" 
d="M240 0h-99l108 222l-229 463h103l175 -364l177 364h99zM300 839q47 0 84.5 18t54.5 35v-90q-21 -17 -54.5 -29t-84.5 -12t-84.5 12t-54.5 29v90q17 -17 54.5 -35t84.5 -18z" />
    <glyph glyph-name="afii10038" unicode="&#x424;" horiz-adv-x="807" 
d="M452 -10h-97v78q-71 1 -130 21.5t-102.5 56t-67.5 85.5t-24 111t24 111t67.5 86t102.5 55.5t130 21.5v79h97v-79q70 -2 129.5 -21.5t103 -55.5t67.5 -86t24 -111t-24 -111t-67.5 -85.5t-103 -56t-129.5 -21.5v-78zM127 342q0 -42 16.5 -76t46.5 -58t72 -37t93 -14v370
q-51 -1 -93 -14t-72 -37t-46.5 -58t-16.5 -76zM680 342q0 42 -16.5 76t-46.5 58t-72 37t-93 14v-370q51 1 93 14t72 37t46.5 58t16.5 76z" />
    <glyph glyph-name="afii10039" unicode="&#x425;" horiz-adv-x="656" 
d="M326 273l-186 -273h-112l242 349l-232 336h116l174 -259l174 259h111l-229 -333l244 -352h-117z" />
    <glyph glyph-name="afii10040" unicode="&#x426;" horiz-adv-x="689" 
d="M585 -141v141h-540v685h97v-596h346v596h97v-596h94v-223z" />
    <glyph glyph-name="afii10041" unicode="&#x427;" horiz-adv-x="580" 
d="M535 0h-97v322q-37 -35 -81 -53t-100 -18q-51 0 -92.5 15t-71.5 43.5t-46.5 70.5t-16.5 95v210h96v-200q0 -70 39 -109t110 -39q73 0 118 40t45 109v199h97v-685z" />
    <glyph glyph-name="afii10042" unicode="&#x428;" horiz-adv-x="873" 
d="M45 0v685h97v-596h246v596h97v-596h246v596h97v-685h-783z" />
    <glyph glyph-name="afii10043" unicode="&#x429;" horiz-adv-x="932" 
d="M828 -141v141h-783v685h97v-596h246v596h97v-596h246v596h97v-596h94v-223z" />
    <glyph glyph-name="afii10044" unicode="&#x42a;" horiz-adv-x="708" 
d="M432 0h-252v596h-170v89h267v-238h164q53 0 96 -17.5t73 -47.5t46.5 -71t16.5 -88q0 -46 -17 -86.5t-48.5 -71t-76 -48t-99.5 -17.5zM431 89q33 0 60 10.5t45.5 28.5t29 42.5t10.5 53.5q0 28 -10.5 52.5t-29.5 42.5t-46 28.5t-61 10.5h-152v-269h154z" />
    <glyph glyph-name="afii10045" unicode="&#x42b;" horiz-adv-x="737" 
d="M306 447q53 0 96 -17.5t73 -47.5t46.5 -71t16.5 -88q0 -46 -17 -86.5t-48.5 -71t-76 -48t-99.5 -17.5h-252v685h97v-238h164zM296 89q33 0 60 10.5t45.5 28.5t29 42.5t10.5 53.5q0 28 -10.5 52.5t-29.5 42.5t-46 28.5t-61 10.5h-152v-269h154zM595 0v685h97v-685h-97z
" />
    <glyph glyph-name="afii10046" unicode="&#x42c;" horiz-adv-x="573" 
d="M306 447q53 0 96 -17.5t73 -47.5t46.5 -71t16.5 -88q0 -46 -17 -86.5t-48.5 -71t-76 -48t-99.5 -17.5h-252v685h97v-238h164zM296 89q33 0 60 10.5t45.5 28.5t29 42.5t10.5 53.5q0 28 -10.5 52.5t-29.5 42.5t-46 28.5t-61 10.5h-152v-269h154z" />
    <glyph glyph-name="afii10047" unicode="&#x42d;" horiz-adv-x="714" 
d="M331 -12q-110 0 -188 46t-124 127l75 49q36 -60 93.5 -96.5t141.5 -36.5q51 0 95 16.5t78 46t55.5 70t27.5 88.5h-360v89h360q-6 47 -28 87.5t-56 70t-78 46t-95 16.5q-83 0 -140.5 -36t-94.5 -99l-75 50q49 79 126.5 126.5t183.5 47.5q75 0 139.5 -26.5t112.5 -73.5
t75.5 -112t27.5 -142t-27.5 -142t-75.5 -112t-112 -73.5t-137 -26.5z" />
    <glyph glyph-name="afii10048" unicode="&#x42e;" horiz-adv-x="959" 
d="M585 -12q-66 0 -124.5 23t-104 64.5t-75.5 98t-37 124.5h-102v-298h-97v685h97v-298h102q8 67 37.5 124t75 98t104 64t124.5 23q70 0 132.5 -27t109.5 -74t74 -112t27 -141t-27 -140.5t-74 -112t-109.5 -74.5t-132.5 -27zM585 77q51 0 96 20t78.5 55.5t53 84t19.5 105.5
t-19.5 105.5t-53 84t-78.5 55.5t-96 20t-96.5 -20t-79 -55.5t-53 -84t-19.5 -105.5t19.5 -105.5t53 -84t79 -55.5t96.5 -20z" />
    <glyph glyph-name="afii10049" unicode="&#x42f;" horiz-adv-x="541" 
d="M264 596q-38 0 -65.5 -10t-45.5 -27.5t-26.5 -40t-8.5 -47.5q0 -24 8 -47.5t26 -42t47.5 -30t72.5 -11.5h127v256h-135zM399 256l-278 -256h-126l287 256h-16q-61 0 -107 16.5t-76.5 46t-45.5 69t-15 84.5t15.5 83.5t45.5 67.5t75 45.5t104 16.5h234v-685h-97v256z" />
    <glyph glyph-name="afii10050" unicode="&#x490;" horiz-adv-x="488" 
d="M376 685v134l92 7v-231h-326v-595h-97v685h331z" />
    <glyph glyph-name="afii10065" unicode="&#x430;" horiz-adv-x="584" 
d="M285 431q-38 0 -70 -14t-55.5 -38t-37 -57t-13.5 -70q0 -38 13.5 -70.5t37 -56.5t55.5 -38t70 -14t71 14t57 38t37.5 56.5t13.5 70.5q0 37 -14 70t-38 57t-56.5 38t-70.5 14zM462 68q-29 -32 -74.5 -54t-107.5 -22q-53 0 -99.5 20t-81.5 55t-55.5 82.5t-20.5 102.5
t20.5 102.5t55.5 82.5t81.5 55.5t99.5 20.5q61 0 106.5 -21.5t75.5 -52.5v67h87v-506h-87v68z" />
    <glyph glyph-name="afii10066" unicode="&#x431;" horiz-adv-x="555" 
d="M280 -10q-54 0 -102.5 20t-83.5 55q-34 34 -52.5 83t-18.5 127v47q0 80 12 144t42 110t81.5 72t130.5 29l71 3q50 2 81.5 6t54.5 11v-74q-22 -8 -54.5 -12t-79.5 -6l-67 -3q-50 -2 -84 -15.5t-55.5 -37.5t-33 -58.5t-15.5 -79.5q32 38 78.5 59t103.5 21q54 0 99.5 -19
t79 -52.5t52 -79t18.5 -97.5q0 -53 -19.5 -99t-54 -80.5t-81.5 -54t-103 -19.5zM281 69q37 0 68.5 13t54 36t35.5 54.5t13 69.5q0 36 -12.5 67.5t-35.5 54.5t-54.5 36t-68.5 13t-68.5 -13t-54.5 -36t-36 -54.5t-13 -68.5t13 -68.5t36 -54.5t54.5 -36t68.5 -13z" />
    <glyph glyph-name="afii10067" unicode="&#x432;" horiz-adv-x="457" 
d="M265 0h-230v506h203q41 0 72 -10.5t51.5 -29t31 -43t10.5 -52.5q0 -65 -52 -103q47 -20 66.5 -53.5t19.5 -70.5q0 -30 -11.5 -56t-34 -45.5t-54.5 -31t-72 -11.5zM241 432h-119v-138h119q36 0 55.5 21t19.5 50t-19.5 48t-55.5 19zM269 219h-147v-145h145q40 0 60.5 21.5
t20.5 51.5q0 29 -20.5 50.5t-58.5 21.5z" />
    <glyph glyph-name="afii10068" unicode="&#x433;" horiz-adv-x="383" 
d="M363 428h-240v-428h-88v506h328v-78z" />
    <glyph glyph-name="afii10100" unicode="&#x453;" horiz-adv-x="383" 
d="M363 428h-240v-428h-88v506h328v-78zM101 569v78l210 61v-82z" />
    <glyph glyph-name="afii10069" unicode="&#x434;" horiz-adv-x="568" 
d="M479 -141v141h-390v-136l-79 -5v219h53l163 428h116l163 -428h53v-214zM154 78h255l-128 342z" />
    <glyph glyph-name="afii10070" unicode="&#x435;" horiz-adv-x="564" 
d="M524 116q-37 -59 -95.5 -92.5t-143.5 -33.5q-59 0 -107 20.5t-82.5 55.5t-53.5 83t-19 104q0 54 19.5 102t54 83t82.5 55.5t106 20.5q59 0 106.5 -19.5t81 -53.5t51.5 -79.5t18 -97.5q0 -25 -3 -40h-428q8 -69 54.5 -112t121.5 -43q63 0 103 23.5t66 64.5zM285 438
q-69 0 -114.5 -38.5t-57.5 -104.5h338q-10 68 -56.5 105.5t-109.5 37.5z" />
    <glyph glyph-name="afii10071" unicode="&#x451;" horiz-adv-x="564" 
d="M524 116q-37 -59 -95.5 -92.5t-143.5 -33.5q-59 0 -107 20.5t-82.5 55.5t-53.5 83t-19 104q0 54 19.5 102t54 83t82.5 55.5t106 20.5q59 0 106.5 -19.5t81 -53.5t51.5 -79.5t18 -97.5q0 -25 -3 -40h-428q8 -69 54.5 -112t121.5 -43q63 0 103 23.5t66 64.5zM285 438
q-69 0 -114.5 -38.5t-57.5 -104.5h338q-10 68 -56.5 105.5t-109.5 37.5zM162 596v89h87v-89h-87zM316 596v89h87v-89h-87z" />
    <glyph glyph-name="afii10072" unicode="&#x436;" horiz-adv-x="726" 
d="M319 220l-195 -220h-110l220 249l-202 257h103l184 -236v236h88v-236l184 236h100l-199 -253l220 -253h-114l-191 220v-220h-88v220z" />
    <glyph glyph-name="afii10073" unicode="&#x437;" horiz-adv-x="384" 
d="M183 -9q-60 0 -104.5 26.5t-68.5 64.5l67 47q17 -27 44.5 -44t63.5 -17q42 0 68.5 22t26.5 55q0 34 -24 55t-66 21h-75v78h61q35 0 57.5 18.5t22.5 49.5t-22 50.5t-56 19.5q-33 0 -56 -15.5t-34 -34.5l-64 45q22 37 64.5 59.5t90.5 22.5q37 0 67 -11t51.5 -30.5t33 -45
t11.5 -55.5q0 -33 -14 -59.5t-37 -45.5q34 -17 54 -47t20 -73q0 -33 -14 -61.5t-38 -49.5t-57.5 -33t-72.5 -12z" />
    <glyph glyph-name="afii10074" unicode="&#x438;" horiz-adv-x="513" 
d="M390 0v376l-267 -376h-88v506h88v-376l267 376h88v-506h-88z" />
    <glyph glyph-name="afii10075" unicode="&#x439;" horiz-adv-x="513" 
d="M390 0v376l-267 -376h-88v506h88v-376l267 376h88v-506h-88zM247 633q24 0 45.5 6t39.5 14.5t31.5 18.5t22.5 19v-86q-12 -14 -46 -29t-93 -15t-93 15t-46 29v86q9 -9 22.5 -19t31.5 -18.5t39.5 -14.5t45.5 -6z" />
    <glyph glyph-name="afii10076" unicode="&#x43a;" horiz-adv-x="467" 
d="M123 270l204 236h105l-221 -253l242 -253h-119l-211 220v-220h-88v506h88v-236z" />
    <glyph glyph-name="afii10109" unicode="&#x45c;" horiz-adv-x="467" 
d="M123 270l204 236h105l-221 -253l242 -253h-119l-211 220v-220h-88v506h88v-236zM130 569v78l210 61v-82z" />
    <glyph glyph-name="afii10077" unicode="&#x43b;" horiz-adv-x="498" 
d="M388 0l-142 417l-141 -417h-92l178 506h116l178 -506h-97z" />
    <glyph glyph-name="afii10078" unicode="&#x43c;" horiz-adv-x="652" 
d="M293 0l-172 371v-371h-86v506h120l173 -379l172 379h117v-506h-88v373l-171 -373h-65z" />
    <glyph glyph-name="afii10079" unicode="&#x43d;" horiz-adv-x="503" 
d="M380 0v219h-257v-219h-88v506h88v-209h257v209h88v-506h-88z" />
    <glyph glyph-name="afii10080" unicode="&#x43e;" horiz-adv-x="575" 
d="M288 514q57 0 105 -20.5t83.5 -55.5t55.5 -82.5t20 -102.5t-20 -103t-55.5 -83.5t-83.5 -56t-105 -20.5t-105.5 20.5t-84 55.5t-55.5 83t-20 104q0 55 20 102.5t55.5 82.5t84 55.5t105.5 20.5zM288 434q-38 0 -70.5 -14t-56.5 -38t-37.5 -57.5t-13.5 -72.5t13 -72
t36.5 -57t56 -38t70.5 -14t70.5 14t56.5 38t38 57t14 72t-13.5 72.5t-37 57.5t-56 38t-70.5 14z" />
    <glyph glyph-name="afii10081" unicode="&#x43f;" horiz-adv-x="493" 
d="M370 0v428h-247v-428h-88v506h423v-506h-88z" />
    <glyph glyph-name="afii10082" unicode="&#x440;" horiz-adv-x="584" 
d="M299 431q-38 0 -71 -14t-57 -38t-37.5 -56.5t-13.5 -70.5t14 -70.5t38 -56.5t56.5 -38t70.5 -14q37 0 69.5 14t56 38t37 56.5t13.5 70.5q0 37 -13.5 70t-37 57t-56 38t-69.5 14zM304 -8q-60 0 -105.5 21t-75.5 52v-239h-88v680h88v-68q29 32 74 53.5t107 21.5
q53 0 99.5 -20t81.5 -55t55.5 -82.5t20.5 -102.5t-20.5 -102.5t-55.5 -83t-81.5 -55.5t-99.5 -20z" />
    <glyph glyph-name="afii10083" unicode="&#x441;" horiz-adv-x="535" 
d="M517 119q-35 -58 -92 -93.5t-142 -35.5q-58 0 -105.5 20.5t-82 56t-53.5 83.5t-19 103t19 102.5t53.5 82.5t82 55.5t105.5 20.5q87 0 143 -35.5t91 -93.5l-68 -43q-26 41 -63.5 66.5t-100.5 25.5q-39 0 -71 -13.5t-55 -38t-35.5 -57.5t-12.5 -72t12.5 -72.5t35.5 -58
t55.5 -38t71.5 -13.5q63 0 100 25t63 67z" />
    <glyph glyph-name="afii10084" unicode="&#x442;" horiz-adv-x="458" 
d="M438 428h-165v-428h-88v428h-165v78h418v-78z" />
    <glyph glyph-name="afii10085" unicode="&#x443;" horiz-adv-x="497" 
d="M305 14q-18 -50 -39.5 -85.5t-49 -58.5t-62 -33.5t-77.5 -10.5h-23v80h23q48 0 81 24t56 79l-202 497h98l149 -383l134 383h91z" />
    <glyph glyph-name="afii10110" unicode="&#x45e;" horiz-adv-x="497" 
d="M305 14q-18 -50 -39.5 -85.5t-49 -58.5t-62 -33.5t-77.5 -10.5h-23v80h23q48 0 81 24t56 79l-202 497h98l149 -383l134 383h91zM257 633q24 0 45.5 6t39.5 14.5t31.5 18.5t22.5 19v-86q-12 -14 -46 -29t-93 -15t-93 15t-46 29v86q9 -9 22.5 -19t31.5 -18.5t39.5 -14.5
t45.5 -6z" />
    <glyph glyph-name="afii10086" unicode="&#x444;" horiz-adv-x="660" 
d="M286 -196v186q-57 1 -105 22t-83 56t-55 82.5t-20 102.5q0 54 20 101t55 82.5t83 56t105 21.5v171h88v-171q57 -1 105 -22t83 -56t55 -82.5t20 -102.5q0 -54 -20 -101t-55 -82.5t-83 -56t-105 -21.5v-186h-88zM550 252q0 38 -13 70.5t-36.5 56.5t-56 38t-70.5 15v-360
q38 1 70 15t55.5 38t37 56.5t13.5 70.5zM110 252q0 -38 13 -71t36.5 -57t56 -37.5t70.5 -14.5v360q-38 -1 -70 -15t-55.5 -38t-37 -56.5t-13.5 -70.5z" />
    <glyph glyph-name="afii10087" unicode="&#x445;" horiz-adv-x="495" 
d="M483 0h-106l-129 194l-130 -194h-105l177 259l-167 247h106l119 -180l119 180h106l-168 -245z" />
    <glyph glyph-name="afii10088" unicode="&#x446;" horiz-adv-x="552" 
d="M463 -141v141h-428v506h88v-428h247v428h88v-428h84v-214z" />
    <glyph glyph-name="afii10089" unicode="&#x447;" horiz-adv-x="482" 
d="M447 0h-87v229q-26 -26 -61 -41.5t-83 -15.5q-44 0 -79.5 14.5t-60 41t-38 64t-13.5 84.5v130h87v-118q0 -63 31 -99t88 -36t93 36.5t36 101.5v115h87v-506z" />
    <glyph glyph-name="afii10090" unicode="&#x448;" horiz-adv-x="708" 
d="M35 0v506h88v-428h187v428h88v-428h187v428h88v-506h-638z" />
    <glyph glyph-name="afii10091" unicode="&#x449;" horiz-adv-x="767" 
d="M678 -141v141h-643v506h88v-428h187v428h88v-428h187v428h88v-428h84v-214z" />
    <glyph glyph-name="afii10092" unicode="&#x44a;" horiz-adv-x="563" 
d="M355 0h-200v428h-135v78h223v-159h116q41 0 74 -13.5t56.5 -36.5t36.5 -55t13 -68q0 -37 -13 -69t-37 -55t-58 -36.5t-76 -13.5zM351 267h-108v-189h108q24 0 43 8t32 21.5t19.5 30.5t6.5 35q0 37 -26.5 65.5t-74.5 28.5z" />
    <glyph glyph-name="afii10093" unicode="&#x44b;" horiz-adv-x="593" 
d="M558 0h-88v506h88v-506zM231 267h-108v-189h108q24 0 43 8t32 21.5t19.5 30.5t6.5 35q0 37 -26.5 65.5t-74.5 28.5zM35 0v506h88v-159h116q41 0 74 -13.5t56.5 -36.5t36.5 -55t13 -68q0 -37 -13 -69t-37 -55t-58 -36.5t-76 -13.5h-200z" />
    <glyph glyph-name="afii10094" unicode="&#x44c;" horiz-adv-x="443" 
d="M231 267h-108v-189h108q24 0 43 8t32 21.5t19.5 30.5t6.5 35q0 37 -26.5 65.5t-74.5 28.5zM35 0v506h88v-159h116q41 0 74 -13.5t56.5 -36.5t36.5 -55t13 -68q0 -37 -13 -69t-37 -55t-58 -36.5t-76 -13.5h-200z" />
    <glyph glyph-name="afii10095" unicode="&#x44d;" horiz-adv-x="527" 
d="M246 -10q-88 0 -144.5 35.5t-91.5 93.5l68 43q26 -41 64 -66.5t102 -25.5q36 0 66 11.5t52.5 32t36.5 47.5t17 58h-252v78h250q-6 29 -20.5 54t-36.5 43t-51 28.5t-63 10.5q-64 0 -101.5 -25t-63.5 -67l-68 44q35 58 94 93.5t143 35.5q57 0 104.5 -20.5t81 -56
t52.5 -83.5t19 -103t-19 -102.5t-53 -83t-81.5 -55.5t-104.5 -20z" />
    <glyph glyph-name="afii10096" unicode="&#x44e;" horiz-adv-x="715" 
d="M438 -10q-51 0 -94.5 17.5t-77 48t-54.5 72.5t-27 91h-62v-219h-88v506h88v-209h63q7 46 29 86t55 69t76 45.5t92 16.5q54 0 100.5 -20.5t80.5 -55.5t53.5 -82.5t19.5 -102.5t-19.5 -103t-53.5 -83.5t-80.5 -56t-100.5 -20.5zM270 253q0 -39 12.5 -72.5t35 -57.5
t53.5 -38t67 -14t66.5 14t53 38t35 57t12.5 72t-12.5 72.5t-35 57.5t-53 38t-66.5 14t-67 -14t-53.5 -38t-35 -57t-12.5 -72z" />
    <glyph glyph-name="afii10097" unicode="&#x44f;" horiz-adv-x="459" 
d="M236 249h100v179h-100q-50 0 -76 -27t-26 -64q0 -38 26 -63t76 -25zM336 0v176l-196 -176h-118l203 176q-41 1 -74.5 14t-56.5 34.5t-35.5 50.5t-12.5 62q0 36 14 67t39.5 53.5t61.5 35.5t80 13h183v-506h-88z" />
    <glyph glyph-name="afii10099" unicode="&#x452;" 
d="M390 7v291q0 63 -33 99t-92 36q-65 0 -104 -39.5t-39 -108.5v-285h-87v546h-35v76h35v63h87v-63h150v-76h-150v-104q14 20 37 36q19 14 49 25t73 11q44 0 80.5 -14.5t62 -41t39.5 -64.5t14 -84v-304q0 -49 -13.5 -83t-37.5 -55.5t-56.5 -31t-69.5 -9.5v79q19 0 35.5 5
t28.5 17t19 31.5t7 47.5z" />
    <glyph glyph-name="afii10101" unicode="&#x454;" horiz-adv-x="535" 
d="M517 119q-35 -58 -93 -93.5t-141 -35.5q-58 0 -105.5 20.5t-82 56t-53.5 83.5t-19 103t19 102.5t53.5 82.5t82 55.5t105.5 20.5q87 0 143 -35.5t91 -93.5l-68 -43q-26 41 -63.5 66.5t-100.5 25.5q-34 0 -63.5 -10.5t-52 -29t-37 -43.5t-19.5 -54h250v-78h-252
q4 -31 18.5 -58t37 -47t53 -31.5t66.5 -11.5q63 0 100 25t63 67z" />
    <glyph glyph-name="afii10102" unicode="&#x455;" horiz-adv-x="475" 
d="M116 157q2 -19 10.5 -36t24 -30t39.5 -21t57 -8q57 0 84.5 22t27.5 54q0 20 -10.5 33t-27.5 21t-40 13t-48 9q-33 6 -67.5 13t-62.5 22t-45.5 41.5t-17.5 70.5q0 33 13.5 60.5t38.5 47.5t60.5 31.5t79.5 11.5q91 0 144.5 -43t58.5 -115h-89q-1 15 -6.5 30.5t-18.5 27.5
t-34 20t-52 8q-48 0 -76.5 -17.5t-28.5 -51.5q0 -20 10.5 -33t28.5 -21t41.5 -13.5t49.5 -9.5q34 -6 68 -13.5t62 -22.5t45.5 -40t17.5 -67q0 -39 -15.5 -69t-43.5 -50t-66.5 -30.5t-84.5 -10.5q-97 0 -154.5 44.5t-63.5 121.5h91z" />
    <glyph glyph-name="afii10103" unicode="&#x456;" horiz-adv-x="158" 
d="M35 597v88h88v-88h-88zM35 0v506h88v-506h-88z" />
    <glyph glyph-name="afii10104" unicode="&#x457;" horiz-adv-x="158" 
d="M35 0v506h88v-506h-88zM-40 596v89h87v-89h-87zM114 596v89h87v-89h-87z" />
    <glyph glyph-name="afii10105" unicode="&#x458;" horiz-adv-x="158" 
d="M35 597v88h88v-88h-88zM123 6q0 -49 -14 -83t-38 -55.5t-56.5 -31t-69.5 -9.5v79q19 0 35.5 5t28.5 17t19 31.5t7 47.5v499h88v-500z" />
    <glyph glyph-name="afii10106" unicode="&#x459;" horiz-adv-x="718" 
d="M388 0l-142 417l-141 -417h-92l178 506h116l56 -159h149q41 0 75 -13.5t58 -36.5t37 -55t13 -68q0 -37 -13 -69t-37 -55t-58 -36.5t-75 -13.5h-124zM506 267h-115l67 -189h48q24 0 43 8t32 21.5t19.5 31t6.5 36.5q0 18 -7 34.5t-19.5 29t-31.5 20.5t-43 8z" />
    <glyph glyph-name="afii10107" unicode="&#x45a;" horiz-adv-x="768" 
d="M556 267h-98v-189h98q24 0 43 8t32 21.5t19.5 31t6.5 36.5q0 18 -7 34.5t-19.5 29t-31.5 20.5t-43 8zM370 0v219h-247v-219h-88v506h88v-209h247v209h88v-159h104q41 0 75 -13.5t58 -36.5t37 -55t13 -68q0 -37 -13 -69t-37 -55t-58 -36.5t-75 -13.5h-192z" />
    <glyph glyph-name="afii10108" unicode="&#x45b;" 
d="M122 442q14 20 37 36q19 14 49 25t73 11q44 0 80.5 -14.5t62 -41t39.5 -64.5t14 -84v-310h-87v298q0 63 -33 99t-92 36q-65 0 -104 -39.5t-39 -108.5v-285h-87v546h-35v76h35v63h87v-63h150v-76h-150v-104z" />
    <glyph glyph-name="afii10193" unicode="&#x45f;" horiz-adv-x="493" 
d="M35 0v506h88v-428h247v428h88v-506h-423zM207 -141v141h79v-136z" />
    <glyph glyph-name="afii10098" unicode="&#x491;" horiz-adv-x="383" 
d="M286 506v136l77 5v-219h-240v-428h-88v506h251z" />
    <glyph glyph-name="afii10067.bgr" horiz-adv-x="473" 
d="M241 -7q-49 0 -89 17t-68 47.5t-43.5 72t-15.5 89.5v272q0 48 15 86.5t41.5 64.5t63.5 40t81 14q46 0 82 -15t60 -39.5t36.5 -57t12.5 -66.5q0 -42 -18 -81t-53 -66q57 -24 84.5 -70.5t27.5 -97.5q0 -43 -15 -81.5t-42.5 -67t-68 -45t-91.5 -16.5zM113 493v-94h107
q24 0 44 8.5t35 23.5t23 35t8 43q0 48 -30 77.5t-79 29.5t-78.5 -32.5t-29.5 -90.5zM245 73q56 0 90.5 34.5t34.5 88.5q0 57 -38 92t-101 35h-118v-112q0 -61 34.5 -99.5t97.5 -38.5z" />
    <glyph glyph-name="afii10068.bgr" horiz-adv-x="465" 
d="M443 157q-6 -77 -64.5 -121.5t-161.5 -44.5q-41 0 -76 8.5t-61 26.5t-40.5 45.5t-14.5 64.5q0 48 23.5 76t57.5 44t76 26q21 5 41 10q18 4 34 9q35 11 58.5 27.5t23.5 47.5q0 33 -26 48t-70 15q-33 0 -54.5 -7.5t-34 -20t-18 -27.5t-6.5 -30h-92q5 72 59 115t147 43
q83 0 132.5 -37t49.5 -100q0 -50 -23.5 -78.5t-52.5 -42.5t-78 -27q-24 -5 -43 -10q-19 -4 -36 -9q-34 -10 -57.5 -26.5t-23.5 -47.5q0 -32 26 -51t83 -19q66 1 95 28t33 65h94z" />
    <glyph glyph-name="afii10069.bgr" horiz-adv-x="578" 
d="M282 433q-37 0 -68.5 -13.5t-55 -37t-37 -55.5t-13.5 -69t13.5 -69t37 -55.5t55 -37t68.5 -13.5q38 0 70.5 13.5t56 36.5t37 55t13.5 70q0 37 -13.5 69.5t-37.5 55.5t-56.5 36.5t-69.5 13.5zM287 -186q-87 0 -145 33t-96 92l67 42q26 -42 67.5 -66t105.5 -24q80 0 125 36
t45 110v43q-27 -32 -71.5 -54t-107.5 -22q-53 0 -99 19.5t-80.5 54t-54.5 81t-20 100.5t20 100.5t54.5 81t80.5 54t99 19.5q60 0 104.5 -20.5t74.5 -54.5v67h87v-463q0 -48 -17 -89.5t-50 -72.5t-80.5 -49t-108.5 -18z" />
    <glyph glyph-name="afii10072.bgr" horiz-adv-x="726" 
d="M319 220l-195 -220h-110l220 249l-202 257h103l184 -236v415h88v-415l184 236h100l-199 -253l220 -253h-114l-191 220v-220h-88v220z" />
    <glyph glyph-name="afii10073.bgr" horiz-adv-x="436" 
d="M209 -186q-64 0 -119 29t-86 74l59 56q28 -40 63.5 -60t83.5 -20q32 0 56 10.5t40 28t24 40.5t8 49q0 54 -35 88.5t-102 34.5h-63v78h63q25 0 45 9t34 24t21 34.5t7 41.5q0 45 -28.5 74t-79.5 29q-37 0 -69 -18t-49 -47l-60 51q12 18 29.5 34.5t41.5 30t53.5 21.5t64.5 8
q43 0 77.5 -13.5t58 -37t36 -55.5t12.5 -68q0 -38 -17.5 -78.5t-58.5 -69.5q28 -11 48.5 -30t33 -42t18.5 -48.5t6 -50.5q0 -42 -14 -80t-41.5 -66t-68 -44.5t-92.5 -16.5z" />
    <glyph glyph-name="afii10074.bgr" 
d="M390 64q-21 -30 -61.5 -51t-97.5 -21q-44 0 -80.5 14.5t-62 41t-39.5 64t-14 84.5v310h87v-298q0 -63 33 -99t92 -36q65 0 104 39.5t39 108.5v285h87v-506h-87v64z" />
    <glyph glyph-name="afii10075.bgr" 
d="M390 64q-21 -30 -61.5 -51t-97.5 -21q-44 0 -80.5 14.5t-62 41t-39.5 64t-14 84.5v310h87v-298q0 -63 33 -99t92 -36q65 0 104 39.5t39 108.5v285h87v-506h-87v64zM254 633q24 0 45.5 6t39.5 14.5t31.5 18.5t22.5 19v-86q-12 -14 -46 -29t-93 -15t-93 15t-46 29v86
q9 -9 22.5 -19t31.5 -18.5t39.5 -14.5t45.5 -6z" />
    <glyph glyph-name="afii10076.bgr" horiz-adv-x="467" 
d="M327 506h105l-221 -253l242 -253h-119l-211 220v-220h-88v685h88v-415z" />
    <glyph glyph-name="afii10077.bgr" horiz-adv-x="498" 
d="M388 0l-142 417l-141 -417h-92l178 506h116l178 -506h-97z" />
    <glyph glyph-name="afii10079.bgr" horiz-adv-x="503" 
d="M380 0v219h-257v-219h-88v506h88v-209h257v209h88v-506h-88z" />
    <glyph glyph-name="afii10081.bgr" 
d="M122 442q21 30 61.5 51t97.5 21q44 0 80.5 -14.5t62 -41t39.5 -64.5t14 -84v-310h-87v298q0 63 -33 99t-92 36q-65 0 -104 -39.5t-39 -108.5v-285h-87v506h87v-64z" />
    <glyph glyph-name="afii10084.bgr" horiz-adv-x="825" 
d="M122 443q20 27 55.5 49t94.5 22q54 0 93.5 -22.5t62.5 -63.5q10 16 25.5 31.5t37.5 27.5t49 19.5t60 7.5q44 0 79 -14t60 -40t38 -62.5t13 -81.5v-316h-86v305q0 60 -30.5 94t-84.5 34q-60 0 -96.5 -36.5t-36.5 -100.5v-296h-86v305q0 60 -30.5 94t-84.5 34
q-60 0 -96.5 -37.5t-36.5 -103.5v-292h-87v506h87v-63z" />
    <glyph glyph-name="afii10088.bgr" horiz-adv-x="572" 
d="M483 -141v141h-93v64q-21 -30 -61.5 -51t-97.5 -21q-44 0 -80.5 14.5t-62 41t-39.5 64t-14 84.5v310h87v-298q0 -63 33 -99t92 -36q65 0 104 39.5t39 108.5v285h87v-428h85v-214z" />
    <glyph glyph-name="afii10089.bgr" horiz-adv-x="482" 
d="M447 0h-87v229q-26 -26 -61 -41.5t-83 -15.5q-44 0 -79.5 14.5t-60 41t-38 64t-13.5 84.5v130h87v-118q0 -63 31 -99t88 -36t93 36.5t36 101.5v115h87v-506z" />
    <glyph glyph-name="afii10090.bgr" horiz-adv-x="805" 
d="M683 0v63q-20 -27 -54 -49t-91 -22q-52 0 -90 22.5t-61 63.5q-10 -16 -25.5 -31.5t-36.5 -27.5t-47.5 -19.5t-57.5 -7.5q-43 0 -77.5 14t-58.5 40t-36.5 62.5t-12.5 81.5v316h86v-305q0 -60 29.5 -94t80.5 -34q57 0 92.5 36.5t35.5 100.5v296h86v-305q0 -60 29.5 -94
t80.5 -34q58 0 93 37.5t35 103.5v292h87v-506h-87z" />
    <glyph glyph-name="afii10091.bgr" horiz-adv-x="866" 
d="M777 -141v141h-94v63q-20 -27 -54 -49t-91 -22q-52 0 -90 22.5t-61 63.5q-10 -16 -25.5 -31.5t-36.5 -27.5t-47.5 -19.5t-57.5 -7.5q-43 0 -77.5 14t-58.5 40t-36.5 62.5t-12.5 81.5v316h86v-305q0 -60 29.5 -94t80.5 -34q57 0 92.5 36.5t35.5 100.5v296h86v-305
q0 -60 29.5 -94t80.5 -34q58 0 93 37.5t35 103.5v292h87v-428h86v-214z" />
    <glyph glyph-name="afii10092.bgr" horiz-adv-x="550" 
d="M342 -10q-42 0 -76.5 14t-59 38.5t-38 58.5t-13.5 74v253h-135v78h223v-159h95q47 0 83 -14t60 -38t36.5 -56t12.5 -68t-13 -69t-37 -57.5t-59 -39.5t-79 -15zM342 69q49 0 75 30.5t26 69.5q0 41 -27.5 69.5t-77.5 28.5h-95v-90q0 -48 27.5 -78t71.5 -30z" />
    <glyph glyph-name="afii10094.bgr" horiz-adv-x="430" 
d="M222 -10q-42 0 -76.5 14t-59 38.5t-38 58.5t-13.5 74v331h88v-159h95q47 0 83 -14t60 -38t36.5 -56t12.5 -68t-13 -69t-37 -57.5t-59 -39.5t-79 -15zM222 69q49 0 75 30.5t26 69.5q0 41 -27.5 69.5t-77.5 28.5h-95v-90q0 -48 27.5 -78t71.5 -30z" />
    <glyph glyph-name="afii10096.bgr" horiz-adv-x="715" 
d="M438 -10q-51 0 -94.5 17.5t-77 48t-54.5 72.5t-27 91h-62v-219h-88v685h88v-388h63q7 46 29 86t55 69t76 45.5t92 16.5q54 0 100.5 -20.5t80.5 -55.5t53.5 -82.5t19.5 -102.5t-19.5 -103t-53.5 -83.5t-80.5 -56t-100.5 -20.5zM438 434q-36 0 -67 -14t-53.5 -38t-35 -57.5
t-12.5 -72.5t12.5 -72t34.5 -57t52.5 -38t66.5 -14t66.5 14t53.5 38t36 57t13 72t-12.5 72.5t-35 57.5t-53 38t-66.5 14z" />
    <glyph glyph-name="afii10066.locl" horiz-adv-x="562" 
d="M282 -10q-55 0 -102 19.5t-82 53.5t-55 79.5t-20 97.5q0 39 11.5 73.5t32 63.5t49.5 51t64 36q-52 14 -84.5 39t-32.5 75t34.5 78.5t89.5 28.5h146q59 0 97 1.5t61 6.5v-71q-23 -6 -62 -8.5t-96 -2.5h-144q-22 0 -33.5 -10t-11.5 -25q0 -14 7.5 -23t33.5 -17l146 -43
q100 -29 154 -92t54 -153q0 -55 -20 -102t-54.5 -81.5t-81.5 -54.5t-101 -20zM281 71q36 0 67 13.5t54.5 36.5t37 54.5t13.5 66.5t-13.5 66t-37 54.5t-54.5 37t-67 13.5q-35 0 -66.5 -13.5t-54.5 -37t-36.5 -54.5t-13.5 -66t13.5 -66.5t36.5 -54.5t54.5 -36.5t66.5 -13.5z
" />
    <glyph glyph-name="afii10068.locl" horiz-adv-x="383" 
d="M363 428h-240v-428h-88v506h328v-78z" />
    <glyph glyph-name="afii10069.locl" horiz-adv-x="578" 
d="M282 433q-37 0 -68.5 -13.5t-55 -37t-37 -55.5t-13.5 -69t13.5 -69t37 -55.5t55 -37t68.5 -13.5q38 0 70.5 13.5t56 36.5t37 55t13.5 70q0 37 -13.5 69.5t-37.5 55.5t-56.5 36.5t-69.5 13.5zM287 -186q-87 0 -145 33t-96 92l67 42q26 -42 67.5 -66t105.5 -24q80 0 125 36
t45 110v43q-27 -32 -71.5 -54t-107.5 -22q-53 0 -99 19.5t-80.5 54t-54.5 81t-20 100.5t20 100.5t54.5 81t80.5 54t99 19.5q60 0 104.5 -20.5t74.5 -54.5v67h87v-463q0 -48 -17 -89.5t-50 -72.5t-80.5 -49t-108.5 -18z" />
    <glyph glyph-name="afii10081.locl" horiz-adv-x="493" 
d="M370 0v428h-247v-428h-88v506h423v-506h-88z" />
    <glyph glyph-name="afii10084.locl" horiz-adv-x="458" 
d="M438 428h-165v-428h-88v428h-165v78h418v-78z" />
    <glyph glyph-name="afii61352" unicode="&#x2116;" horiz-adv-x="1069" 
d="M851 696q40 0 76 -15t63 -41t43 -61t16 -75q0 -41 -16 -76.5t-43 -61.5t-63 -40.5t-76 -14.5q-41 0 -77 14.5t-63 40.5t-43 61.5t-16 76.5q0 40 16 75t43 61t63 41t77 15zM851 604q-21 0 -39.5 -8t-32.5 -21.5t-22 -32t-8 -40.5t8 -40.5t22 -32t32.5 -21.5t39.5 -8
q43 0 72 29t29 73t-29 73t-72 29zM662 204v79h377v-79h-377zM484 0l-347 533v-533h-92v685h103l347 -532v532h92v-685h-103z" />
    <glyph glyph-name="uni20BD" unicode="&#x20bd;" horiz-adv-x="643" 
d="M377 596h-155v-249h153q31 0 56.5 9.5t43 26t27 39.5t9.5 49q0 27 -9.5 49.5t-27 39.5t-42.5 26.5t-55 9.5zM476 119h-254v-119h-97v119h-100v79h100v60h-100v79h100v348h256q52 0 94 -16.5t71.5 -45t45.5 -67.5t16 -84t-17 -84t-47 -68t-71.5 -45.5t-91.5 -16.5h-159
v-60h254v-79z" />
    <glyph glyph-name="uni20B8" unicode="&#x20b8;" horiz-adv-x="559" 
d="M534 606h-509v79h509v-79zM328 0h-97v452h-206v89h509v-89h-206v-452z" />
    <glyph glyph-name="uni20B4" unicode="&#x20b4;" horiz-adv-x="559" 
d="M292 444q36 0 59 7.5t36.5 19.5t19 26.5t5.5 29.5q0 16 -6 32t-20 28.5t-37 20t-57 7.5q-36 0 -60.5 -8t-39.5 -22.5t-22.5 -34t-9.5 -41.5h-100q6 90 66.5 138t166.5 48q55 0 96 -11.5t68.5 -32t41 -48t13.5 -58.5q0 -30 -14 -58t-42 -43h83v-80h-519v80h272zM106 244
h-86v80h519v-80h-269q-36 0 -59.5 -8t-37 -20.5t-18.5 -28t-5 -30.5q0 -17 6.5 -32.5t22 -28t40.5 -20t61 -7.5q39 0 65 8t42.5 22.5t24.5 33.5t10 42h100q-6 -90 -69 -138t-174 -48q-58 0 -101 11.5t-71.5 32t-42.5 47.5t-14 59t14 61t42 44z" />
    <glyph glyph-name="NULL" horiz-adv-x="0" 
 />
    <glyph glyph-name="NULL" horiz-adv-x="0" 
 />
    <glyph glyph-name="nonmarkingreturn" unicode="&#xd;" horiz-adv-x="235" 
 />
    <glyph glyph-name="cyr_breve.uc" horiz-adv-x="400" 
d="M200 839q47 0 84.5 18t54.5 35v-90q-21 -17 -54.5 -29t-84.5 -12t-84.5 12t-54.5 29v90q17 -17 54.5 -35t84.5 -18z" />
    <glyph glyph-name="cyr_breve" horiz-adv-x="400" 
d="M200 633q24 0 45.5 6t39.5 14.5t31.5 18.5t22.5 19v-86q-12 -14 -46 -29t-93 -15t-93 15t-46 29v86q9 -9 22.5 -19t31.5 -18.5t39.5 -14.5t45.5 -6z" />
    </font>
</defs>
</svg>
