<?xml version="1.0" standalone="no"?>
<!DOCTYPE svg PUBLIC "-//W3C//DTD SVG 1.1//EN" "http://www.w3.org/Graphics/SVG/1.1/DTD/svg11.dtd" >
<svg xmlns="http://www.w3.org/2000/svg">
<metadata></metadata>
<defs>
<font id="encode_sans_condensedlight" horiz-adv-x="1050" >
<font-face units-per-em="2048" ascent="1638" descent="-410" />
<missing-glyph horiz-adv-x="434" />
<glyph unicode="&#xfb01;" horiz-adv-x="1040" d="M33 997v109h182v76q0 133 18.5 221t64.5 142t124 80t196 36l5 -102q-86 -8 -141.5 -27t-87.5 -58.5t-43 -105t-11 -168.5v-94h231v-109h-231v-997h-125v997h-182zM748 1452q0 84 86 84q88 0 88 -84q0 -86 -88 -86q-86 0 -86 86zM772 0v1106h123v-1106h-123z" />
<glyph unicode="&#xfb02;" horiz-adv-x="1042" d="M33 997v109h182v76q0 133 18.5 221t64.5 142t124 80t196 36l5 -102q-86 -8 -141.5 -27t-87.5 -58.5t-43 -105t-11 -168.5v-94h231v-109h-231v-997h-125v997h-182zM770 0v1655h125v-1655h-125z" />
<glyph unicode="&#xfb03;" horiz-adv-x="1634" d="M33 997v109h182v76q0 133 18.5 221t64.5 142t124 80t196 36l5 -102q-86 -8 -141.5 -27t-87.5 -58.5t-43 -105t-11 -168.5v-94h231v-109h-231v-997h-125v997h-182zM629 997v109h182v76q0 133 18.5 221t64.5 142t124 80t196 36l5 -102q-86 -8 -141.5 -27t-87.5 -58.5 t-43 -105t-11 -168.5v-94h231v-109h-231v-997h-125v997h-182zM1341 1452q0 84 86 84q88 0 89 -84q-1 -86 -89 -86q-86 0 -86 86zM1366 0v1106h123v-1106h-123z" />
<glyph unicode="&#xfb04;" horiz-adv-x="1638" d="M33 997v109h182v76q0 133 18.5 221t64.5 142t124 80t196 36l5 -102q-86 -8 -141.5 -27t-87.5 -58.5t-43 -105t-11 -168.5v-94h231v-109h-231v-997h-125v997h-182zM629 997v109h182v76q0 133 18.5 221t64.5 142t124 80t196 36l5 -102q-86 -8 -141.5 -27t-87.5 -58.5 t-43 -105t-11 -168.5v-94h231v-109h-231v-997h-125v997h-182zM1364 0v1655h125v-1655h-125z" />
<glyph horiz-adv-x="0" />
<glyph unicode="&#xd;" horiz-adv-x="577" />
<glyph horiz-adv-x="0" />
<glyph horiz-adv-x="0" />
<glyph unicode=" "  horiz-adv-x="434" />
<glyph unicode="&#x09;" horiz-adv-x="434" />
<glyph unicode="&#xa0;" horiz-adv-x="434" />
<glyph unicode="!" horiz-adv-x="446" d="M143 90q0 41 22.5 63.5t63.5 22.5t63.5 -23.5t22.5 -62.5t-22.5 -61.5t-63.5 -22.5t-63.5 22.5t-22.5 61.5zM160 1495v21h127v-21l-23 -1122v-29h-82v29z" />
<glyph unicode="&#x22;" horiz-adv-x="651" d="M129 983v672h113v-8l-47 -664h-66zM432 983v672h113v-8l-47 -664h-66z" />
<glyph unicode="#" horiz-adv-x="1021" d="M94 483v99h170l29 352h-199v98h207l39 484h102l-39 -484h238l41 484h102l-39 -484h183v-98h-191l-28 -352h217v-99h-226l-38 -483h-105l39 483h-238l-39 -483h-102l39 483h-162zM367 582h237l29 352h-238z" />
<glyph unicode="$" horiz-adv-x="1021" d="M78 41l12 113q37 -14 87 -25.5t103.5 -21t105.5 -14.5t97 -5q162 0 250 75t88 214q0 63 -22.5 112.5t-65.5 89t-105.5 71.5t-144.5 63q-100 37 -171.5 75.5t-118 88t-68 111t-21.5 142.5q0 170 100.5 278t274.5 130v281h113v-275q137 -6 299 -45l-10 -113 q-92 23 -173 34.5t-145 11.5q-152 0 -242 -82t-90 -217q0 -57 17.5 -101.5t56.5 -80.5t100.5 -67.5t149.5 -64.5q96 -37 170 -75.5t123 -90t74.5 -118t25.5 -156.5q0 -166 -90 -267.5t-254 -127.5v-287h-112v276q-47 0 -100.5 5.5t-109 14.5t-108.5 21.5t-96 26.5z" />
<glyph unicode="%" horiz-adv-x="1703" d="M78 1059q0 236 81 356.5t238 120.5q158 0 238 -121t80 -356q0 -238 -80 -358.5t-238 -120.5q-160 0 -239.5 120.5t-79.5 358.5zM182 1059q0 -379 215 -379q211 0 211 379q0 377 -211 377q-215 0 -215 -377zM494 0l589 1516h117l-592 -1516h-114zM989 453q0 236 81 356.5 t241 120.5q158 0 237.5 -121t79.5 -356q0 -238 -79.5 -359t-237.5 -121q-160 0 -241 121t-81 359zM1094 453q0 -379 217 -379q211 0 211 379t-211 378q-217 0 -217 -378z" />
<glyph unicode="&#x26;" horiz-adv-x="1288" d="M96 422q0 285 240 397q-51 72 -71.5 150t-20.5 174q0 197 101 298t300 101q139 0 322 -78v-10l-25 -90h-12q-160 70 -279 70q-285 0 -284 -299q0 -78 21.5 -146.5t68.5 -132t123.5 -126t185.5 -130.5l229 -145q20 102 21 245v142h117v-142q0 -176 -35 -311l153 -96v-12 l-51 -91h-14l-127 82q-130 -295 -486 -295q-223 0 -350 118t-127 327zM221 426q0 -160 96.5 -251t262.5 -91q285 0 381 252l-254 166q-199 129 -304 235q-182 -92 -182 -311z" />
<glyph unicode="'" horiz-adv-x="348" d="M129 983v672h113v-8l-47 -664h-66z" />
<glyph unicode="(" horiz-adv-x="552" d="M86 725q0 287 81 556t234 497h115v-9q-154 -223 -235.5 -489t-81.5 -555q0 -291 81.5 -556t235.5 -488v-9h-115q-154 227 -234.5 496.5t-80.5 556.5z" />
<glyph unicode=")" horiz-adv-x="552" d="M39 -319q154 223 234.5 488t80.5 556q0 289 -80.5 555t-234.5 489v9h113q154 -227 234.5 -496.5t80.5 -556.5t-81 -556t-234 -497h-113v9z" />
<glyph unicode="*" horiz-adv-x="983" d="M86 1380l31 90l162 -49l190 -92l-27 213v168h99v-168l-29 -213l193 92l161 49l29 -90l-160 -51l-209 -39l146 -155l98 -140l-76 -55l-100 135l-105 193l-102 -193l-98 -135l-78 55l98 140l146 155l-209 39z" />
<glyph unicode="+" horiz-adv-x="970" d="M94 707v102h340v352h103v-352h340v-102h-340v-353h-103v353h-340z" />
<glyph unicode="," horiz-adv-x="403" d="M53 -297l92 465h134l-127 -485z" />
<glyph unicode="-" horiz-adv-x="741" d="M125 518v111h489v-111h-489z" />
<glyph unicode="." horiz-adv-x="415" d="M119 82q0 90 88 90q43 0 67.5 -23.5t24.5 -66.5q0 -41 -24.5 -63.5t-67.5 -22.5q-88 0 -88 86z" />
<glyph unicode="/" horiz-adv-x="630" d="M66 -248l385 1764h116l-387 -1764h-114z" />
<glyph unicode="0" horiz-adv-x="1165" d="M104 756q0 387 121 583.5t359 196.5q236 0 356.5 -196.5t120.5 -583.5q0 -385 -120.5 -580.5t-356.5 -195.5q-238 0 -359 194.5t-121 581.5zM231 756q1 -664 353 -664q350 0 350 664q0 668 -350 667q-352 0 -353 -667z" />
<glyph unicode="1" horiz-adv-x="696" d="M41 1235l2 14l387 267h88v-1516h-127v1354h-6l-293 -191h-16z" />
<glyph unicode="2" horiz-adv-x="944" d="M88 2v191q0 92 19.5 169.5t62.5 147.5t110.5 134.5t163.5 129.5q74 51 125.5 97.5t84 92.5t47 93t14.5 100q0 262 -281 262q-59 0 -130 -11t-159 -40l-20 113q96 29 176 41t154 12q385 0 385 -369q0 -72 -16.5 -131t-54.5 -115.5t-97.5 -110.5t-145.5 -116 q-86 -63 -145 -119.5t-96 -113t-53.5 -116.5t-16.5 -132v-96h627v-113h-754z" />
<glyph unicode="3" horiz-adv-x="901" d="M96 1503q66 16 129.5 24.5t122.5 8.5q199 0 305.5 -100.5t106.5 -288.5q0 -139 -62.5 -231.5t-179.5 -127.5v-6q141 -33 212 -132t71 -259q0 -193 -120 -300t-339 -107q-57 0 -117.5 6t-120.5 20v105h15q43 -12 101.5 -19.5t111.5 -7.5q166 0 254 81t88 230 q0 330 -377 330h-66v105h66q164 0 250 77.5t86 225.5q0 291 -293 290q-43 0 -96.5 -7t-118.5 -19h-16z" />
<glyph unicode="4" horiz-adv-x="1054" d="M43 444v9l506 1083h12l105 -20l4 -13l-484 -1011v-11h510v13l37 553h90v-566h178v-106h-178v-375h-127v375h-614z" />
<glyph unicode="5" horiz-adv-x="897" d="M100 6v107h29q117 -25 207 -25q170 0 257 87t87 263q0 178 -99.5 253t-324.5 77l-123 2l-8 10l53 736h576v-113h-471l-39 -526q152 -2 259 -27t176 -77t100.5 -135t31.5 -202q0 -229 -123 -345t-344 -116q-115 0 -244 31z" />
<glyph unicode="6" horiz-adv-x="1081" d="M102 668q0 207 39 368.5t115 273t184.5 170t249.5 58.5q106 0 225 -33l-6 -112q-63 20 -113.5 28.5t-103.5 8.5q-211 0 -328.5 -171.5t-134.5 -488.5q78 72 170.5 112t186.5 40t171 -31t131 -87t83.5 -138t29.5 -185q0 -115 -30.5 -207t-88 -158.5t-137.5 -102.5 t-178 -36q-229 0 -347 173.5t-118 517.5zM227 659q0 -293 83 -432t257 -139q141 0 225.5 106.5t84.5 286.5q0 160 -82.5 249t-229.5 89q-86 0 -176 -44t-162 -116z" />
<glyph unicode="7" horiz-adv-x="811" d="M51 1501l8 15h686l25 -70v-55l-473 -1393l-29 -21l-98 23v27l479 1374h-590z" />
<glyph unicode="8" horiz-adv-x="1073" d="M100 379q0 82 20.5 146.5t55.5 114.5t81 86t99 62q-100 53 -157.5 139.5t-57.5 225.5q0 182 106.5 281.5t291.5 99.5q182 0 286.5 -98.5t104.5 -284.5q0 -78 -17.5 -138.5t-46 -106.5t-69.5 -79.5t-86 -58.5q123 -53 192.5 -141t69.5 -242q0 -184 -116.5 -288.5 t-319.5 -104.5t-320 101.5t-117 285.5zM221 387q0 -139 86 -216t230 -77q141 0 228 76t87 209q0 76 -20.5 129t-61.5 93t-101.5 67.5t-140.5 52.5q-18 4 -34.5 9t-32.5 11q-49 -23 -93 -53.5t-77 -72.5t-51.5 -98t-18.5 -130zM258 1147q0 -72 21.5 -123t63.5 -90 t101.5 -66.5t137.5 -52.5l10 -4q47 20 87 49t69.5 70t47 94t17.5 125q0 139 -73.5 211t-202.5 72t-204 -73t-75 -212z" />
<glyph unicode="9" horiz-adv-x="1081" d="M80 1034q0 113 30.5 206t88 159.5t137.5 102.5t178 36q229 0 347 -173t118 -517q0 -207 -39 -369t-114.5 -273.5t-184.5 -170t-250 -58.5q-106 0 -225 33l6 113q63 -20 113.5 -28.5t103.5 -8.5q211 0 329 171t134 488q-78 -72 -170 -111.5t-186 -39.5t-171 29.5 t-131.5 87t-84 139.5t-29.5 184zM205 1034q0 -160 82 -249t229 -89q86 0 176 44t162 116q0 293 -83 432t-257 139q-141 0 -225 -106.5t-84 -286.5z" />
<glyph unicode=":" horiz-adv-x="428" d="M125 82q0 90 88 90q43 0 67.5 -23.5t24.5 -66.5q0 -41 -24.5 -63.5t-67.5 -22.5q-88 0 -88 86zM125 1022q0 90 88 90q43 0 67.5 -23.5t24.5 -66.5q0 -41 -24.5 -63.5t-67.5 -22.5q-88 0 -88 86z" />
<glyph unicode=";" horiz-adv-x="481" d="M98 -297l92 465h134l-127 -485zM162 1022q0 90 88 90q43 0 67.5 -23.5t24.5 -66.5q0 -41 -24.5 -63.5t-67.5 -22.5q-88 0 -88 86z" />
<glyph unicode="&#x3c;" horiz-adv-x="1005" d="M88 702v97l789 350v-115l-648 -284l643 -283v-115z" />
<glyph unicode="=" horiz-adv-x="1034" d="M131 461v104h772v-104h-772zM131 897v104h772v-104h-772z" />
<glyph unicode="&#x3e;" horiz-adv-x="1007" d="M131 1034v115l787 -350v-97l-783 -350v115l643 283z" />
<glyph unicode="?" horiz-adv-x="837" d="M59 1481q66 25 144 41t157 16q78 0 152 -20.5t131 -66.5t92 -124t35 -190q0 -109 -38 -183.5t-96 -125t-130 -80t-139 -48.5v-356h-101v39l-8 393q61 16 130 39t126 63t95 100t38 152q0 86 -26.5 143.5t-68.5 92.5t-96.5 49.5t-109.5 14.5q-66 0 -133.5 -14.5 t-130.5 -35.5zM233 84q0 41 23 62.5t63 21.5q41 0 64 -22.5t23 -61.5q0 -41 -23 -62.5t-64 -21.5t-63.5 21.5t-22.5 62.5z" />
<glyph unicode="@" horiz-adv-x="1660" d="M94 537q0 205 55.5 363.5t156 266t240.5 162.5t310 55q182 0 313 -53t216 -151.5t125 -238.5t40 -312q0 -240 -82 -381.5t-247 -141.5q-41 0 -77 9.5t-63.5 31t-45 57.5t-23.5 89h-11q-29 -45 -67.5 -78t-80.5 -54.5t-83 -31.5t-76 -10q-72 0 -122 28.5t-81.5 77.5 t-46 113.5t-14.5 134.5q0 117 34 215t95.5 170t148.5 113t195 41q115 0 281 -66l-74 -432q-8 -41 -14 -84t-6 -82q0 -66 28.5 -108.5t104.5 -42.5q115 0 172 115.5t57 316.5q0 152 -34 274.5t-106.5 208.5t-185 132t-270.5 46q-147 0 -270 -49t-210 -144.5t-135 -236.5 t-48 -323q0 -197 50 -334t134 -223t195.5 -125t232.5 -39q90 0 185 18.5t190 48.5l34 -88q-102 -33 -205.5 -53.5t-203.5 -20.5q-141 0 -270 44.5t-226.5 142.5t-156 252.5t-58.5 376.5zM528 473q0 -51 9.5 -98t30 -84t54 -58.5t80.5 -21.5q41 0 89.5 16.5t93.5 54t80.5 98 t50.5 150.5l61 359q-47 16 -91 24.5t-83 8.5q-86 0 -155.5 -34t-117.5 -94.5t-75 -142.5t-27 -178z" />
<glyph unicode="A" horiz-adv-x="1189" d="M16 0v12l488 1504h180l487 -1504v-12h-120l-158 479h-598l-156 -479h-123zM328 592h532l-188 573l-72 236h-12l-72 -236z" />
<glyph unicode="B" horiz-adv-x="1193" d="M168 10v1497q70 8 123 13.5t98 8.5t85 5t81 2q260 0 380 -98.5t120 -309.5q0 -143 -64.5 -235t-181.5 -115v-8q139 -23 217 -121t78 -254q0 -415 -524 -415q-47 0 -101.5 2t-110 6t-106.5 10t-94 12zM289 102q18 -4 52 -7t75 -6t86 -5t86 -2q385 2 385 319 q0 166 -94.5 240t-309.5 74h-280v-613zM289 819h276q98 0 167 16.5t112 52.5t62.5 94t19.5 142q0 160 -87 233t-276 73q-78 0 -142.5 -4.5t-131.5 -14.5v-592z" />
<glyph unicode="C" horiz-adv-x="1062" d="M98 756q0 205 37 351t116 241.5t198.5 140.5t285.5 45q55 0 122 -7t134 -18v-112q-55 10 -118.5 16t-120.5 6q-139 0 -237.5 -36.5t-162 -116.5t-93.5 -206t-30 -304q0 -346 124 -504t386 -158q20 0 52 2t67 5t70 7.5t63 10.5v-109q-53 -14 -117.5 -22t-136.5 -8 q-330 4 -484.5 190t-154.5 586z" />
<glyph unicode="D" horiz-adv-x="1275" d="M168 -10v1515q96 14 185 22.5t157 8.5q344 0 506 -189.5t162 -590.5q0 -205 -43 -353.5t-132.5 -245t-226.5 -142.5t-327 -46q-78 0 -150 5.5t-131 15.5zM293 96q55 -8 98 -11t86 -3q291 0 430.5 164t139.5 510q0 350 -127 508.5t-404 158.5q-53 0 -111.5 -4t-111.5 -14 v-1309z" />
<glyph unicode="E" horiz-adv-x="1093" d="M168 0v1516h821v-113h-694v-578h633v-112h-633v-600h713v-113h-840z" />
<glyph unicode="F" horiz-adv-x="1028" d="M168 0v1516h793v-113h-666v-586h618v-112h-618v-705h-127z" />
<glyph unicode="G" horiz-adv-x="1193" d="M98 756q0 203 39 350t119 242.5t205 140.5t297 45q61 0 146 -10.5t165 -28.5v-113q-90 20 -162.5 28.5t-138.5 8.5q-143 0 -245.5 -36.5t-167 -116.5t-95.5 -206t-31 -304q0 -344 124 -503t392 -159q37 0 92.5 4t114.5 13v659h121v-752q-96 -18 -176 -28t-154 -10 q-334 2 -489.5 190t-155.5 586z" />
<glyph unicode="H" horiz-adv-x="1353" d="M168 0v1516h127v-685h766v685h125v-1516h-125v717h-766v-717h-127z" />
<glyph unicode="I" horiz-adv-x="462" d="M168 0v1516h127v-1516h-127z" />
<glyph unicode="J" horiz-adv-x="460" d="M4 -326q49 106 82 191.5t52.5 164.5t26.5 160.5t7 184.5v1141h127v-1147q0 -98 -11.5 -188.5t-37 -179.5t-65.5 -181t-95 -193z" />
<glyph unicode="K" horiz-adv-x="1198" d="M168 0v1516h127v-689h219l485 689h150l-483 -685l-60 -51v-10l64 -49l518 -721h-148l-514 715h-231v-715h-127z" />
<glyph unicode="L" horiz-adv-x="899" d="M168 0v1516h127v-1403h579v-113h-706z" />
<glyph unicode="M" horiz-adv-x="1689" d="M168 0v1516h170l414 -1065l86 -240h12l86 240l416 1065h170v-1516h-123v1305l-10 2l-105 -283l-377 -961h-129l-375 961l-106 283l-10 -2v-1305h-119z" />
<glyph unicode="N" horiz-adv-x="1411" d="M168 0v1516h121l723 -1127l102 -176h10v1303h119v-1516h-123l-721 1122l-102 178h-12v-1300h-117z" />
<glyph unicode="O" horiz-adv-x="1323" d="M98 756q0 393 141.5 586.5t422.5 193.5t422 -194.5t141 -585.5q0 -387 -142 -581.5t-421 -194.5q-281 0 -422.5 193.5t-141.5 582.5zM227 756q0 -344 106 -504t329 -160t328.5 161t105.5 503t-106.5 504.5t-327.5 162.5q-223 0 -329 -160.5t-106 -506.5z" />
<glyph unicode="P" horiz-adv-x="1134" d="M168 0v1505q170 33 324 33q299 0 437 -124t138 -392q0 -270 -141.5 -394t-446.5 -124q-43 0 -88 2t-96 6v-512h-127zM295 629q43 -4 99.5 -9.5t107.5 -5.5q229 0 332.5 96.5t103.5 311.5q0 211 -101.5 307t-326.5 96q-49 0 -105.5 -4t-109.5 -14v-778z" />
<glyph unicode="Q" horiz-adv-x="1318" d="M94 756q0 780 563 780q281 0 422.5 -195.5t141.5 -584.5q0 -367 -135.5 -556.5t-403.5 -197.5v-10q111 -35 241 -55.5t296 -36.5l-35 -113q-201 33 -359.5 71t-279.5 91t-206 123.5t-139.5 168t-80 223.5t-25.5 292zM221 756q0 -344 106.5 -504t329.5 -160q221 0 329 161 t108 503t-106.5 504.5t-330.5 162.5q-223 0 -329.5 -160.5t-106.5 -506.5z" />
<glyph unicode="R" horiz-adv-x="1167" d="M168 0v1505q86 16 166 24.5t158 8.5q299 0 437 -115.5t138 -369.5q0 -184 -71.5 -294t-225.5 -157l324 -602h-138l-303 578q-39 -6 -80 -8.5t-88 -2.5q-43 0 -93 3t-97 8v-578h-127zM295 692q45 -6 100.5 -10t106.5 -4q231 0 333.5 88t102.5 287q0 197 -100.5 284.5 t-327.5 87.5q-45 0 -100.5 -4t-114.5 -14v-715z" />
<glyph unicode="S" horiz-adv-x="1017" d="M76 41l12 113q37 -14 87 -25.5t103.5 -21t105.5 -14.5t97 -5q162 0 250 75t88 214q0 63 -22.5 112.5t-65.5 89t-105.5 71.5t-144.5 63q-100 37 -171.5 75.5t-118 88t-68 111t-21.5 142.5q0 94 32 170t91.5 130.5t143.5 84t186 29.5q152 0 334 -45l-10 -113 q-92 23 -173 34.5t-145 11.5q-152 0 -242 -82t-90 -217q0 -57 17.5 -101.5t56.5 -80.5t100.5 -67.5t149.5 -64.5q96 -37 170 -75.5t123 -90t74.5 -118t25.5 -156.5q0 -193 -120 -299.5t-337 -106.5q-47 0 -100 5.5t-108.5 14.5t-108.5 21.5t-96 26.5z" />
<glyph unicode="T" horiz-adv-x="1036" d="M29 1401v115h977v-115h-424v-1401h-129v1401h-424z" />
<glyph unicode="U" horiz-adv-x="1363" d="M154 600v916h127v-914q0 -270 97 -389t304 -119q205 0 302 119t97 389v914h127v-916q0 -164 -29.5 -280.5t-94 -192.5t-164 -111.5t-238.5 -35.5t-239.5 35.5t-165 111.5t-94 192.5t-29.5 280.5z" />
<glyph unicode="V" horiz-adv-x="1206" d="M14 1516h129l373 -1115l82 -268h12l82 268l373 1115h127l-504 -1516h-168z" />
<glyph unicode="W" horiz-adv-x="1851" d="M37 1516h135l262 -1082l62 -278h12l70 278l284 1082h142l268 -1082l65 -278h13l65 278l279 1082h133l-402 -1516h-163l-277 1096l-49 235h-10l-54 -235l-292 -1096h-162z" />
<glyph unicode="X" horiz-adv-x="1193" d="M18 0l496 770l-479 746h145l395 -619l21 -41h8l19 41l393 619h143l-483 -750l500 -766h-146l-414 639l-20 39h-6l-21 -39l-405 -639h-146z" />
<glyph unicode="Y" horiz-adv-x="1130" d="M6 1516h137l365 -750l51 -127h12l52 127l364 750h137l-495 -1002v-514h-125v508z" />
<glyph unicode="Z" horiz-adv-x="1021" d="M63 0v98l725 1293v10h-708v115h864v-97l-727 -1296v-10h741v-113h-895z" />
<glyph unicode="[" horiz-adv-x="598" d="M162 -328v2106h377v-101h-267v-1904h267v-101h-377z" />
<glyph unicode="\" horiz-adv-x="620" d="M66 1516h104l387 -1762h-106z" />
<glyph unicode="]" horiz-adv-x="598" d="M59 -227h267v1904h-267v101h375v-2106h-375v101z" />
<glyph unicode="^" horiz-adv-x="790" d="M88 985l260 631h92l260 -631h-94l-207 520h-8l-209 -520h-94z" />
<glyph unicode="_" d="M94 -123h862v-106h-862v106z" />
<glyph unicode="`" horiz-adv-x="464" d="M74 1642h133l147 -368l-90 -21z" />
<glyph unicode="a" horiz-adv-x="946" d="M72 272q0 154 95 237t298 99l221 17v127q0 143 -56.5 203.5t-193.5 60.5q-57 0 -132 -10.5t-146 -26.5l-13 106q174 35 314 35q180 0 266 -85t86 -263v-772h-104l-15 135h-10q-80 -59 -166 -102t-178 -43q-129 0 -197.5 73.5t-68.5 208.5zM199 283q0 -187 176 -187 q39 0 81 13.5t82 33t77.5 43t70.5 45.5v301l-192 -16q-162 -16 -228.5 -69.5t-66.5 -163.5z" />
<glyph unicode="b" horiz-adv-x="1048" d="M141 27v1628h125v-664q53 63 132 98t173 35q193 0 290 -137t97 -416q0 -125 -27.5 -232.5t-87 -186t-151.5 -124.5t-223 -48q-150 0 -328 47zM266 104q109 -22 209 -22q176 0 265 116.5t89 364.5q0 236 -69.5 346.5t-214.5 110.5q-53 0 -102.5 -16.5t-89.5 -46 t-63.5 -69.5t-23.5 -89v-695z" />
<glyph unicode="c" horiz-adv-x="827" d="M90 553q0 573 459 573q88 0 201 -26v-111q-51 14 -98.5 19.5t-92.5 5.5q-174 0 -257 -111.5t-83 -349.5t82 -349.5t256 -111.5q43 0 88 5t105 20v-109q-41 -12 -96.5 -20t-104.5 -8q-231 0 -345 140t-114 433z" />
<glyph unicode="d" d="M90 547q0 283 127 430t352 147q53 0 104.5 -5t110.5 -13v549h123v-1655h-108l-13 119h-8q-102 -137 -297 -137q-197 0 -294 138t-97 427zM219 553q0 -467 285 -467q51 0 102 16.5t90 46t63.5 71.5t24.5 93v686q-61 10 -112 16.5t-105 6.5q-170 0 -259 -115.5t-89 -353.5z " />
<glyph unicode="e" horiz-adv-x="960" d="M90 532q0 289 110.5 440.5t323.5 151.5q174 0 263.5 -120.5t89.5 -354.5q0 -49 -2.5 -83t-6.5 -62h-651q16 -416 326 -416q131 0 282 64l11 -107q-66 -29 -144.5 -46t-156.5 -17q-215 0 -330 142t-115 408zM219 604h539q-4 221 -59.5 318.5t-176.5 97.5 q-141 0 -217 -105.5t-86 -310.5z" />
<glyph unicode="f" horiz-adv-x="598" d="M33 997v109h182v76q0 133 18.5 221t64.5 142t124 80t196 36l5 -102q-86 -8 -141.5 -27t-87.5 -58.5t-43 -105t-11 -168.5v-94h231v-109h-231v-997h-125v997h-182z" />
<glyph unicode="g" horiz-adv-x="1048" d="M90 549q0 281 127 428t352 147q86 0 169 -10t171 -37v-960q0 -154 -29.5 -262.5t-86 -176t-138.5 -98.5t-188 -31q-78 0 -150.5 12.5t-138.5 35.5l10 108q72 -25 137.5 -37t133.5 -12q162 0 243.5 96t85.5 328v49h-10q-102 -137 -295 -137q-199 0 -296 135t-97 422z M219 555q0 -461 285 -461q51 0 102 16.5t90 46t63.5 69.5t24.5 89v684q-63 10 -113 16.5t-104 6.5q-170 0 -259 -114.5t-89 -352.5z" />
<glyph unicode="h" horiz-adv-x="1044" d="M143 0v1655h125v-672q121 72 213 107.5t178 35.5q131 0 189.5 -67.5t58.5 -224.5v-834h-123v803q0 113 -37.5 161t-123.5 48q-154 0 -355 -125v-887h-125z" />
<glyph unicode="i" horiz-adv-x="413" d="M121 1452q0 84 86 84q88 0 88 -84q0 -86 -88 -86q-86 0 -86 86zM145 0v1106h123v-1106h-123z" />
<glyph unicode="j" horiz-adv-x="409" d="M-4 -408q78 139 113.5 293t35.5 348v873h123v-924q0 -166 -48 -329.5t-136 -303.5zM119 1452q0 84 86 84t86 -84q0 -86 -86 -86t-86 86z" />
<glyph unicode="k" horiz-adv-x="954" d="M143 0v1655h125v-1037h168l342 488h142l-369 -518l-31 -19v-6l33 -20l399 -543h-139l-381 518h-164v-518h-125z" />
<glyph unicode="l" horiz-adv-x="419" d="M147 0v1655h125v-1655h-125z" />
<glyph unicode="m" horiz-adv-x="1624" d="M143 0v1106h103l10 -123h6q111 74 199 108.5t168 34.5q182 0 229 -145h8q111 76 200 110.5t171 34.5q131 0 190.5 -67.5t59.5 -224.5v-834h-123v803q0 113 -39 161t-123 48q-72 0 -152.5 -31t-172.5 -90v-891h-123v803q0 113 -38 161t-124 48q-143 0 -326 -123v-889h-123 z" />
<glyph unicode="n" horiz-adv-x="1044" d="M143 0v1106h105l12 -123h8q121 74 213 108.5t178 34.5q131 0 189.5 -67.5t58.5 -224.5v-834h-123v803q0 115 -38.5 162t-122.5 47q-76 0 -166 -33t-189 -92v-887h-125z" />
<glyph unicode="o" d="M90 553q0 281 111.5 427t324.5 146t324 -146t111 -427t-111 -426t-324 -145q-215 0 -325.5 145t-110.5 426zM217 553q0 -238 75.5 -350.5t233.5 -112.5t233 111.5t75 351.5t-76 352.5t-232 112.5q-158 0 -233.5 -112.5t-75.5 -352.5z" />
<glyph unicode="p" d="M143 -451v1557h111l10 -117h8q53 66 129 100.5t172 34.5q193 0 290.5 -137t97.5 -416q0 -125 -28 -233.5t-87.5 -188t-151.5 -124.5t-221 -45q-53 0 -105.5 5t-99.5 15v-451h-125zM268 104q53 -10 106.5 -16t102.5 -6q176 0 265 116.5t89 364.5q0 236 -70.5 346.5 t-213.5 110.5q-53 0 -103.5 -16.5t-89.5 -46t-62.5 -71.5t-23.5 -91v-691z" />
<glyph unicode="q" horiz-adv-x="1048" d="M90 547q0 279 125 428t356 149q92 0 176 -9t160 -32v-1534h-121v570q-115 -137 -305 -137q-199 0 -295 139t-96 426zM217 555q0 -469 287 -469q55 0 105 17.5t88 48t61.5 71.5t23.5 90v688q-72 12 -120 16.5t-95 4.5q-350 0 -350 -467z" />
<glyph unicode="r" horiz-adv-x="667" d="M143 0v1106h105l12 -135h8q70 47 159 89t183 64h33v-131h-45q-96 -16 -180 -48t-150 -75v-870h-125z" />
<glyph unicode="s" horiz-adv-x="802" d="M84 20v109q76 -23 149.5 -34t139.5 -11q111 0 170 54.5t59 152.5q0 94 -51 143t-150 74q-53 12 -107 28.5t-98 50.5t-72 90t-28 150q0 141 90 223.5t250 82.5q53 0 106.5 -8.5t145.5 -28.5l-2 -109q-82 20 -136 28.5t-101 8.5q-111 0 -171.5 -51t-60.5 -144 q0 -55 17.5 -91t47 -58.5t69.5 -36.5t87 -27q68 -18 121 -41.5t90 -60.5t57.5 -90t20.5 -129q0 -147 -93 -232.5t-249 -85.5q-61 0 -129 10.5t-172 32.5z" />
<glyph unicode="t" horiz-adv-x="704" d="M29 993v113h219l18 266l101 19v-285h307v-113h-307v-690q0 -207 182 -207q27 0 60.5 4t64.5 13v-107q-84 -18 -152 -18q-279 0 -278 295v710h-215z" />
<glyph unicode="u" horiz-adv-x="1042" d="M135 272v834h125v-805q0 -111 38 -159t128 -48q82 0 165 34t185 99v879h125v-1106h-106l-11 125h-8q-63 -39 -114.5 -66.5t-96.5 -45t-86 -25.5t-84 -8q-135 0 -197.5 70.5t-62.5 221.5z" />
<glyph unicode="v" horiz-adv-x="980" d="M33 1094v12h129l289 -875l34 -118h13l34 118l289 875h127v-12l-375 -1094h-167z" />
<glyph unicode="w" horiz-adv-x="1431" d="M47 1096v10h119l190 -789l35 -165h12l41 165l209 789h125l213 -789l41 -165h12l35 165l187 789h118v-10l-272 -1096h-141l-221 805l-29 125h-10l-29 -125l-217 -805h-143z" />
<glyph unicode="x" horiz-adv-x="978" d="M25 0v14l381 559l-359 521v12h133l258 -381l49 -78h9l49 78l254 381h135v-12l-361 -531l381 -549v-14h-133l-276 414l-53 80h-9l-51 -80l-272 -414h-135z" />
<glyph unicode="y" horiz-adv-x="989" d="M31 1094v12h127l299 -836l35 -125h8l35 125l299 836h127v-12l-564 -1545l-118 25v12l151 418z" />
<glyph unicode="z" horiz-adv-x="856" d="M66 0v84l544 905v8h-524v109h682v-80l-545 -907v-10h565v-109h-722z" />
<glyph unicode="{" horiz-adv-x="700" d="M51 684v100q76 0 118 57.5t42 164.5v544q0 63 10 107.5t36 71t68 38t103 11.5q20 0 52 -1t63.5 -3t58.5 -3.5t35 -3.5v-90h-205q-61 0 -85.5 -23.5t-24.5 -82.5v-588q0 -92 -35 -159.5t-94 -90.5q59 -23 94 -89t35 -159v-589q0 -61 24.5 -85t85.5 -24h205v-90 q-8 -2 -33.5 -4t-58.5 -3t-64.5 -2t-52.5 -1q-61 0 -103 11t-67 37.5t-36 70.5t-11 110v547q0 106 -42 163.5t-118 57.5z" />
<glyph unicode="|" horiz-adv-x="446" d="M162 -451v2106h121v-2106h-121z" />
<glyph unicode="}" horiz-adv-x="698" d="M63 -213h203q63 0 88 23.5t25 85.5v589q0 92 35 159t94 89q-59 23 -94 90.5t-35 159.5v588q0 59 -24.5 82.5t-88.5 23.5h-203v90q8 2 34 3.5t58.5 3.5t64.5 3t52 1q61 0 103.5 -11.5t68 -38t35.5 -70.5t10 -108v-544q0 -106 41 -164t119 -58v-100q-78 0 -119 -57.5 t-41 -163.5v-547q0 -66 -10 -110t-35.5 -70.5t-67.5 -37.5t-104 -11q-20 0 -52 1t-64.5 2t-58 3t-34.5 4v90z" />
<glyph unicode="~" horiz-adv-x="1114" d="M123 588q45 53 81 89t68.5 57.5t64.5 30.5t66 9q51 0 91.5 -23.5t75 -53t70.5 -53t79 -23.5q53 0 105.5 38.5t76.5 98.5l90 -45q-18 -39 -47 -75t-64.5 -63.5t-75.5 -44t-81 -16.5q-55 0 -97 23.5t-78 53.5t-69 53.5t-67 23.5q-51 0 -97.5 -33t-111.5 -111z" />
<glyph unicode="&#xa1;" horiz-adv-x="417" d="M129 1016q0 39 22.5 61.5t63.5 22.5t63.5 -22.5t22.5 -61.5t-22.5 -62.5t-63.5 -23.5t-63.5 22.5t-22.5 63.5zM145 -389l23 1122v29h82v-29l22 -1122v-21h-127v21z" />
<glyph unicode="&#xa2;" horiz-adv-x="866" d="M92 553q0 520 383 567v234h98v-228q82 -4 179 -26v-111q-51 14 -98.5 19.5t-92.5 5.5q-174 0 -257 -111.5t-83 -349.5t82 -349.5t256 -111.5q43 0 88 5t105 20v-109q-37 -10 -85.5 -18t-93.5 -10v-224h-98v228q-383 43 -383 569z" />
<glyph unicode="&#xa3;" horiz-adv-x="1110" d="M90 0v115h252v583h-252v109h252v274q0 229 85 337t286 108q129 0 309 -58l-18 -108q-78 27 -150 39t-127 12q-141 0 -200.5 -75.5t-59.5 -256.5v-272h377v-109h-377v-583h528v-115h-905z" />
<glyph unicode="&#xa4;" horiz-adv-x="1138" d="M106 371l109 112l104 72q-39 88 -38 203q0 113 38 203l-104 71l-109 113l74 76l115 -109l61 -90q80 109 215 108q66 0 119 -28.5t90 -79.5l64 90l114 109l74 -76l-108 -113l-109 -74q39 -90 39 -200q0 -113 -39 -203l109 -72l108 -112l-74 -76l-114 108l-64 91 q-37 -53 -91 -82t-120 -29q-139 0 -215 109l-59 -89l-115 -108zM379 758q0 -131 52 -203t138 -72t136.5 71t50.5 204t-50.5 202.5t-136.5 69.5t-138 -69.5t-52 -202.5z" />
<glyph unicode="&#xa5;" horiz-adv-x="1218" d="M53 1516h137l365 -750l51 -127h12l52 127l364 750h137l-450 -912h285v-98h-330v-189h330v-98h-330v-219h-125v219h-348v98h348v189h-348v98h301z" />
<glyph unicode="&#xa6;" horiz-adv-x="428" d="M154 416h120v-867h-120v867zM154 788v867h120v-867h-120z" />
<glyph unicode="&#xa7;" horiz-adv-x="858" d="M111 20v107q74 -23 149.5 -34t140.5 -11q109 0 168.5 55.5t59.5 153.5q0 94 -51.5 143t-151.5 76q-53 12 -106.5 28.5t-98.5 49.5t-72.5 89t-27.5 150q0 61 18.5 111.5t50.5 87.5q-31 35 -50 85t-19 126q0 141 91 223t249 82q55 0 108.5 -7t145.5 -28l-2 -106 q-88 20 -138.5 27.5t-97.5 7.5q-111 0 -173 -52.5t-62 -144.5q0 -55 18.5 -91t49 -59.5t70.5 -37t85 -25.5q66 -18 119 -41.5t90 -60.5t57.5 -90.5t20.5 -128.5q0 -119 -68 -203q68 -74 68 -207q0 -143 -93 -230.5t-249 -87.5q-59 0 -127 10.5t-172 32.5zM240 831 q0 -57 17 -94t47 -59.5t68 -36.5t79 -27q39 -12 74.5 -25.5t64.5 -29.5q43 55 43 139q0 96 -49 146.5t-144 77.5q-35 10 -72.5 20t-70.5 27q-57 -53 -57 -138z" />
<glyph unicode="&#xa8;" horiz-adv-x="833" d="M121 1391q0 41 21.5 59t58.5 18t59.5 -18t22.5 -59t-22.5 -60.5t-59.5 -19.5t-58.5 19.5t-21.5 60.5zM518 1391q0 78 80 77q35 0 57.5 -18t22.5 -59t-22.5 -60.5t-57.5 -19.5q-80 0 -80 80z" />
<glyph unicode="&#xa9;" horiz-adv-x="1712" d="M94 758q0 174 55.5 318.5t154.5 246.5t239.5 158.5t312.5 56.5t312.5 -56.5t239.5 -158.5t154.5 -246.5t55.5 -318.5q0 -176 -55.5 -319.5t-154.5 -246t-239.5 -159t-312.5 -56.5t-312.5 56.5t-239.5 159t-154.5 246t-55.5 319.5zM188 758q0 -156 47.5 -283t135.5 -217 t210.5 -139t274.5 -49t275.5 49t211 139t134.5 217t47 283t-47 282.5t-134.5 218t-211 140.5t-275.5 49t-274.5 -49t-210.5 -140.5t-135.5 -218.5t-47.5 -282zM512 750q0 213 101.5 318.5t275.5 105.5q45 0 89 -5.5t85 -15.5v-94q-41 8 -83 13t-83 5q-133 0 -208 -81 t-75 -246q0 -166 77 -244t204 -78q41 0 84 5t88 13v-90q-84 -22 -178 -22q-174 0 -275.5 103.5t-101.5 312.5z" />
<glyph unicode="&#xaa;" horiz-adv-x="790" d="M88 922q0 102 72.5 165.5t214.5 75.5l178 17v75q0 96 -40 135.5t-151 39.5q-31 0 -76.5 -4.5t-121.5 -16.5l-12 94q160 25 239 25q145 0 209 -60.5t64 -193.5v-553h-93l-8 96h-8q-82 -53 -142.5 -78.5t-115.5 -25.5q-94 0 -151.5 57t-57.5 152zM195 932q0 -129 129 -129 q45 0 96 19.5t133 64.5v209l-96 -6q-150 -10 -206 -46t-56 -112z" />
<glyph unicode="&#xab;" horiz-adv-x="983" d="M76 549v8l250 487h131l-250 -487v-8l250 -488h-131zM514 549v8l250 487h131l-250 -487v-8l250 -488h-131z" />
<glyph unicode="&#xac;" horiz-adv-x="1499" d="M121 756v110h1241v-624h-123v514h-1118z" />
<glyph unicode="&#xad;" horiz-adv-x="741" d="M125 518v111h489v-111h-489z" />
<glyph unicode="&#xae;" horiz-adv-x="1452" d="M98 913q0 135 47.5 251t130 200t197.5 131t252 47t253 -47t200 -131t131 -199.5t47 -251.5q0 -137 -47 -251.5t-131 -198.5t-200 -131t-253 -47t-252 47t-197.5 131t-130 198.5t-47.5 251.5zM184 913q0 -119 40 -219t112 -171.5t171 -112.5t218 -41t219 41t172 112.5 t113 172t41 218.5q0 119 -41 218.5t-113 172t-172 113.5t-219 41t-218 -41t-171 -113.5t-112 -172t-40 -218.5zM496 573v697q55 6 102 10t88 4q164 0 241 -53t77 -168q0 -158 -152 -205l-2 -6l178 -279h-98l-168 263l-180 2v-265h-86zM582 918q18 -2 50.5 -3.5t61.5 -1.5 q223 0 224 148q0 78 -52.5 112.5t-169.5 34.5q-23 0 -51.5 -2t-62.5 -6v-282z" />
<glyph unicode="&#xaf;" horiz-adv-x="788" d="M113 1327v98h546v-98h-546z" />
<glyph unicode="&#xb0;" horiz-adv-x="829" d="M88 1147q0 82 24.5 152.5t67.5 123t103.5 81t132.5 28.5t131 -28.5t102 -81t66.5 -123t23.5 -152.5q0 -84 -23.5 -153.5t-66.5 -121t-102 -80t-131 -28.5t-132.5 28.5t-103.5 80t-67.5 121t-24.5 153.5zM178 1147q0 -129 62.5 -210t175.5 -81q111 0 172 81t61 210 t-61.5 211t-171.5 82q-113 0 -175.5 -82t-62.5 -211z" />
<glyph unicode="&#xb1;" horiz-adv-x="1048" d="M137 205v102h774v-102h-774zM137 827v103h336v352h102v-352h336v-103h-336v-348h-102v348h-336z" />
<glyph unicode="&#xb2;" horiz-adv-x="737" d="M76 616v150q0 131 61.5 231.5t204.5 198.5q106 74 150.5 134.5t44.5 131.5q0 178 -197 178q-78 0 -219 -38l-19 102q74 23 136.5 33t117.5 10q145 0 220 -69.5t75 -209.5q0 -102 -53 -181t-176 -165q-121 -88 -172 -165.5t-51 -176.5v-61h452v-103h-575z" />
<glyph unicode="&#xb3;" horiz-adv-x="702" d="M80 1722q53 12 102 19.5t94 7.5q152 0 233 -76t81 -217q0 -98 -46 -164.5t-132 -97.5q207 -59 206 -287q0 -145 -90 -225t-256 -80q-90 0 -184 23v100h18q33 -8 76 -13t80 -5q117 0 179.5 55t62.5 153q0 225 -266 226h-58v98h60q113 0 174 54.5t61 152.5q0 96 -51 147.5 t-156 51.5q-31 0 -69.5 -5.5t-85.5 -15.5h-21z" />
<glyph unicode="&#xb4;" horiz-adv-x="446" d="M90 1262l150 376h131l-191 -389z" />
<glyph unicode="&#xb5;" horiz-adv-x="1091" d="M160 -451v1557h123v-805q0 -209 170 -209q80 0 160.5 32t187.5 95v887h125v-1106h-107l-12 125h-8q-63 -39 -114.5 -66.5t-95.5 -45t-85 -25.5t-84 -8q-78 0 -137 26v-457h-123z" />
<glyph unicode="&#xb6;" horiz-adv-x="1032" d="M76 1034q0 137 28.5 231.5t81 152t126 83t163.5 25.5q41 0 74 -5t76 -16v-1505h-95v545q-12 -2 -31.5 -2h-35.5q-88 0 -160 25.5t-122 83t-77.5 151.5t-27.5 231zM745 0v1505h107v-1505h-107z" />
<glyph unicode="&#xb7;" horiz-adv-x="417" d="M121 758q0 88 88 88q41 0 64.5 -21.5t23.5 -66.5t-23.5 -66.5t-64.5 -21.5q-88 0 -88 88z" />
<glyph unicode="&#xb8;" horiz-adv-x="561" d="M59 -330q63 -23 125 -22q141 0 142 135q0 106 -86 242h104q45 -76 64.5 -136.5t19.5 -113.5q0 -111 -57 -168.5t-168 -57.5q-72 0 -144 23v98z" />
<glyph unicode="&#xb9;" horiz-adv-x="559" d="M41 1516l2 20l291 197h78v-1119h-115v975l-207 -131h-20z" />
<glyph unicode="&#xba;" horiz-adv-x="851" d="M94 1118q0 209 88 310.5t246 101.5q154 0 242 -101.5t88 -310.5t-88 -310t-242 -101q-158 0 -246 101t-88 310zM201 1118q0 -90 17.5 -151.5t47 -98.5t71.5 -53t91 -16q47 0 88 16t70.5 53t47 98.5t17.5 151.5q0 92 -17.5 153.5t-47 98.5t-70.5 53.5t-88 16.5 q-49 0 -91 -16.5t-71.5 -53.5t-47 -98.5t-17.5 -153.5z" />
<glyph unicode="&#xbb;" horiz-adv-x="983" d="M88 61l250 488v8l-250 487h129l252 -487v-8l-252 -488h-129zM526 61l250 488v8l-250 487h129l252 -487v-8l-252 -488h-129z" />
<glyph unicode="&#xbc;" horiz-adv-x="1685" d="M51 1311l2 20l291 197h78v-1118h-115v974l-207 -131h-20zM420 0l592 1516h114l-591 -1516h-115zM907 340l371 788l18 5l84 -19l4 -20l-350 -725h352l31 411h80v-411h129v-97h-129v-272h-115v272h-442z" />
<glyph unicode="&#xbd;" horiz-adv-x="1759" d="M51 1311l2 20l291 197h78v-1118h-115v974l-207 -131h-20zM420 0l592 1516h114l-591 -1516h-115zM1085 0v150q0 66 14.5 121t45.5 105t82 100t125 104q55 41 93 73.5t60.5 63.5t31.5 60.5t9 66.5q0 180 -192 180q-51 0 -110.5 -10t-113.5 -29l-18 102q150 43 254 43 q145 0 220 -70.5t75 -207.5q0 -51 -11.5 -92t-38 -81t-70.5 -82t-109 -91q-63 -49 -106.5 -90t-69 -81t-37 -81t-11.5 -90v-62h453v-102h-576z" />
<glyph unicode="&#xbe;" horiz-adv-x="1832" d="M102 1518q53 12 102.5 19t94.5 7q152 0 232.5 -75.5t80.5 -217.5q0 -98 -46 -164.5t-132 -97.5q207 -59 207 -287q0 -145 -90 -225t-256 -80q-90 0 -184 23v100h18q33 -8 76 -13t80 -5q117 0 179 55t62 154q0 225 -266 225h-57v98h59q113 0 174.5 54.5t61.5 152.5 q0 96 -51.5 147.5t-155.5 51.5q-31 0 -70 -5t-86 -16h-20zM547 0l592 1516h114l-591 -1516h-115zM1057 340l370 788l19 5l84 -19l4 -20l-350 -725h352l31 411h80v-411h129v-97h-129v-272h-115v272h-442z" />
<glyph unicode="&#xbf;" horiz-adv-x="823" d="M61 -20q0 109 38 183.5t96.5 124.5t130 79.5t139.5 48.5v356h100v-39l8 -393q-61 -16 -129.5 -38.5t-126 -62.5t-95.5 -100.5t-38 -152.5q0 -86 27 -143.5t69 -92.5t96 -49t109 -14q66 0 133.5 14t131.5 35l22 -101q-66 -25 -143.5 -41t-157.5 -16q-78 0 -151.5 20.5 t-131 66.5t-92.5 123t-35 192zM426 1032q0 41 22.5 62.5t63.5 21.5t63.5 -21.5t22.5 -62.5t-22.5 -62.5t-63.5 -21.5t-63.5 22.5t-22.5 61.5z" />
<glyph unicode="&#xc0;" horiz-adv-x="1189" d="M16 0v12l488 1504h180l487 -1504v-12h-120l-158 479h-598l-156 -479h-123zM328 592h532l-188 573l-72 236h-12l-72 -236zM352 1898h133l156 -253l-102 -27z" />
<glyph unicode="&#xc1;" horiz-adv-x="1189" d="M16 0v12l488 1504h180l487 -1504v-12h-120l-158 479h-598l-156 -479h-123zM328 592h532l-188 573l-72 236h-12l-72 -236zM535 1628l155 270h133l-186 -280z" />
<glyph unicode="&#xc2;" horiz-adv-x="1189" d="M16 0v12l488 1504h180l487 -1504v-12h-120l-158 479h-598l-156 -479h-123zM313 1667v115l283 147l283 -147v-115l-283 148zM328 592h532l-188 573l-72 236h-12l-72 -236z" />
<glyph unicode="&#xc3;" horiz-adv-x="1189" d="M16 0v12l488 1504h180l487 -1504v-12h-120l-158 479h-598l-156 -479h-123zM264 1745q41 55 97.5 92t111.5 37q43 0 78 -13.5t67.5 -31t66.5 -30.5t71 -13t71.5 21.5t63.5 60.5l53 -45q-35 -61 -91 -98t-116 -37q-41 0 -75.5 13t-67.5 29.5t-65.5 30t-69.5 13.5 q-39 0 -76 -21.5t-70 -56.5zM328 592h532l-188 573l-72 236h-12l-72 -236z" />
<glyph unicode="&#xc4;" horiz-adv-x="1189" d="M16 0v12l488 1504h180l487 -1504v-12h-120l-158 479h-598l-156 -479h-123zM297 1757q0 45 22.5 65.5t63.5 20.5t65.5 -20.5t24.5 -65.5q0 -47 -24.5 -67.5t-65.5 -20.5t-63.5 21.5t-22.5 66.5zM328 592h532l-188 573l-72 236h-12l-72 -236zM717 1757q0 45 23.5 65.5 t64.5 20.5q39 0 63.5 -20.5t24.5 -65.5q0 -47 -24.5 -67.5t-63.5 -20.5q-41 0 -64.5 21.5t-23.5 66.5z" />
<glyph unicode="&#xc5;" horiz-adv-x="1189" d="M16 0v12l488 1504h37q-72 16 -113 72.5t-41 133.5q0 90 55.5 151.5t153.5 61.5t152.5 -61.5t54.5 -151.5q0 -78 -41 -134t-113 -72h35l487 -1504v-12h-120l-158 479h-598l-156 -479h-123zM328 592h532l-188 573l-72 236h-12l-72 -236zM471 1722q0 -59 32 -96t93 -37 q59 0 92 37t33 96t-32 96t-93 37q-63 0 -94 -36.5t-31 -96.5z" />
<glyph unicode="&#xc6;" horiz-adv-x="1599" d="M14 0v12l537 1504h944v-113h-629l27 -578h543v-114h-537l29 -598h585v-113h-710l-21 477h-473l-170 -477h-125zM350 592h428l-33 813h-102z" />
<glyph unicode="&#xc7;" horiz-adv-x="1062" d="M98 756q0 205 37 351t116 241.5t198.5 140.5t285.5 45q55 0 122 -7t134 -18v-112q-55 10 -118.5 16t-120.5 6q-139 0 -237.5 -36.5t-162 -116.5t-93.5 -206t-30 -304q0 -346 124 -504t386 -158q20 0 52 2t67 5t70 7.5t63 10.5v-109q-53 -14 -117.5 -22t-136.5 -8h-4 q59 -117 60 -205q0 -111 -57.5 -168.5t-168.5 -57.5q-72 0 -143 23v98q63 -23 125 -22q141 0 141 135q0 92 -63 205q-272 31 -400.5 217t-128.5 551z" />
<glyph unicode="&#xc8;" horiz-adv-x="1093" d="M168 0v1516h821v-113h-694v-578h633v-112h-633v-600h713v-113h-840zM338 1898h133l156 -253l-103 -27z" />
<glyph unicode="&#xc9;" horiz-adv-x="1093" d="M168 0v1516h821v-113h-694v-578h633v-112h-633v-600h713v-113h-840zM518 1628l156 270h133l-186 -280z" />
<glyph unicode="&#xca;" horiz-adv-x="1093" d="M168 0v1516h821v-113h-694v-578h633v-112h-633v-600h713v-113h-840zM297 1667v115l283 147l282 -147v-115l-282 148z" />
<glyph unicode="&#xcb;" horiz-adv-x="1093" d="M168 0v1516h821v-113h-694v-578h633v-112h-633v-600h713v-113h-840zM281 1757q0 45 22.5 65.5t63.5 20.5t65.5 -20.5t24.5 -65.5q0 -47 -24.5 -67.5t-65.5 -20.5t-63.5 21.5t-22.5 66.5zM700 1757q0 45 24 65.5t64 20.5q39 0 64 -20.5t25 -65.5q0 -47 -25 -67.5 t-64 -20.5q-41 0 -64.5 21.5t-23.5 66.5z" />
<glyph unicode="&#xcc;" horiz-adv-x="462" d="M-4 1898h133l156 -253l-103 -27zM168 0v1516h127v-1516h-127z" />
<glyph unicode="&#xcd;" horiz-adv-x="462" d="M168 0v1516h127v-1516h-127zM176 1628l156 270h133l-186 -280z" />
<glyph unicode="&#xce;" horiz-adv-x="462" d="M-47 1667v115l283 147l282 -147v-115l-282 148zM168 0v1516h127v-1516h-127z" />
<glyph unicode="&#xcf;" horiz-adv-x="462" d="M-61 1757q0 45 22.5 65.5t63.5 20.5t65.5 -20.5t24.5 -65.5q0 -47 -24.5 -67.5t-65.5 -20.5t-63.5 21.5t-22.5 66.5zM168 0v1516h127v-1516h-127zM358 1757q0 45 24 65.5t64 20.5q39 0 64 -20.5t25 -65.5q0 -47 -25 -67.5t-64 -20.5q-41 0 -64.5 21.5t-23.5 66.5z" />
<glyph unicode="&#xd0;" horiz-adv-x="1296" d="M2 700v109h188v696q96 14 185.5 22.5t156.5 8.5q344 0 506 -189.5t162 -590.5q0 -205 -43 -353.5t-132 -245t-226 -142.5t-328 -46q-78 0 -149.5 5.5t-131.5 15.5v710h-188zM315 96q55 -8 98.5 -11t86.5 -3q291 0 430 164t139 510q0 350 -127 508.5t-403 158.5 q-53 0 -111.5 -4t-112.5 -14v-596h336v-109h-336v-604z" />
<glyph unicode="&#xd1;" horiz-adv-x="1411" d="M168 0v1516h121l723 -1127l102 -176h10v1303h119v-1516h-123l-721 1122l-102 178h-12v-1300h-117zM381 1745q41 55 97.5 92t111.5 37q43 0 77.5 -13.5t67.5 -31t67 -30.5t70 -13q37 0 72 21.5t64 60.5l53 -45q-35 -61 -91.5 -98t-115.5 -37q-41 0 -76 13t-67.5 29.5 t-65.5 30t-70 13.5q-39 0 -75.5 -21.5t-69.5 -56.5z" />
<glyph unicode="&#xd2;" horiz-adv-x="1323" d="M98 756q0 393 141.5 586.5t422.5 193.5t422 -194.5t141 -585.5q0 -387 -142 -581.5t-421 -194.5q-281 0 -422.5 193.5t-141.5 582.5zM227 756q0 -344 106 -504t329 -160t328.5 161t105.5 503t-106.5 504.5t-327.5 162.5q-223 0 -329 -160.5t-106 -506.5zM418 1898h133 l156 -253l-103 -27z" />
<glyph unicode="&#xd3;" horiz-adv-x="1323" d="M98 756q0 393 141.5 586.5t422.5 193.5t422 -194.5t141 -585.5q0 -387 -142 -581.5t-421 -194.5q-281 0 -422.5 193.5t-141.5 582.5zM227 756q0 -344 106 -504t329 -160t328.5 161t105.5 503t-106.5 504.5t-327.5 162.5q-223 0 -329 -160.5t-106 -506.5zM602 1628 l156 270h133l-186 -280z" />
<glyph unicode="&#xd4;" horiz-adv-x="1323" d="M98 756q0 393 141.5 586.5t422.5 193.5t422 -194.5t141 -585.5q0 -387 -142 -581.5t-421 -194.5q-281 0 -422.5 193.5t-141.5 582.5zM227 756q0 -344 106 -504t329 -160t328.5 161t105.5 503t-106.5 504.5t-327.5 162.5q-223 0 -329 -160.5t-106 -506.5zM381 1667v115 l283 147l282 -147v-115l-282 148z" />
<glyph unicode="&#xd5;" horiz-adv-x="1323" d="M98 756q0 393 141.5 586.5t422.5 193.5t422 -194.5t141 -585.5q0 -387 -142 -581.5t-421 -194.5q-281 0 -422.5 193.5t-141.5 582.5zM227 756q0 -344 106 -504t329 -160t328.5 161t105.5 503t-106.5 504.5t-327.5 162.5q-223 0 -329 -160.5t-106 -506.5zM332 1745 q41 55 97 92t112 37q43 0 77.5 -13.5t67.5 -31t66.5 -30.5t70.5 -13t72 21.5t63 60.5l54 -45q-35 -61 -91.5 -98t-115.5 -37q-41 0 -76 13t-67.5 29.5t-65.5 30t-70 13.5q-39 0 -75.5 -21.5t-69.5 -56.5z" />
<glyph unicode="&#xd6;" horiz-adv-x="1323" d="M98 756q0 393 141.5 586.5t422.5 193.5t422 -194.5t141 -585.5q0 -387 -142 -581.5t-421 -194.5q-281 0 -422.5 193.5t-141.5 582.5zM227 756q0 -344 106 -504t329 -160t328.5 161t105.5 503t-106.5 504.5t-327.5 162.5q-223 0 -329 -160.5t-106 -506.5zM362 1757 q0 45 23 65.5t64 20.5t65.5 -20.5t24.5 -65.5q0 -47 -24.5 -67.5t-65.5 -20.5t-64 21.5t-23 66.5zM782 1757q0 45 23.5 65.5t64.5 20.5q39 0 63.5 -20.5t24.5 -65.5q0 -47 -24.5 -67.5t-63.5 -20.5q-41 0 -64.5 21.5t-23.5 66.5z" />
<glyph unicode="&#xd7;" horiz-adv-x="917" d="M113 485l272 273l-272 274l71 74l275 -275l272 275l74 -74l-275 -274l275 -273l-74 -71l-272 272l-275 -272z" />
<glyph unicode="&#xd8;" horiz-adv-x="1339" d="M57 0l162 221q-111 193 -110 535q0 393 141 586.5t420 193.5q252 0 393 -162l102 142h117l-162 -222q113 -197 113 -538q0 -387 -141.5 -581.5t-421.5 -194.5q-254 0 -391 159l-103 -139h-119zM238 756q0 -268 63 -422l686 938q-106 152 -317 151q-223 0 -327.5 -160.5 t-104.5 -506.5zM350 240q105 -148 320 -148q223 0 329.5 161t106.5 503q0 266 -68 426z" />
<glyph unicode="&#xd9;" horiz-adv-x="1363" d="M154 600v916h127v-914q0 -270 97 -389t304 -119q205 0 302 119t97 389v914h127v-916q0 -164 -29.5 -280.5t-94 -192.5t-164 -111.5t-238.5 -35.5t-239.5 35.5t-165 111.5t-94 192.5t-29.5 280.5zM436 1898h133l156 -253l-102 -27z" />
<glyph unicode="&#xda;" horiz-adv-x="1363" d="M154 600v916h127v-914q0 -270 97 -389t304 -119q205 0 302 119t97 389v914h127v-916q0 -164 -29.5 -280.5t-94 -192.5t-164 -111.5t-238.5 -35.5t-239.5 35.5t-165 111.5t-94 192.5t-29.5 280.5zM616 1628l156 270h133l-186 -280z" />
<glyph unicode="&#xdb;" horiz-adv-x="1363" d="M154 600v916h127v-914q0 -270 97 -389t304 -119q205 0 302 119t97 389v914h127v-916q0 -164 -29.5 -280.5t-94 -192.5t-164 -111.5t-238.5 -35.5t-239.5 35.5t-165 111.5t-94 192.5t-29.5 280.5zM395 1667v115l283 147l283 -147v-115l-283 148z" />
<glyph unicode="&#xdc;" horiz-adv-x="1363" d="M154 600v916h127v-914q0 -270 97 -389t304 -119q205 0 302 119t97 389v914h127v-916q0 -164 -29.5 -280.5t-94 -192.5t-164 -111.5t-238.5 -35.5t-239.5 35.5t-165 111.5t-94 192.5t-29.5 280.5zM381 1757q0 45 22.5 65.5t63.5 20.5t65.5 -20.5t24.5 -65.5 q0 -47 -24.5 -67.5t-65.5 -20.5t-63.5 21.5t-22.5 66.5zM801 1757q0 45 23.5 65.5t64.5 20.5q39 0 63.5 -20.5t24.5 -65.5q0 -47 -24.5 -67.5t-63.5 -20.5q-41 0 -64.5 21.5t-23.5 66.5z" />
<glyph unicode="&#xdd;" horiz-adv-x="1130" d="M6 1516h137l365 -750l51 -127h12l52 127l364 750h137l-495 -1002v-514h-125v508zM512 1628l156 270h133l-187 -280z" />
<glyph unicode="&#xde;" horiz-adv-x="1140" d="M168 0v1516h127v-254q51 6 100 10t99 4q297 0 435 -124t138 -392t-140.5 -392t-447.5 -124q-43 0 -89 2t-95 6v-252h-127zM295 371q41 -6 99.5 -10.5t105.5 -4.5q233 0 336.5 95.5t103.5 308.5q0 211 -102.5 307t-329.5 96q-45 0 -103.5 -5t-109.5 -13v-774z" />
<glyph unicode="&#xdf;" horiz-adv-x="1124" d="M143 0v1239q0 221 98.5 321.5t307.5 100.5q207 0 306 -101.5t99 -320.5v-213h-161q-113 0 -176.5 -52t-63.5 -145q0 -57 18.5 -93t49 -58.5t70.5 -35.5t85 -26q66 -18 119 -41.5t90 -60.5t57.5 -90t20.5 -129q0 -143 -93 -230.5t-249 -87.5q-59 0 -127 10.5t-174 32.5 v107q78 -23 152.5 -34t140.5 -11q109 0 168 55.5t59 153.5q0 94 -52 143t-151 76q-53 12 -107.5 28.5t-98.5 49.5t-71.5 89t-27.5 150q0 141 93 223.5t253 82.5h51v106q0 170 -64.5 240.5t-215.5 70.5q-152 0 -216.5 -70.5t-64.5 -240.5v-1239h-125z" />
<glyph unicode="&#xe0;" horiz-adv-x="946" d="M72 272q0 154 95 237t298 99l221 17v127q0 143 -56.5 203.5t-193.5 60.5q-57 0 -132 -10.5t-146 -26.5l-13 106q174 35 314 35q180 0 266 -85t86 -263v-772h-104l-15 135h-10q-80 -59 -166 -102t-178 -43q-129 0 -197.5 73.5t-68.5 208.5zM199 283q0 -187 176 -187 q39 0 81 13.5t82 33t77.5 43t70.5 45.5v301l-192 -16q-162 -16 -228.5 -69.5t-66.5 -163.5zM254 1642h133l148 -368l-91 -21z" />
<glyph unicode="&#xe1;" horiz-adv-x="946" d="M72 272q0 154 95 237t298 99l221 17v127q0 143 -56.5 203.5t-193.5 60.5q-57 0 -132 -10.5t-146 -26.5l-13 106q174 35 314 35q180 0 266 -85t86 -263v-772h-104l-15 135h-10q-80 -59 -166 -102t-178 -43q-129 0 -197.5 73.5t-68.5 208.5zM199 283q0 -187 176 -187 q39 0 81 13.5t82 33t77.5 43t70.5 45.5v301l-192 -16q-162 -16 -228.5 -69.5t-66.5 -163.5zM436 1262l150 376h131l-191 -389z" />
<glyph unicode="&#xe2;" horiz-adv-x="946" d="M72 272q0 154 95 237t298 99l221 17v127q0 143 -56.5 203.5t-193.5 60.5q-57 0 -132 -10.5t-146 -26.5l-13 106q174 35 314 35q180 0 266 -85t86 -263v-772h-104l-15 135h-10q-80 -59 -166 -102t-178 -43q-129 0 -197.5 73.5t-68.5 208.5zM199 283q0 -187 176 -187 q39 0 81 13.5t82 33t77.5 43t70.5 45.5v301l-192 -16q-162 -16 -228.5 -69.5t-66.5 -163.5zM203 1303v112l282 148l283 -148v-112l-283 147z" />
<glyph unicode="&#xe3;" horiz-adv-x="946" d="M72 272q0 154 95 237t298 99l221 17v127q0 143 -56.5 203.5t-193.5 60.5q-57 0 -132 -10.5t-146 -26.5l-13 106q174 35 314 35q180 0 266 -85t86 -263v-772h-104l-15 135h-10q-80 -59 -166 -102t-178 -43q-129 0 -197.5 73.5t-68.5 208.5zM143 1364q41 53 96.5 89 t110.5 36q43 0 78 -14.5t67.5 -32t65.5 -31.5t70 -14q39 0 71.5 21.5t61.5 60.5l57 -49q-35 -61 -91 -96.5t-116 -35.5q-41 0 -75.5 14.5t-67.5 31t-65.5 31t-69.5 14.5t-75 -21.5t-66 -56.5zM199 283q0 -187 176 -187q39 0 81 13.5t82 33t77.5 43t70.5 45.5v301l-192 -16 q-162 -16 -228.5 -69.5t-66.5 -163.5z" />
<glyph unicode="&#xe4;" horiz-adv-x="946" d="M72 272q0 154 95 237t298 99l221 17v127q0 143 -56.5 203.5t-193.5 60.5q-57 0 -132 -10.5t-146 -26.5l-13 106q174 35 314 35q180 0 266 -85t86 -263v-772h-104l-15 135h-10q-80 -59 -166 -102t-178 -43q-129 0 -197.5 73.5t-68.5 208.5zM199 283q0 -187 176 -187 q39 0 81 13.5t82 33t77.5 43t70.5 45.5v301l-192 -16q-162 -16 -228.5 -69.5t-66.5 -163.5zM203 1391q0 41 21.5 59t58.5 18t59.5 -18t22.5 -59t-22.5 -60.5t-59.5 -19.5t-58.5 19.5t-21.5 60.5zM600 1391q0 78 80 77q35 0 57.5 -18t22.5 -59t-22.5 -60.5t-57.5 -19.5 q-80 0 -80 80z" />
<glyph unicode="&#xe5;" horiz-adv-x="946" d="M72 272q0 154 95 237t298 99l221 17v127q0 143 -56.5 203.5t-193.5 60.5q-57 0 -132 -10.5t-146 -26.5l-13 106q174 35 314 35q180 0 266 -85t86 -263v-772h-104l-15 135h-10q-80 -59 -166 -102t-178 -43q-129 0 -197.5 73.5t-68.5 208.5zM199 283q0 -187 176 -187 q39 0 81 13.5t82 33t77.5 43t70.5 45.5v301l-192 -16q-162 -16 -228.5 -69.5t-66.5 -163.5zM270 1462q0 92 56.5 152.5t154.5 60.5t153.5 -60.5t55.5 -152.5q0 -90 -56.5 -151.5t-152.5 -61.5q-98 0 -154.5 61.5t-56.5 151.5zM358 1462q0 -59 32 -96t91 -37t91 38t32 95 q0 59 -31.5 96t-91.5 37q-61 0 -92 -36.5t-31 -96.5z" />
<glyph unicode="&#xe6;" horiz-adv-x="1558" d="M72 272q0 156 95 238t298 98l223 17v135q-2 137 -59.5 196.5t-192.5 59.5q-59 0 -133 -10.5t-145 -26.5l-13 106q180 35 314 35q131 0 205.5 -52t101.5 -157h10q102 213 346 213q174 0 263.5 -120.5t89.5 -354.5q0 -49 -2.5 -81.5t-6.5 -61.5h-653q4 -205 86 -311.5 t242 -106.5q66 0 135.5 14.5t146.5 49.5l11 -107q-66 -29 -145.5 -46t-155.5 -17q-252 0 -359 194l-10 2q-78 -53 -138.5 -89t-109.5 -57.5t-92 -31.5t-86 -10q-129 0 -197.5 73.5t-68.5 208.5zM199 283q0 -187 178 -187q70 0 147.5 42t188.5 114q-6 18 -11.5 54t-8.5 77 t-4 81t-1 68l-194 -16q-162 -12 -228.5 -67.5t-66.5 -165.5zM813 602h541q-4 221 -59.5 318.5t-174.5 97.5q-141 0 -220 -105.5t-87 -310.5z" />
<glyph unicode="&#xe7;" horiz-adv-x="827" d="M88 553q0 573 459 573q88 0 201 -26v-111q-51 14 -98.5 19.5t-92.5 5.5q-174 0 -257 -111.5t-83 -349.5t82 -349.5t256 -111.5q43 0 88 5t105 20v-109q-39 -10 -87.5 -18t-95.5 -10q59 -113 60 -205q0 -111 -57.5 -168.5t-168.5 -57.5q-72 0 -143 23v98q63 -23 125 -22 q141 0 141 135q0 88 -61 203q-188 25 -280.5 164t-92.5 403z" />
<glyph unicode="&#xe8;" horiz-adv-x="960" d="M90 532q0 289 110.5 440.5t323.5 151.5q174 0 263.5 -120.5t89.5 -354.5q0 -49 -2.5 -83t-6.5 -62h-651q16 -416 326 -416q131 0 282 64l11 -107q-66 -29 -144.5 -46t-156.5 -17q-215 0 -330 142t-115 408zM219 604h539q-4 221 -59.5 318.5t-176.5 97.5 q-141 0 -217 -105.5t-86 -310.5zM258 1642h133l148 -368l-90 -21z" />
<glyph unicode="&#xe9;" horiz-adv-x="960" d="M90 532q0 289 110.5 440.5t323.5 151.5q174 0 263.5 -120.5t89.5 -354.5q0 -49 -2.5 -83t-6.5 -62h-651q16 -416 326 -416q131 0 282 64l11 -107q-66 -29 -144.5 -46t-156.5 -17q-215 0 -330 142t-115 408zM219 604h539q-4 221 -59.5 318.5t-176.5 97.5 q-141 0 -217 -105.5t-86 -310.5zM463 1262l149 376h131l-190 -389z" />
<glyph unicode="&#xea;" horiz-adv-x="960" d="M90 532q0 289 110.5 440.5t323.5 151.5q174 0 263.5 -120.5t89.5 -354.5q0 -49 -2.5 -83t-6.5 -62h-651q16 -416 326 -416q131 0 282 64l11 -107q-66 -29 -144.5 -46t-156.5 -17q-215 0 -330 142t-115 408zM217 1303v112l283 148l282 -148v-112l-282 147zM219 604h539 q-4 221 -59.5 318.5t-176.5 97.5q-141 0 -217 -105.5t-86 -310.5z" />
<glyph unicode="&#xeb;" horiz-adv-x="960" d="M90 532q0 289 110.5 440.5t323.5 151.5q174 0 263.5 -120.5t89.5 -354.5q0 -49 -2.5 -83t-6.5 -62h-651q16 -416 326 -416q131 0 282 64l11 -107q-66 -29 -144.5 -46t-156.5 -17q-215 0 -330 142t-115 408zM219 604h539q-4 221 -59.5 318.5t-176.5 97.5 q-141 0 -217 -105.5t-86 -310.5zM221 1391q0 41 21.5 59t58.5 18t59.5 -18t22.5 -59t-22.5 -60.5t-59.5 -19.5t-58.5 19.5t-21.5 60.5zM618 1391q0 78 80 77q35 0 57.5 -18t22.5 -59t-22.5 -60.5t-57.5 -19.5q-80 0 -80 80z" />
<glyph unicode="&#xec;" horiz-adv-x="413" d="M-20 1642h133l147 -368l-90 -21zM145 0v1106h123v-1106h-123z" />
<glyph unicode="&#xed;" horiz-adv-x="413" d="M145 0v1106h123v-1106h-123zM166 1262l149 376h131l-190 -389z" />
<glyph unicode="&#xee;" horiz-adv-x="417" d="M-68 1303v112l281 148l281 -148v-112l-281 147zM147 0v1106h123v-1106h-123z" />
<glyph unicode="&#xef;" horiz-adv-x="417" d="M-66 1391q0 78 80 77q37 0 59.5 -18t22.5 -59t-22.5 -60.5t-59.5 -19.5q-80 0 -80 80zM147 0v1106h123v-1106h-123zM328 1391q0 78 80 77q35 0 57 -18t22 -59t-22 -60.5t-57 -19.5q-80 0 -80 80z" />
<glyph unicode="&#xf0;" horiz-adv-x="1062" d="M90 553q0 281 111.5 427t322.5 146q170 0 267 -141q-20 86 -48 171t-63 167l-254 -37v100l211 31q-31 61 -66.5 120.5t-74.5 117.5h133q35 -51 65.5 -106.5t59.5 -114.5l239 34v-98l-196 -29q76 -180 120 -377.5t44 -394.5q0 -289 -111 -438t-324 -149t-324.5 145 t-111.5 426zM217 553q0 -238 75.5 -350.5t233.5 -112.5t233 116t75 359q0 82 -14.5 164t-49.5 145.5t-94.5 103.5t-149.5 40q-158 0 -233.5 -112.5t-75.5 -352.5z" />
<glyph unicode="&#xf1;" horiz-adv-x="1044" d="M143 0v1106h105l12 -123h8q121 74 213 108.5t178 34.5q131 0 189.5 -67.5t58.5 -224.5v-834h-123v803q0 115 -38.5 162t-122.5 47q-76 0 -166 -33t-189 -92v-887h-125zM195 1364q41 53 96 89t110 36q43 0 78 -14.5t68 -32t65.5 -31.5t69.5 -14q39 0 71.5 21.5t61.5 60.5 l57 -49q-35 -61 -91 -96.5t-115 -35.5q-41 0 -76 14.5t-68 31t-65.5 31t-69.5 14.5t-75 -21.5t-66 -56.5z" />
<glyph unicode="&#xf2;" d="M90 553q0 281 111.5 427t324.5 146t324 -146t111 -427t-111 -426t-324 -145q-215 0 -325.5 145t-110.5 426zM217 553q0 -238 75.5 -350.5t233.5 -112.5t233 111.5t75 351.5t-76 352.5t-232 112.5q-158 0 -233.5 -112.5t-75.5 -352.5zM279 1642h133l147 -368l-90 -21z" />
<glyph unicode="&#xf3;" d="M90 553q0 281 111.5 427t324.5 146t324 -146t111 -427t-111 -426t-324 -145q-215 0 -325.5 145t-110.5 426zM217 553q0 -238 75.5 -350.5t233.5 -112.5t233 111.5t75 351.5t-76 352.5t-232 112.5q-158 0 -233.5 -112.5t-75.5 -352.5zM465 1262l149 376h131l-190 -389z " />
<glyph unicode="&#xf4;" d="M90 553q0 281 111.5 427t324.5 146t324 -146t111 -427t-111 -426t-324 -145q-215 0 -325.5 145t-110.5 426zM217 553q0 -238 75.5 -350.5t233.5 -112.5t233 111.5t75 351.5t-76 352.5t-232 112.5q-158 0 -233.5 -112.5t-75.5 -352.5zM229 1303v112l283 148l283 -148v-112 l-283 147z" />
<glyph unicode="&#xf5;" d="M90 553q0 281 111.5 427t324.5 146t324 -146t111 -427t-111 -426t-324 -145q-215 0 -325.5 145t-110.5 426zM170 1364q41 53 96.5 89t110.5 36q43 0 77.5 -14.5t67.5 -32t66 -31.5t69 -14q39 0 72 21.5t62 60.5l57 -49q-35 -61 -91.5 -96.5t-115.5 -35.5q-41 0 -76 14.5 t-67.5 31t-65.5 31t-70 14.5t-74.5 -21.5t-66.5 -56.5zM217 553q0 -238 75.5 -350.5t233.5 -112.5t233 111.5t75 351.5t-76 352.5t-232 112.5q-158 0 -233.5 -112.5t-75.5 -352.5z" />
<glyph unicode="&#xf6;" d="M90 553q0 281 111.5 427t324.5 146t324 -146t111 -427t-111 -426t-324 -145q-215 0 -325.5 145t-110.5 426zM217 553q0 -238 75.5 -350.5t233.5 -112.5t233 111.5t75 351.5t-76 352.5t-232 112.5q-158 0 -233.5 -112.5t-75.5 -352.5zM231 1391q0 41 21.5 59t58.5 18 t59.5 -18t22.5 -59t-22.5 -60.5t-59.5 -19.5t-58.5 19.5t-21.5 60.5zM629 1391q0 78 80 77q35 0 57 -18t22 -59t-22 -60.5t-57 -19.5q-80 0 -80 80z" />
<glyph unicode="&#xf7;" horiz-adv-x="1028" d="M125 707v102h780v-102h-780zM440 436q0 41 21.5 61.5t58.5 20.5t59.5 -21.5t22.5 -60.5t-22.5 -60.5t-59.5 -21.5t-58.5 21.5t-21.5 60.5zM440 1065q0 41 21.5 61.5t58.5 20.5t59.5 -21.5t22.5 -60.5t-22.5 -60.5t-59.5 -21.5t-58.5 21.5t-21.5 60.5z" />
<glyph unicode="&#xf8;" horiz-adv-x="1058" d="M59 0l123 164q-88 139 -88 389q0 281 110.5 427t325.5 146q180 0 289 -108l66 88h110l-121 -162q90 -143 91 -391q0 -281 -111 -426t-324 -145q-182 0 -290 108l-68 -90h-113zM221 553q0 -180 41 -283l486 652q-74 96 -218 96q-160 0 -234.5 -113.5t-74.5 -351.5z M309 184q76 -94 221 -94q160 0 234 112.5t74 350.5q0 174 -43 285z" />
<glyph unicode="&#xf9;" horiz-adv-x="1042" d="M135 272v834h125v-805q0 -111 38 -159t128 -48q82 0 165 34t185 99v879h125v-1106h-106l-11 125h-8q-63 -39 -114.5 -66.5t-96.5 -45t-86 -25.5t-84 -8q-135 0 -197.5 70.5t-62.5 221.5zM285 1642h133l147 -368l-90 -21z" />
<glyph unicode="&#xfa;" horiz-adv-x="1042" d="M135 272v834h125v-805q0 -111 38 -159t128 -48q82 0 165 34t185 99v879h125v-1106h-106l-11 125h-8q-63 -39 -114.5 -66.5t-96.5 -45t-86 -25.5t-84 -8q-135 0 -197.5 70.5t-62.5 221.5zM469 1262l149 376h132l-191 -389z" />
<glyph unicode="&#xfb;" horiz-adv-x="1042" d="M135 272v834h125v-805q0 -111 38 -159t128 -48q82 0 165 34t185 99v879h125v-1106h-106l-11 125h-8q-63 -39 -114.5 -66.5t-96.5 -45t-86 -25.5t-84 -8q-135 0 -197.5 70.5t-62.5 221.5zM236 1303v112l282 148l283 -148v-112l-283 147z" />
<glyph unicode="&#xfc;" horiz-adv-x="1042" d="M135 272v834h125v-805q0 -111 38 -159t128 -48q82 0 165 34t185 99v879h125v-1106h-106l-11 125h-8q-63 -39 -114.5 -66.5t-96.5 -45t-86 -25.5t-84 -8q-135 0 -197.5 70.5t-62.5 221.5zM236 1391q0 41 21.5 59t57.5 18q37 0 59.5 -18t22.5 -59t-22.5 -60.5t-59.5 -19.5 t-58 19.5t-21 60.5zM633 1391q0 78 80 77q35 0 57.5 -18t22.5 -59t-22.5 -60.5t-57.5 -19.5q-80 0 -80 80z" />
<glyph unicode="&#xfd;" horiz-adv-x="989" d="M31 1094v12h127l299 -836l35 -125h8l35 125l299 836h127v-12l-564 -1545l-118 25v12l151 418zM461 1262l149 376h131l-190 -389z" />
<glyph unicode="&#xfe;" d="M143 -451v2106h125v-664q115 133 307 133q190 0 288 -137t98 -416q0 -293 -128 -442t-364 -149q-49 0 -101.5 6t-99.5 14v-451h-125zM268 104q113 -22 207 -22q176 0 266 115.5t90 365.5q0 238 -70.5 348.5t-213.5 110.5q-53 0 -103.5 -17.5t-89.5 -48t-62.5 -74.5 t-23.5 -98v-680z" />
<glyph unicode="&#xff;" horiz-adv-x="989" d="M31 1094v12h127l299 -836l35 -125h8l35 125l299 836h127v-12l-564 -1545l-118 25v12l151 418zM225 1391q0 41 21.5 59t58.5 18t59.5 -18t22.5 -59t-22.5 -60.5t-59.5 -19.5t-58.5 19.5t-21.5 60.5zM623 1391q0 78 79 77q35 0 57.5 -18t22.5 -59t-22.5 -60.5t-57.5 -19.5 q-80 0 -79 80z" />
<glyph unicode="&#x152;" horiz-adv-x="1708" d="M100 756q0 387 144.5 578.5t425.5 191.5q45 0 96 -3t88 -7h745v-113h-624v-578h569v-110h-569v-602h643v-113h-764q-37 -4 -89 -7t-95 -3q-281 0 -425.5 191.5t-144.5 574.5zM227 756q0 -338 108 -495t341 -157q41 0 89 2.5t83 8.5v1284q-37 8 -85 10t-89 2 q-229 0 -338 -157.5t-109 -497.5z" />
<glyph unicode="&#x153;" horiz-adv-x="1705" d="M90 553q0 281 111.5 427t324.5 146q141 0 233.5 -73.5t133.5 -214.5h12q43 141 134 213.5t231 72.5q174 0 263 -120.5t89 -354.5q0 -49 -2 -80.5t-6 -62.5h-651q4 -205 85.5 -311.5t239.5 -106.5q68 0 136.5 15.5t146.5 48.5l10 -107q-66 -29 -145.5 -46t-153.5 -17 q-145 0 -240.5 71.5t-140.5 206.5h-8q-90 -279 -367 -278q-215 0 -325.5 145t-110.5 426zM217 553q0 -238 75.5 -350.5t233.5 -112.5t233 111.5t75 351.5t-76 352.5t-232 112.5q-158 0 -233.5 -112.5t-75.5 -352.5zM963 602h540q-6 221 -61.5 319.5t-173.5 98.5 q-141 0 -218 -106.5t-87 -311.5z" />
<glyph unicode="&#x178;" horiz-adv-x="1130" d="M6 1516h137l365 -750l51 -127h12l52 127l364 750h137l-495 -1002v-514h-125v508zM272 1757q0 45 22.5 65.5t63.5 20.5t66 -20.5t25 -65.5q0 -47 -25 -67.5t-66 -20.5t-63.5 21.5t-22.5 66.5zM692 1757q0 45 23.5 65.5t64.5 20.5q39 0 63.5 -20.5t24.5 -65.5 q0 -47 -24.5 -67.5t-63.5 -20.5q-41 0 -64.5 21.5t-23.5 66.5z" />
<glyph unicode="&#x2c6;" horiz-adv-x="761" d="M88 1303v112l283 148l282 -148v-112l-282 147z" />
<glyph unicode="&#x2dc;" horiz-adv-x="878" d="M80 1364q41 53 96 89t111 36q43 0 77.5 -14.5t67.5 -32t65.5 -31.5t69.5 -14q39 0 72 21.5t61 60.5l58 -49q-35 -61 -91.5 -96.5t-115.5 -35.5q-41 0 -76 14.5t-67.5 31t-65.5 31t-70 14.5t-74.5 -21.5t-66.5 -56.5z" />
<glyph unicode="&#x2000;" horiz-adv-x="967" />
<glyph unicode="&#x2001;" horiz-adv-x="1935" />
<glyph unicode="&#x2002;" horiz-adv-x="967" />
<glyph unicode="&#x2003;" horiz-adv-x="1935" />
<glyph unicode="&#x2004;" horiz-adv-x="645" />
<glyph unicode="&#x2005;" horiz-adv-x="483" />
<glyph unicode="&#x2006;" horiz-adv-x="322" />
<glyph unicode="&#x2007;" horiz-adv-x="322" />
<glyph unicode="&#x2008;" horiz-adv-x="241" />
<glyph unicode="&#x2009;" horiz-adv-x="387" />
<glyph unicode="&#x200a;" horiz-adv-x="107" />
<glyph unicode="&#x2010;" horiz-adv-x="741" d="M125 518v111h489v-111h-489z" />
<glyph unicode="&#x2011;" horiz-adv-x="741" d="M125 518v111h489v-111h-489z" />
<glyph unicode="&#x2012;" horiz-adv-x="741" d="M125 518v111h489v-111h-489z" />
<glyph unicode="&#x2013;" horiz-adv-x="1071" d="M137 518v111h797v-111h-797z" />
<glyph unicode="&#x2014;" horiz-adv-x="1421" d="M137 518v111h1147v-111h-1147z" />
<glyph unicode="&#x2018;" horiz-adv-x="364" d="M106 1282q0 98 28 201.5t75 177.5l65 -16q-31 -78 -48 -169.5t-17 -170.5q0 -51 8 -102.5t29 -108.5l-111 -21q-29 84 -29 209z" />
<glyph unicode="&#x2019;" horiz-adv-x="364" d="M96 1090q31 78 48.5 169t17.5 173q0 49 -8.5 101t-28.5 107l111 21q16 -45 23 -95t7 -112q0 -98 -28.5 -202.5t-75.5 -178.5z" />
<glyph unicode="&#x201a;" horiz-adv-x="376" d="M76 -258q31 78 48 169t17 173q0 49 -8 101.5t-29 107.5l111 20q16 -45 23.5 -95t7.5 -112q0 -98 -29 -202.5t-76 -177.5z" />
<glyph unicode="&#x201c;" horiz-adv-x="768" d="M106 1282q0 98 28 201.5t75 177.5l65 -16q-31 -78 -48 -169.5t-17 -170.5q0 -51 8 -102.5t29 -108.5l-111 -21q-29 84 -29 209zM510 1282q0 98 27.5 201.5t74.5 177.5l66 -16q-31 -78 -48.5 -169.5t-17.5 -170.5q0 -51 8.5 -102.5t28.5 -108.5l-110 -21q-29 84 -29 209z " />
<glyph unicode="&#x201d;" horiz-adv-x="765" d="M96 1090q31 78 48.5 169t17.5 173q0 49 -8.5 101t-28.5 107l111 21q16 -45 23 -95t7 -112q0 -98 -28.5 -202.5t-75.5 -178.5zM500 1090q31 78 48 169t17 173q0 49 -8 101t-29 107l111 21q16 -45 23.5 -95t7.5 -112q0 -98 -29 -202.5t-76 -178.5z" />
<glyph unicode="&#x201e;" horiz-adv-x="778" d="M76 -258q31 78 48 169t17 173q0 49 -8 101.5t-29 107.5l111 20q16 -45 23.5 -95t7.5 -112q0 -98 -29 -202.5t-76 -177.5zM477 -258q31 78 48.5 169t17.5 173q0 49 -8.5 101.5t-28.5 107.5l110 20q16 -45 23.5 -95t7.5 -112q0 -98 -28.5 -202.5t-75.5 -177.5z" />
<glyph unicode="&#x2022;" horiz-adv-x="598" d="M158 758q0 82 42 111.5t99 29.5q55 0 97 -29.5t42 -111.5t-42 -112t-97 -30q-57 0 -99 30t-42 112z" />
<glyph unicode="&#x2026;" horiz-adv-x="1218" d="M119 82q0 90 88 90q43 0 67.5 -23.5t24.5 -66.5q0 -41 -24.5 -63.5t-67.5 -22.5q-88 0 -88 86zM528 82q0 90 88 90q43 0 68 -23.5t25 -66.5q0 -41 -25 -63.5t-68 -22.5q-88 0 -88 86zM922 82q0 90 88 90q43 0 67.5 -23.5t24.5 -66.5q0 -41 -24.5 -63.5t-67.5 -22.5 q-88 0 -88 86z" />
<glyph unicode="&#x202f;" horiz-adv-x="387" />
<glyph unicode="&#x2039;" horiz-adv-x="542" d="M76 549v8l250 487h131l-250 -487v-8l250 -488h-131z" />
<glyph unicode="&#x203a;" horiz-adv-x="542" d="M88 61l250 488v8l-250 487h129l252 -487v-8l-252 -488h-129z" />
<glyph unicode="&#x205f;" horiz-adv-x="483" />
<glyph unicode="&#x20ac;" horiz-adv-x="1101" d="M84 539v94h158q-2 29 -3 59.5t-1 63.5v63.5t2 61.5h-156v94h166q35 295 185.5 427t438.5 132q49 0 82 -4t68 -8l-41 -109q-18 2 -39.5 3t-52.5 1q-121 0 -209 -23.5t-150.5 -76.5t-99.5 -137t-51 -205h487l-39 -94h-458q-2 -29 -2 -61v-64v-63.5t2 -59.5h428l-39 -94 h-379q33 -233 151.5 -339t350.5 -106q20 0 50 3t62 7v-116q-39 -8 -116 -8q-285 2 -437.5 137t-191.5 422h-166z" />
<glyph unicode="&#x2122;" horiz-adv-x="1658" d="M61 1423v93h580v-93h-240v-768h-100v768h-240zM748 655v861h116l269 -685l266 685h119v-861h-97v662l-241 -625h-95l-241 623v-660h-96z" />
<glyph unicode="&#x25fc;" horiz-adv-x="1105" d="M0 0v1106h1106v-1106h-1106z" />
</font>
</defs>
</svg>
